<svg width="33" height="32" viewBox="0 0 33 32" fill="none" xmlns="http://www.w3.org/2000/svg">
<g clip-path="url(#clip0_642_1382)">
<path d="M26.8851 31.3599H8.42314C4.40714 31.3599 1.14014 28.0919 1.14014 24.0769C1.14014 19.7129 5.05614 16.1139 9.41214 16.7079C11.4221 13.2509 14.0471 11.6399 17.6541 11.6399C23.2581 11.6399 27.0641 16.7509 27.2381 21.6499C29.8961 21.8119 31.8601 23.7939 31.8601 26.3839C31.8601 29.1749 29.6751 31.3599 26.8851 31.3599ZM25.3601 30.6399H26.8841C29.2701 30.6399 31.1391 28.7709 31.1391 26.3849C31.1391 24.0529 29.3501 22.3609 26.8841 22.3609C26.6851 22.3609 26.5241 22.1999 26.5241 22.0009C26.5241 17.3459 22.9601 12.3609 17.6541 12.3609C14.2591 12.3609 11.8011 13.9239 9.91614 17.2789C9.84114 17.4109 9.69214 17.4839 9.54114 17.4569C5.52714 16.7779 1.85914 20.0609 1.85914 24.0779C1.85914 27.6969 4.80314 30.6399 8.42214 30.6399H9.64014V27.9999C9.64014 27.8009 9.80114 27.6399 10.0001 27.6399H13.0001C13.1991 27.6399 13.3601 27.8009 13.3601 27.9999V30.6399H21.6401V27.9999C21.6401 27.8009 21.8011 27.6399 22.0001 27.6399H25.0001C25.1991 27.6399 25.3601 27.8009 25.3601 27.9999V30.6399ZM22.3601 30.6399H24.6391V28.3599H22.3601V30.6399ZM10.3601 30.6399H12.6401V28.3599H10.3601V30.6399ZM18.5001 24.3599H15.5001C15.3011 24.3599 15.1401 24.1989 15.1401 23.9999V20.9999C15.1401 20.8009 15.3011 20.6399 15.5001 20.6399H18.5001C18.6991 20.6399 18.8601 20.8009 18.8601 20.9999V23.9999C18.8601 24.1989 18.6991 24.3599 18.5001 24.3599ZM15.8601 23.6399H18.1401V21.3599H15.8601V23.6399ZM13.0001 24.3599H10.0001C9.80114 24.3599 9.64014 24.1989 9.64014 23.9999V20.9999C9.64014 20.8009 9.80114 20.6399 10.0001 20.6399H13.0001C13.1991 20.6399 13.3601 20.8009 13.3601 20.9999V23.9999C13.3601 24.1989 13.1991 24.3599 13.0001 24.3599ZM10.3601 23.6399H12.6401V21.3599H10.3601V23.6399ZM31.5001 16.3599H28.5001C28.3011 16.3599 28.1401 16.1989 28.1401 15.9999V12.9999C28.1401 12.8009 28.3011 12.6399 28.5001 12.6399H31.5001C31.6991 12.6399 31.8601 12.8009 31.8601 12.9999V15.9999C31.8601 16.1989 31.6991 16.3599 31.5001 16.3599ZM28.8601 15.6399H31.1391V13.3599H28.8601V15.6399ZM24.5001 10.3599H21.5001C21.3011 10.3599 21.1401 10.1989 21.1401 9.99989V6.99989C21.1401 6.80089 21.3011 6.63989 21.5001 6.63989H24.5001C24.6991 6.63989 24.8601 6.80089 24.8601 6.99989V9.99989C24.8601 10.1989 24.6991 10.3599 24.5001 10.3599ZM21.8601 9.63989H24.1391V7.35989H21.8601V9.63989ZM4.50014 10.3599H1.50014C1.30114 10.3599 1.14014 10.1989 1.14014 9.99989V6.99989C1.14014 6.80089 1.30114 6.63989 1.50014 6.63989H4.50014C4.69914 6.63989 4.86014 6.80089 4.86014 6.99989V9.99989C4.86014 10.1989 4.69914 10.3599 4.50014 10.3599ZM1.86014 9.63989H4.14014V7.35989H1.86014V9.63989ZM31.5001 4.35989H28.5001C28.3011 4.35989 28.1401 4.19889 28.1401 3.99989V0.999893C28.1401 0.800893 28.3011 0.639893 28.5001 0.639893H31.5001C31.6991 0.639893 31.8601 0.800893 31.8601 0.999893V3.99989C31.8601 4.19889 31.6991 4.35989 31.5001 4.35989ZM28.8601 3.63989H31.1391V1.35989H28.8601V3.63989ZM12.5001 4.35989H9.50014C9.30114 4.35989 9.14014 4.19889 9.14014 3.99989V0.999893C9.14014 0.800893 9.30114 0.639893 9.50014 0.639893H12.5001C12.6991 0.639893 12.8601 0.800893 12.8601 0.999893V3.99989C12.8601 4.19889 12.6991 4.35989 12.5001 4.35989ZM9.86014 3.63989H12.1401V1.35989H9.86014V3.63989Z" fill="#2762BF"/>
</g>
<defs>
<clipPath id="clip0_642_1382">
<rect width="32" height="32" fill="white" transform="translate(0.5)"/>
</clipPath>
</defs>
</svg>
