<svg width="33" height="32" viewBox="0 0 33 32" fill="none" xmlns="http://www.w3.org/2000/svg">
<g clip-path="url(#clip0_642_1141)">
<path d="M19.4999 28.3599C15.7579 28.3599 12.2779 26.7029 9.91689 23.8059C9.61589 23.8419 9.30989 23.8599 8.99989 23.8599C4.66589 23.8599 1.13989 20.3339 1.13989 15.9999C1.13989 11.6659 4.66589 8.13989 8.99989 8.13989C9.30989 8.13989 9.61589 8.15789 9.91689 8.19289C12.2779 5.29689 15.7589 3.63989 19.4999 3.63989C24.0459 3.63989 28.0259 6.10689 30.1739 9.77189C30.1969 9.80189 30.2169 9.83489 30.2309 9.87089C31.2669 11.6779 31.8609 13.7709 31.8609 15.9989C31.8609 18.2269 31.2669 20.3199 30.2309 22.1279C30.2169 22.1639 30.1979 22.1969 30.1739 22.2269C28.0259 25.8939 24.0459 28.3599 19.4999 28.3599ZM19.8599 22.3599V27.6159C21.6829 27.3779 23.2749 25.3419 24.2209 22.3599H19.8599ZM14.7889 22.3599C15.7639 25.3919 17.3959 27.3729 19.1399 27.6149V22.3599H14.7889ZM10.7399 23.6659C12.3919 25.5559 14.5699 26.8379 16.9749 27.3669C15.7589 26.3599 14.7259 24.6289 14.0339 22.3599H13.6139C12.7669 22.9759 11.7929 23.4269 10.7399 23.6659ZM24.9809 22.3599C24.3079 24.5799 23.2869 26.3329 22.0529 27.3569C25.0489 26.6839 27.6119 24.8519 29.2439 22.3599H24.9809ZM3.33489 20.3419C4.64089 22.0419 6.69489 23.1399 8.99989 23.1399C12.9369 23.1399 16.1399 19.9369 16.1399 15.9999C16.1399 14.2569 15.5129 12.6579 14.4709 11.4169L11.4639 14.4199C11.3229 14.5599 11.0959 14.5599 10.9549 14.4199L8.53789 12.0059L6.83589 17.1069C6.78689 17.2539 6.64889 17.3529 6.49489 17.3529H4.83189L3.33489 20.3419ZM25.1829 21.6399H29.6799C30.5559 20.0669 31.0759 18.2709 31.1349 16.3599H25.8579C25.8309 18.2689 25.5909 20.0579 25.1829 21.6399ZM19.8599 21.6399H24.4319C24.8559 20.0669 25.1089 18.2709 25.1369 16.3599H19.8599V21.6399ZM14.5759 21.6399H19.1399V16.3599H16.8519C16.7599 18.3849 15.8979 20.2129 14.5529 21.5579C14.5609 21.5849 14.5679 21.6119 14.5759 21.6399ZM8.99989 8.85989C5.06289 8.85989 1.85989 12.0629 1.85989 15.9999C1.85989 17.3369 2.22989 18.5889 2.87089 19.6599L4.28789 16.8329C4.34889 16.7109 4.47389 16.6339 4.60989 16.6339H6.23589L8.03989 11.2269C8.07889 11.1079 8.17689 11.0189 8.29789 10.9899C8.42189 10.9609 8.54689 10.9979 8.63489 11.0859L11.2089 13.6569L13.9799 10.8889C12.6939 9.63389 10.9359 8.85989 8.99989 8.85989ZM25.8569 15.6399H31.1339C31.0749 13.7289 30.5549 11.9329 29.6789 10.3599H25.1819C25.5909 11.9429 25.8309 13.7309 25.8569 15.6399ZM19.8599 15.6399H25.1369C25.1089 13.7289 24.8559 11.9329 24.4319 10.3599H19.8599V15.6399ZM16.8519 15.6399H19.1399V10.3599H14.5759C14.5689 10.3869 14.5609 10.4149 14.5539 10.4429C14.6089 10.4979 14.6629 10.5539 14.7159 10.6099C14.7259 10.6179 14.7359 10.6269 14.7449 10.6359C14.7599 10.6519 14.7739 10.6679 14.7859 10.6849C15.9969 12.0029 16.7659 13.7339 16.8519 15.6399ZM24.9809 9.63989H29.2449C27.6119 7.14689 25.0499 5.31489 22.0539 4.64189C23.2869 5.66689 24.3089 7.41989 24.9809 9.63989ZM19.8599 9.63989H24.2209C23.2749 6.65789 21.6829 4.62089 19.8599 4.38289V9.63989ZM14.7889 9.63989H19.1399V4.38489C17.3959 4.62589 15.7639 6.60689 14.7889 9.63989ZM13.6139 9.63989H14.0339C14.7269 7.37089 15.7599 5.63989 16.9749 4.63289C14.5699 5.16189 12.3919 6.44389 10.7399 8.33389C11.7929 8.57289 12.7669 9.02389 13.6139 9.63989Z" fill="#2762BF"/>
</g>
<defs>
<clipPath id="clip0_642_1141">
<rect width="32" height="32" fill="white" transform="translate(0.5)"/>
</clipPath>
</defs>
</svg>
