<svg width="141" height="156" viewBox="0 0 141 156" fill="none" xmlns="http://www.w3.org/2000/svg">
<path d="M4.54839 2.60949C4.54839 3.86837 3.5302 4.8889 2.27419 4.8889C1.01819 4.8889 0 3.86837 0 2.60949C0 1.35061 1.01819 0.330078 2.27419 0.330078C3.5302 0.330078 4.54839 1.35061 4.54839 2.60949Z" fill="#CECECE"/>
<path d="M18.1935 2.60949C18.1935 3.86837 17.1754 4.8889 15.9194 4.8889C14.6634 4.8889 13.6452 3.86837 13.6452 2.60949C13.6452 1.35061 14.6634 0.330078 15.9194 0.330078C17.1754 0.330078 18.1935 1.35061 18.1935 2.60949Z" fill="#CECECE"/>
<path d="M31.8387 2.60949C31.8387 3.86837 30.8205 4.8889 29.5645 4.8889C28.3085 4.8889 27.2903 3.86837 27.2903 2.60949C27.2903 1.35061 28.3085 0.330078 29.5645 0.330078C30.8205 0.330078 31.8387 1.35061 31.8387 2.60949Z" fill="#CECECE"/>
<path d="M45.4839 2.60949C45.4839 3.86837 44.4657 4.8889 43.2097 4.8889C41.9537 4.8889 40.9355 3.86837 40.9355 2.60949C40.9355 1.35061 41.9537 0.330078 43.2097 0.330078C44.4657 0.330078 45.4839 1.35061 45.4839 2.60949Z" fill="#CECECE"/>
<path d="M59.129 2.60949C59.129 3.86837 58.1108 4.8889 56.8548 4.8889C55.5988 4.8889 54.5806 3.86837 54.5806 2.60949C54.5806 1.35061 55.5988 0.330078 56.8548 0.330078C58.1108 0.330078 59.129 1.35061 59.129 2.60949Z" fill="#CECECE"/>
<path d="M72.7742 2.60949C72.7742 3.86837 71.756 4.8889 70.5 4.8889C69.244 4.8889 68.2258 3.86837 68.2258 2.60949C68.2258 1.35061 69.244 0.330078 70.5 0.330078C71.756 0.330078 72.7742 1.35061 72.7742 2.60949Z" fill="#CECECE"/>
<path d="M86.4194 2.60949C86.4194 3.86837 85.4012 4.8889 84.1452 4.8889C82.8892 4.8889 81.871 3.86837 81.871 2.60949C81.871 1.35061 82.8892 0.330078 84.1452 0.330078C85.4012 0.330078 86.4194 1.35061 86.4194 2.60949Z" fill="#CECECE"/>
<path d="M100.065 2.60949C100.065 3.86837 99.0463 4.8889 97.7903 4.8889C96.5343 4.8889 95.5161 3.86837 95.5161 2.60949C95.5161 1.35061 96.5343 0.330078 97.7903 0.330078C99.0463 0.330078 100.065 1.35061 100.065 2.60949Z" fill="#CECECE"/>
<path d="M113.71 2.60949C113.71 3.86837 112.691 4.8889 111.435 4.8889C110.179 4.8889 109.161 3.86837 109.161 2.60949C109.161 1.35061 110.179 0.330078 111.435 0.330078C112.691 0.330078 113.71 1.35061 113.71 2.60949Z" fill="#CECECE"/>
<path d="M127.355 2.60949C127.355 3.86837 126.337 4.8889 125.081 4.8889C123.825 4.8889 122.806 3.86837 122.806 2.60949C122.806 1.35061 123.825 0.330078 125.081 0.330078C126.337 0.330078 127.355 1.35061 127.355 2.60949Z" fill="#CECECE"/>
<path d="M141 2.60949C141 3.86837 139.982 4.8889 138.726 4.8889C137.47 4.8889 136.452 3.86837 136.452 2.60949C136.452 1.35061 137.47 0.330078 138.726 0.330078C139.982 0.330078 141 1.35061 141 2.60949Z" fill="#CECECE"/>
<path d="M4.54839 16.286C4.54839 17.5448 3.5302 18.5654 2.27419 18.5654C1.01819 18.5654 0 17.5448 0 16.286C0 15.0271 1.01819 14.0065 2.27419 14.0065C3.5302 14.0065 4.54839 15.0271 4.54839 16.286Z" fill="#CECECE"/>
<path d="M18.1935 16.286C18.1935 17.5448 17.1754 18.5654 15.9194 18.5654C14.6634 18.5654 13.6452 17.5448 13.6452 16.286C13.6452 15.0271 14.6634 14.0065 15.9194 14.0065C17.1754 14.0065 18.1935 15.0271 18.1935 16.286Z" fill="#CECECE"/>
<path d="M31.8387 16.286C31.8387 17.5448 30.8205 18.5654 29.5645 18.5654C28.3085 18.5654 27.2903 17.5448 27.2903 16.286C27.2903 15.0271 28.3085 14.0065 29.5645 14.0065C30.8205 14.0065 31.8387 15.0271 31.8387 16.286Z" fill="#CECECE"/>
<path d="M45.4839 16.286C45.4839 17.5448 44.4657 18.5654 43.2097 18.5654C41.9537 18.5654 40.9355 17.5448 40.9355 16.286C40.9355 15.0271 41.9537 14.0065 43.2097 14.0065C44.4657 14.0065 45.4839 15.0271 45.4839 16.286Z" fill="#CECECE"/>
<path d="M59.129 16.286C59.129 17.5448 58.1108 18.5654 56.8548 18.5654C55.5988 18.5654 54.5806 17.5448 54.5806 16.286C54.5806 15.0271 55.5988 14.0065 56.8548 14.0065C58.1108 14.0065 59.129 15.0271 59.129 16.286Z" fill="#CECECE"/>
<path d="M72.7742 16.286C72.7742 17.5448 71.756 18.5654 70.5 18.5654C69.244 18.5654 68.2258 17.5448 68.2258 16.286C68.2258 15.0271 69.244 14.0065 70.5 14.0065C71.756 14.0065 72.7742 15.0271 72.7742 16.286Z" fill="#CECECE"/>
<path d="M86.4194 16.286C86.4194 17.5448 85.4012 18.5654 84.1452 18.5654C82.8892 18.5654 81.871 17.5448 81.871 16.286C81.871 15.0271 82.8892 14.0065 84.1452 14.0065C85.4012 14.0065 86.4194 15.0271 86.4194 16.286Z" fill="#CECECE"/>
<path d="M100.065 16.286C100.065 17.5448 99.0463 18.5654 97.7903 18.5654C96.5343 18.5654 95.5161 17.5448 95.5161 16.286C95.5161 15.0271 96.5343 14.0065 97.7903 14.0065C99.0463 14.0065 100.065 15.0271 100.065 16.286Z" fill="#CECECE"/>
<path d="M113.71 16.286C113.71 17.5448 112.691 18.5654 111.435 18.5654C110.179 18.5654 109.161 17.5448 109.161 16.286C109.161 15.0271 110.179 14.0065 111.435 14.0065C112.691 14.0065 113.71 15.0271 113.71 16.286Z" fill="#CECECE"/>
<path d="M127.355 16.286C127.355 17.5448 126.337 18.5654 125.081 18.5654C123.825 18.5654 122.806 17.5448 122.806 16.286C122.806 15.0271 123.825 14.0065 125.081 14.0065C126.337 14.0065 127.355 15.0271 127.355 16.286Z" fill="#CECECE"/>
<path d="M141 16.286C141 17.5448 139.982 18.5654 138.726 18.5654C137.47 18.5654 136.452 17.5448 136.452 16.286C136.452 15.0271 137.47 14.0065 138.726 14.0065C139.982 14.0065 141 15.0271 141 16.286Z" fill="#CECECE"/>
<path d="M4.54839 29.9624C4.54839 31.2213 3.5302 32.2418 2.27419 32.2418C1.01819 32.2418 0 31.2213 0 29.9624C0 28.7035 1.01819 27.683 2.27419 27.683C3.5302 27.683 4.54839 28.7035 4.54839 29.9624Z" fill="#CECECE"/>
<path d="M18.1935 29.9624C18.1935 31.2213 17.1754 32.2418 15.9194 32.2418C14.6634 32.2418 13.6452 31.2213 13.6452 29.9624C13.6452 28.7035 14.6634 27.683 15.9194 27.683C17.1754 27.683 18.1935 28.7035 18.1935 29.9624Z" fill="#CECECE"/>
<path d="M31.8387 29.9624C31.8387 31.2213 30.8205 32.2418 29.5645 32.2418C28.3085 32.2418 27.2903 31.2213 27.2903 29.9624C27.2903 28.7035 28.3085 27.683 29.5645 27.683C30.8205 27.683 31.8387 28.7035 31.8387 29.9624Z" fill="#CECECE"/>
<path d="M45.4839 29.9624C45.4839 31.2213 44.4657 32.2418 43.2097 32.2418C41.9537 32.2418 40.9355 31.2213 40.9355 29.9624C40.9355 28.7035 41.9537 27.683 43.2097 27.683C44.4657 27.683 45.4839 28.7035 45.4839 29.9624Z" fill="#CECECE"/>
<path d="M59.129 29.9624C59.129 31.2213 58.1108 32.2418 56.8548 32.2418C55.5988 32.2418 54.5806 31.2213 54.5806 29.9624C54.5806 28.7035 55.5988 27.683 56.8548 27.683C58.1108 27.683 59.129 28.7035 59.129 29.9624Z" fill="#CECECE"/>
<path d="M72.7742 29.9624C72.7742 31.2213 71.756 32.2418 70.5 32.2418C69.244 32.2418 68.2258 31.2213 68.2258 29.9624C68.2258 28.7035 69.244 27.683 70.5 27.683C71.756 27.683 72.7742 28.7035 72.7742 29.9624Z" fill="#CECECE"/>
<path d="M86.4194 29.9624C86.4194 31.2213 85.4012 32.2418 84.1452 32.2418C82.8892 32.2418 81.871 31.2213 81.871 29.9624C81.871 28.7035 82.8892 27.683 84.1452 27.683C85.4012 27.683 86.4194 28.7035 86.4194 29.9624Z" fill="#CECECE"/>
<path d="M100.065 29.9624C100.065 31.2213 99.0463 32.2418 97.7903 32.2418C96.5343 32.2418 95.5161 31.2213 95.5161 29.9624C95.5161 28.7035 96.5343 27.683 97.7903 27.683C99.0463 27.683 100.065 28.7035 100.065 29.9624Z" fill="#CECECE"/>
<path d="M113.71 29.9624C113.71 31.2213 112.691 32.2418 111.435 32.2418C110.179 32.2418 109.161 31.2213 109.161 29.9624C109.161 28.7035 110.179 27.683 111.435 27.683C112.691 27.683 113.71 28.7035 113.71 29.9624Z" fill="#CECECE"/>
<path d="M127.355 29.9624C127.355 31.2213 126.337 32.2418 125.081 32.2418C123.825 32.2418 122.806 31.2213 122.806 29.9624C122.806 28.7035 123.825 27.683 125.081 27.683C126.337 27.683 127.355 28.7035 127.355 29.9624Z" fill="#CECECE"/>
<path d="M141 29.9624C141 31.2213 139.982 32.2418 138.726 32.2418C137.47 32.2418 136.452 31.2213 136.452 29.9624C136.452 28.7035 137.47 27.683 138.726 27.683C139.982 27.683 141 28.7035 141 29.9624Z" fill="#CECECE"/>
<path d="M4.54839 43.6389C4.54839 44.8978 3.5302 45.9183 2.27419 45.9183C1.01819 45.9183 0 44.8978 0 43.6389C0 42.38 1.01819 41.3595 2.27419 41.3595C3.5302 41.3595 4.54839 42.38 4.54839 43.6389Z" fill="#CECECE"/>
<path d="M18.1935 43.6389C18.1935 44.8978 17.1754 45.9183 15.9194 45.9183C14.6634 45.9183 13.6452 44.8978 13.6452 43.6389C13.6452 42.38 14.6634 41.3595 15.9194 41.3595C17.1754 41.3595 18.1935 42.38 18.1935 43.6389Z" fill="#CECECE"/>
<path d="M31.8387 43.6389C31.8387 44.8978 30.8205 45.9183 29.5645 45.9183C28.3085 45.9183 27.2903 44.8978 27.2903 43.6389C27.2903 42.38 28.3085 41.3595 29.5645 41.3595C30.8205 41.3595 31.8387 42.38 31.8387 43.6389Z" fill="#CECECE"/>
<path d="M45.4839 43.6389C45.4839 44.8978 44.4657 45.9183 43.2097 45.9183C41.9537 45.9183 40.9355 44.8978 40.9355 43.6389C40.9355 42.38 41.9537 41.3595 43.2097 41.3595C44.4657 41.3595 45.4839 42.38 45.4839 43.6389Z" fill="#CECECE"/>
<path d="M59.129 43.6389C59.129 44.8978 58.1108 45.9183 56.8548 45.9183C55.5988 45.9183 54.5806 44.8978 54.5806 43.6389C54.5806 42.38 55.5988 41.3595 56.8548 41.3595C58.1108 41.3595 59.129 42.38 59.129 43.6389Z" fill="#CECECE"/>
<path d="M72.7742 43.6389C72.7742 44.8978 71.756 45.9183 70.5 45.9183C69.244 45.9183 68.2258 44.8978 68.2258 43.6389C68.2258 42.38 69.244 41.3595 70.5 41.3595C71.756 41.3595 72.7742 42.38 72.7742 43.6389Z" fill="#CECECE"/>
<path d="M86.4194 43.6389C86.4194 44.8978 85.4012 45.9183 84.1452 45.9183C82.8892 45.9183 81.871 44.8978 81.871 43.6389C81.871 42.38 82.8892 41.3595 84.1452 41.3595C85.4012 41.3595 86.4194 42.38 86.4194 43.6389Z" fill="#CECECE"/>
<path d="M100.065 43.6389C100.065 44.8978 99.0463 45.9183 97.7903 45.9183C96.5343 45.9183 95.5161 44.8978 95.5161 43.6389C95.5161 42.38 96.5343 41.3595 97.7903 41.3595C99.0463 41.3595 100.065 42.38 100.065 43.6389Z" fill="#CECECE"/>
<path d="M113.71 43.6389C113.71 44.8978 112.691 45.9183 111.435 45.9183C110.179 45.9183 109.161 44.8978 109.161 43.6389C109.161 42.38 110.179 41.3595 111.435 41.3595C112.691 41.3595 113.71 42.38 113.71 43.6389Z" fill="#CECECE"/>
<path d="M127.355 43.6389C127.355 44.8978 126.337 45.9183 125.081 45.9183C123.825 45.9183 122.806 44.8978 122.806 43.6389C122.806 42.38 123.825 41.3595 125.081 41.3595C126.337 41.3595 127.355 42.38 127.355 43.6389Z" fill="#CECECE"/>
<path d="M141 43.6389C141 44.8978 139.982 45.9183 138.726 45.9183C137.47 45.9183 136.452 44.8978 136.452 43.6389C136.452 42.38 137.47 41.3595 138.726 41.3595C139.982 41.3595 141 42.38 141 43.6389Z" fill="#CECECE"/>
<path d="M4.54839 57.3154C4.54839 58.5743 3.5302 59.5948 2.27419 59.5948C1.01819 59.5948 0 58.5743 0 57.3154C0 56.0565 1.01819 55.036 2.27419 55.036C3.5302 55.036 4.54839 56.0565 4.54839 57.3154Z" fill="#CECECE"/>
<path d="M18.1935 57.3154C18.1935 58.5743 17.1754 59.5948 15.9194 59.5948C14.6634 59.5948 13.6452 58.5743 13.6452 57.3154C13.6452 56.0565 14.6634 55.036 15.9194 55.036C17.1754 55.036 18.1935 56.0565 18.1935 57.3154Z" fill="#CECECE"/>
<path d="M31.8387 57.3154C31.8387 58.5743 30.8205 59.5948 29.5645 59.5948C28.3085 59.5948 27.2903 58.5743 27.2903 57.3154C27.2903 56.0565 28.3085 55.036 29.5645 55.036C30.8205 55.036 31.8387 56.0565 31.8387 57.3154Z" fill="#CECECE"/>
<path d="M45.4839 57.3154C45.4839 58.5743 44.4657 59.5948 43.2097 59.5948C41.9537 59.5948 40.9355 58.5743 40.9355 57.3154C40.9355 56.0565 41.9537 55.036 43.2097 55.036C44.4657 55.036 45.4839 56.0565 45.4839 57.3154Z" fill="#CECECE"/>
<path d="M59.129 57.3154C59.129 58.5743 58.1108 59.5948 56.8548 59.5948C55.5988 59.5948 54.5806 58.5743 54.5806 57.3154C54.5806 56.0565 55.5988 55.036 56.8548 55.036C58.1108 55.036 59.129 56.0565 59.129 57.3154Z" fill="#CECECE"/>
<path d="M72.7742 57.3154C72.7742 58.5743 71.756 59.5948 70.5 59.5948C69.244 59.5948 68.2258 58.5743 68.2258 57.3154C68.2258 56.0565 69.244 55.036 70.5 55.036C71.756 55.036 72.7742 56.0565 72.7742 57.3154Z" fill="#CECECE"/>
<path d="M86.4194 57.3154C86.4194 58.5743 85.4012 59.5948 84.1452 59.5948C82.8892 59.5948 81.871 58.5743 81.871 57.3154C81.871 56.0565 82.8892 55.036 84.1452 55.036C85.4012 55.036 86.4194 56.0565 86.4194 57.3154Z" fill="#CECECE"/>
<path d="M100.065 57.3154C100.065 58.5743 99.0463 59.5948 97.7903 59.5948C96.5343 59.5948 95.5161 58.5743 95.5161 57.3154C95.5161 56.0565 96.5343 55.036 97.7903 55.036C99.0463 55.036 100.065 56.0565 100.065 57.3154Z" fill="#CECECE"/>
<path d="M113.71 57.3154C113.71 58.5743 112.691 59.5948 111.435 59.5948C110.179 59.5948 109.161 58.5743 109.161 57.3154C109.161 56.0565 110.179 55.036 111.435 55.036C112.691 55.036 113.71 56.0565 113.71 57.3154Z" fill="#CECECE"/>
<path d="M127.355 57.3154C127.355 58.5743 126.337 59.5948 125.081 59.5948C123.825 59.5948 122.806 58.5743 122.806 57.3154C122.806 56.0565 123.825 55.036 125.081 55.036C126.337 55.036 127.355 56.0565 127.355 57.3154Z" fill="#CECECE"/>
<path d="M141 57.3154C141 58.5743 139.982 59.5948 138.726 59.5948C137.47 59.5948 136.452 58.5743 136.452 57.3154C136.452 56.0565 137.47 55.036 138.726 55.036C139.982 55.036 141 56.0565 141 57.3154Z" fill="#CECECE"/>
<path d="M4.54839 70.9918C4.54839 72.2507 3.5302 73.2713 2.27419 73.2713C1.01819 73.2713 0 72.2507 0 70.9918C0 69.733 1.01819 68.7124 2.27419 68.7124C3.5302 68.7124 4.54839 69.733 4.54839 70.9918Z" fill="#CECECE"/>
<path d="M18.1935 70.9918C18.1935 72.2507 17.1754 73.2713 15.9194 73.2713C14.6634 73.2713 13.6452 72.2507 13.6452 70.9918C13.6452 69.733 14.6634 68.7124 15.9194 68.7124C17.1754 68.7124 18.1935 69.733 18.1935 70.9918Z" fill="#CECECE"/>
<path d="M31.8387 70.9918C31.8387 72.2507 30.8205 73.2713 29.5645 73.2713C28.3085 73.2713 27.2903 72.2507 27.2903 70.9918C27.2903 69.733 28.3085 68.7124 29.5645 68.7124C30.8205 68.7124 31.8387 69.733 31.8387 70.9918Z" fill="#CECECE"/>
<path d="M45.4839 70.9918C45.4839 72.2507 44.4657 73.2713 43.2097 73.2713C41.9537 73.2713 40.9355 72.2507 40.9355 70.9918C40.9355 69.733 41.9537 68.7124 43.2097 68.7124C44.4657 68.7124 45.4839 69.733 45.4839 70.9918Z" fill="#CECECE"/>
<path d="M59.129 70.9918C59.129 72.2507 58.1108 73.2713 56.8548 73.2713C55.5988 73.2713 54.5806 72.2507 54.5806 70.9918C54.5806 69.733 55.5988 68.7124 56.8548 68.7124C58.1108 68.7124 59.129 69.733 59.129 70.9918Z" fill="#CECECE"/>
<path d="M72.7742 70.9918C72.7742 72.2507 71.756 73.2713 70.5 73.2713C69.244 73.2713 68.2258 72.2507 68.2258 70.9918C68.2258 69.733 69.244 68.7124 70.5 68.7124C71.756 68.7124 72.7742 69.733 72.7742 70.9918Z" fill="#CECECE"/>
<path d="M86.4194 70.9918C86.4194 72.2507 85.4012 73.2713 84.1452 73.2713C82.8892 73.2713 81.871 72.2507 81.871 70.9918C81.871 69.733 82.8892 68.7124 84.1452 68.7124C85.4012 68.7124 86.4194 69.733 86.4194 70.9918Z" fill="#CECECE"/>
<path d="M100.065 70.9918C100.065 72.2507 99.0463 73.2713 97.7903 73.2713C96.5343 73.2713 95.5161 72.2507 95.5161 70.9918C95.5161 69.733 96.5343 68.7124 97.7903 68.7124C99.0463 68.7124 100.065 69.733 100.065 70.9918Z" fill="#CECECE"/>
<path d="M113.71 70.9918C113.71 72.2507 112.691 73.2713 111.435 73.2713C110.179 73.2713 109.161 72.2507 109.161 70.9918C109.161 69.733 110.179 68.7124 111.435 68.7124C112.691 68.7124 113.71 69.733 113.71 70.9918Z" fill="#CECECE"/>
<path d="M127.355 70.9918C127.355 72.2507 126.337 73.2713 125.081 73.2713C123.825 73.2713 122.806 72.2507 122.806 70.9918C122.806 69.733 123.825 68.7124 125.081 68.7124C126.337 68.7124 127.355 69.733 127.355 70.9918Z" fill="#CECECE"/>
<path d="M141 70.9918C141 72.2507 139.982 73.2713 138.726 73.2713C137.47 73.2713 136.452 72.2507 136.452 70.9918C136.452 69.733 137.47 68.7124 138.726 68.7124C139.982 68.7124 141 69.733 141 70.9918Z" fill="#CECECE"/>
<path d="M4.54839 84.6683C4.54839 85.9272 3.5302 86.9477 2.27419 86.9477C1.01819 86.9477 0 85.9272 0 84.6683C0 83.4094 1.01819 82.3889 2.27419 82.3889C3.5302 82.3889 4.54839 83.4094 4.54839 84.6683Z" fill="#CECECE"/>
<path d="M18.1935 84.6683C18.1935 85.9272 17.1754 86.9477 15.9194 86.9477C14.6634 86.9477 13.6452 85.9272 13.6452 84.6683C13.6452 83.4094 14.6634 82.3889 15.9194 82.3889C17.1754 82.3889 18.1935 83.4094 18.1935 84.6683Z" fill="#CECECE"/>
<path d="M31.8387 84.6683C31.8387 85.9272 30.8205 86.9477 29.5645 86.9477C28.3085 86.9477 27.2903 85.9272 27.2903 84.6683C27.2903 83.4094 28.3085 82.3889 29.5645 82.3889C30.8205 82.3889 31.8387 83.4094 31.8387 84.6683Z" fill="#CECECE"/>
<path d="M45.4839 84.6683C45.4839 85.9272 44.4657 86.9477 43.2097 86.9477C41.9537 86.9477 40.9355 85.9272 40.9355 84.6683C40.9355 83.4094 41.9537 82.3889 43.2097 82.3889C44.4657 82.3889 45.4839 83.4094 45.4839 84.6683Z" fill="#CECECE"/>
<path d="M59.129 84.6683C59.129 85.9272 58.1108 86.9477 56.8548 86.9477C55.5988 86.9477 54.5806 85.9272 54.5806 84.6683C54.5806 83.4094 55.5988 82.3889 56.8548 82.3889C58.1108 82.3889 59.129 83.4094 59.129 84.6683Z" fill="#CECECE"/>
<path d="M72.7742 84.6683C72.7742 85.9272 71.756 86.9477 70.5 86.9477C69.244 86.9477 68.2258 85.9272 68.2258 84.6683C68.2258 83.4094 69.244 82.3889 70.5 82.3889C71.756 82.3889 72.7742 83.4094 72.7742 84.6683Z" fill="#CECECE"/>
<path d="M86.4194 84.6683C86.4194 85.9272 85.4012 86.9477 84.1452 86.9477C82.8892 86.9477 81.871 85.9272 81.871 84.6683C81.871 83.4094 82.8892 82.3889 84.1452 82.3889C85.4012 82.3889 86.4194 83.4094 86.4194 84.6683Z" fill="#CECECE"/>
<path d="M100.065 84.6683C100.065 85.9272 99.0463 86.9477 97.7903 86.9477C96.5343 86.9477 95.5161 85.9272 95.5161 84.6683C95.5161 83.4094 96.5343 82.3889 97.7903 82.3889C99.0463 82.3889 100.065 83.4094 100.065 84.6683Z" fill="#CECECE"/>
<path d="M113.71 84.6683C113.71 85.9272 112.691 86.9477 111.435 86.9477C110.179 86.9477 109.161 85.9272 109.161 84.6683C109.161 83.4094 110.179 82.3889 111.435 82.3889C112.691 82.3889 113.71 83.4094 113.71 84.6683Z" fill="#CECECE"/>
<path d="M127.355 84.6683C127.355 85.9272 126.337 86.9477 125.081 86.9477C123.825 86.9477 122.806 85.9272 122.806 84.6683C122.806 83.4094 123.825 82.3889 125.081 82.3889C126.337 82.3889 127.355 83.4094 127.355 84.6683Z" fill="#CECECE"/>
<path d="M141 84.6683C141 85.9272 139.982 86.9477 138.726 86.9477C137.47 86.9477 136.452 85.9272 136.452 84.6683C136.452 83.4094 137.47 82.3889 138.726 82.3889C139.982 82.3889 141 83.4094 141 84.6683Z" fill="#CECECE"/>
<path d="M4.54839 98.3448C4.54839 99.6037 3.5302 100.624 2.27419 100.624C1.01819 100.624 0 99.6037 0 98.3448C0 97.0859 1.01819 96.0654 2.27419 96.0654C3.5302 96.0654 4.54839 97.0859 4.54839 98.3448Z" fill="#CECECE"/>
<path d="M18.1935 98.3448C18.1935 99.6037 17.1754 100.624 15.9194 100.624C14.6634 100.624 13.6452 99.6037 13.6452 98.3448C13.6452 97.0859 14.6634 96.0654 15.9194 96.0654C17.1754 96.0654 18.1935 97.0859 18.1935 98.3448Z" fill="#CECECE"/>
<path d="M31.8387 98.3448C31.8387 99.6037 30.8205 100.624 29.5645 100.624C28.3085 100.624 27.2903 99.6037 27.2903 98.3448C27.2903 97.0859 28.3085 96.0654 29.5645 96.0654C30.8205 96.0654 31.8387 97.0859 31.8387 98.3448Z" fill="#CECECE"/>
<path d="M45.4839 98.3448C45.4839 99.6037 44.4657 100.624 43.2097 100.624C41.9537 100.624 40.9355 99.6037 40.9355 98.3448C40.9355 97.0859 41.9537 96.0654 43.2097 96.0654C44.4657 96.0654 45.4839 97.0859 45.4839 98.3448Z" fill="#CECECE"/>
<path d="M59.129 98.3448C59.129 99.6037 58.1108 100.624 56.8548 100.624C55.5988 100.624 54.5806 99.6037 54.5806 98.3448C54.5806 97.0859 55.5988 96.0654 56.8548 96.0654C58.1108 96.0654 59.129 97.0859 59.129 98.3448Z" fill="#CECECE"/>
<path d="M72.7742 98.3448C72.7742 99.6037 71.756 100.624 70.5 100.624C69.244 100.624 68.2258 99.6037 68.2258 98.3448C68.2258 97.0859 69.244 96.0654 70.5 96.0654C71.756 96.0654 72.7742 97.0859 72.7742 98.3448Z" fill="#CECECE"/>
<path d="M86.4194 98.3448C86.4194 99.6037 85.4012 100.624 84.1452 100.624C82.8892 100.624 81.871 99.6037 81.871 98.3448C81.871 97.0859 82.8892 96.0654 84.1452 96.0654C85.4012 96.0654 86.4194 97.0859 86.4194 98.3448Z" fill="#CECECE"/>
<path d="M100.065 98.3448C100.065 99.6037 99.0463 100.624 97.7903 100.624C96.5343 100.624 95.5161 99.6037 95.5161 98.3448C95.5161 97.0859 96.5343 96.0654 97.7903 96.0654C99.0463 96.0654 100.065 97.0859 100.065 98.3448Z" fill="#CECECE"/>
<path d="M113.71 98.3448C113.71 99.6037 112.691 100.624 111.435 100.624C110.179 100.624 109.161 99.6037 109.161 98.3448C109.161 97.0859 110.179 96.0654 111.435 96.0654C112.691 96.0654 113.71 97.0859 113.71 98.3448Z" fill="#CECECE"/>
<path d="M127.355 98.3448C127.355 99.6037 126.337 100.624 125.081 100.624C123.825 100.624 122.806 99.6037 122.806 98.3448C122.806 97.0859 123.825 96.0654 125.081 96.0654C126.337 96.0654 127.355 97.0859 127.355 98.3448Z" fill="#CECECE"/>
<path d="M141 98.3448C141 99.6037 139.982 100.624 138.726 100.624C137.47 100.624 136.452 99.6037 136.452 98.3448C136.452 97.0859 137.47 96.0654 138.726 96.0654C139.982 96.0654 141 97.0859 141 98.3448Z" fill="#CECECE"/>
<path d="M4.54839 112.021C4.54839 113.28 3.5302 114.301 2.27419 114.301C1.01819 114.301 0 113.28 0 112.021C0 110.762 1.01819 109.742 2.27419 109.742C3.5302 109.742 4.54839 110.762 4.54839 112.021Z" fill="#CECECE"/>
<path d="M18.1935 112.021C18.1935 113.28 17.1754 114.301 15.9194 114.301C14.6634 114.301 13.6452 113.28 13.6452 112.021C13.6452 110.762 14.6634 109.742 15.9194 109.742C17.1754 109.742 18.1935 110.762 18.1935 112.021Z" fill="#CECECE"/>
<path d="M31.8387 112.021C31.8387 113.28 30.8205 114.301 29.5645 114.301C28.3085 114.301 27.2903 113.28 27.2903 112.021C27.2903 110.762 28.3085 109.742 29.5645 109.742C30.8205 109.742 31.8387 110.762 31.8387 112.021Z" fill="#CECECE"/>
<path d="M45.4839 112.021C45.4839 113.28 44.4657 114.301 43.2097 114.301C41.9537 114.301 40.9355 113.28 40.9355 112.021C40.9355 110.762 41.9537 109.742 43.2097 109.742C44.4657 109.742 45.4839 110.762 45.4839 112.021Z" fill="#CECECE"/>
<path d="M59.129 112.021C59.129 113.28 58.1108 114.301 56.8548 114.301C55.5988 114.301 54.5806 113.28 54.5806 112.021C54.5806 110.762 55.5988 109.742 56.8548 109.742C58.1108 109.742 59.129 110.762 59.129 112.021Z" fill="#CECECE"/>
<path d="M72.7742 112.021C72.7742 113.28 71.756 114.301 70.5 114.301C69.244 114.301 68.2258 113.28 68.2258 112.021C68.2258 110.762 69.244 109.742 70.5 109.742C71.756 109.742 72.7742 110.762 72.7742 112.021Z" fill="#CECECE"/>
<path d="M86.4194 112.021C86.4194 113.28 85.4012 114.301 84.1452 114.301C82.8892 114.301 81.871 113.28 81.871 112.021C81.871 110.762 82.8892 109.742 84.1452 109.742C85.4012 109.742 86.4194 110.762 86.4194 112.021Z" fill="#CECECE"/>
<path d="M100.065 112.021C100.065 113.28 99.0463 114.301 97.7903 114.301C96.5343 114.301 95.5161 113.28 95.5161 112.021C95.5161 110.762 96.5343 109.742 97.7903 109.742C99.0463 109.742 100.065 110.762 100.065 112.021Z" fill="#CECECE"/>
<path d="M113.71 112.021C113.71 113.28 112.691 114.301 111.435 114.301C110.179 114.301 109.161 113.28 109.161 112.021C109.161 110.762 110.179 109.742 111.435 109.742C112.691 109.742 113.71 110.762 113.71 112.021Z" fill="#CECECE"/>
<path d="M127.355 112.021C127.355 113.28 126.337 114.301 125.081 114.301C123.825 114.301 122.806 113.28 122.806 112.021C122.806 110.762 123.825 109.742 125.081 109.742C126.337 109.742 127.355 110.762 127.355 112.021Z" fill="#CECECE"/>
<path d="M141 112.021C141 113.28 139.982 114.301 138.726 114.301C137.47 114.301 136.452 113.28 136.452 112.021C136.452 110.762 137.47 109.742 138.726 109.742C139.982 109.742 141 110.762 141 112.021Z" fill="#CECECE"/>
<path d="M4.54839 125.698C4.54839 126.957 3.5302 127.977 2.27419 127.977C1.01819 127.977 0 126.957 0 125.698C0 124.439 1.01819 123.418 2.27419 123.418C3.5302 123.418 4.54839 124.439 4.54839 125.698Z" fill="#CECECE"/>
<path d="M18.1935 125.698C18.1935 126.957 17.1754 127.977 15.9194 127.977C14.6634 127.977 13.6452 126.957 13.6452 125.698C13.6452 124.439 14.6634 123.418 15.9194 123.418C17.1754 123.418 18.1935 124.439 18.1935 125.698Z" fill="#CECECE"/>
<path d="M31.8387 125.698C31.8387 126.957 30.8205 127.977 29.5645 127.977C28.3085 127.977 27.2903 126.957 27.2903 125.698C27.2903 124.439 28.3085 123.418 29.5645 123.418C30.8205 123.418 31.8387 124.439 31.8387 125.698Z" fill="#CECECE"/>
<path d="M45.4839 125.698C45.4839 126.957 44.4657 127.977 43.2097 127.977C41.9537 127.977 40.9355 126.957 40.9355 125.698C40.9355 124.439 41.9537 123.418 43.2097 123.418C44.4657 123.418 45.4839 124.439 45.4839 125.698Z" fill="#CECECE"/>
<path d="M59.129 125.698C59.129 126.957 58.1108 127.977 56.8548 127.977C55.5988 127.977 54.5806 126.957 54.5806 125.698C54.5806 124.439 55.5988 123.418 56.8548 123.418C58.1108 123.418 59.129 124.439 59.129 125.698Z" fill="#CECECE"/>
<path d="M72.7742 125.698C72.7742 126.957 71.756 127.977 70.5 127.977C69.244 127.977 68.2258 126.957 68.2258 125.698C68.2258 124.439 69.244 123.418 70.5 123.418C71.756 123.418 72.7742 124.439 72.7742 125.698Z" fill="#CECECE"/>
<path d="M86.4194 125.698C86.4194 126.957 85.4012 127.977 84.1452 127.977C82.8892 127.977 81.871 126.957 81.871 125.698C81.871 124.439 82.8892 123.418 84.1452 123.418C85.4012 123.418 86.4194 124.439 86.4194 125.698Z" fill="#CECECE"/>
<path d="M100.065 125.698C100.065 126.957 99.0463 127.977 97.7903 127.977C96.5343 127.977 95.5161 126.957 95.5161 125.698C95.5161 124.439 96.5343 123.418 97.7903 123.418C99.0463 123.418 100.065 124.439 100.065 125.698Z" fill="#CECECE"/>
<path d="M113.71 125.698C113.71 126.957 112.691 127.977 111.435 127.977C110.179 127.977 109.161 126.957 109.161 125.698C109.161 124.439 110.179 123.418 111.435 123.418C112.691 123.418 113.71 124.439 113.71 125.698Z" fill="#CECECE"/>
<path d="M127.355 125.698C127.355 126.957 126.337 127.977 125.081 127.977C123.825 127.977 122.806 126.957 122.806 125.698C122.806 124.439 123.825 123.418 125.081 123.418C126.337 123.418 127.355 124.439 127.355 125.698Z" fill="#CECECE"/>
<path d="M141 125.698C141 126.957 139.982 127.977 138.726 127.977C137.47 127.977 136.452 126.957 136.452 125.698C136.452 124.439 137.47 123.418 138.726 123.418C139.982 123.418 141 124.439 141 125.698Z" fill="#CECECE"/>
<path d="M4.54839 139.374C4.54839 140.633 3.5302 141.654 2.27419 141.654C1.01819 141.654 0 140.633 0 139.374C0 138.115 1.01819 137.095 2.27419 137.095C3.5302 137.095 4.54839 138.115 4.54839 139.374Z" fill="#CECECE"/>
<path d="M18.1935 139.374C18.1935 140.633 17.1754 141.654 15.9194 141.654C14.6634 141.654 13.6452 140.633 13.6452 139.374C13.6452 138.115 14.6634 137.095 15.9194 137.095C17.1754 137.095 18.1935 138.115 18.1935 139.374Z" fill="#CECECE"/>
<path d="M31.8387 139.374C31.8387 140.633 30.8205 141.654 29.5645 141.654C28.3085 141.654 27.2903 140.633 27.2903 139.374C27.2903 138.115 28.3085 137.095 29.5645 137.095C30.8205 137.095 31.8387 138.115 31.8387 139.374Z" fill="#CECECE"/>
<path d="M45.4839 139.374C45.4839 140.633 44.4657 141.654 43.2097 141.654C41.9537 141.654 40.9355 140.633 40.9355 139.374C40.9355 138.115 41.9537 137.095 43.2097 137.095C44.4657 137.095 45.4839 138.115 45.4839 139.374Z" fill="#CECECE"/>
<path d="M59.129 139.374C59.129 140.633 58.1108 141.654 56.8548 141.654C55.5988 141.654 54.5806 140.633 54.5806 139.374C54.5806 138.115 55.5988 137.095 56.8548 137.095C58.1108 137.095 59.129 138.115 59.129 139.374Z" fill="#CECECE"/>
<path d="M72.7742 139.374C72.7742 140.633 71.756 141.654 70.5 141.654C69.244 141.654 68.2258 140.633 68.2258 139.374C68.2258 138.115 69.244 137.095 70.5 137.095C71.756 137.095 72.7742 138.115 72.7742 139.374Z" fill="#CECECE"/>
<path d="M86.4194 139.374C86.4194 140.633 85.4012 141.654 84.1452 141.654C82.8892 141.654 81.871 140.633 81.871 139.374C81.871 138.115 82.8892 137.095 84.1452 137.095C85.4012 137.095 86.4194 138.115 86.4194 139.374Z" fill="#CECECE"/>
<path d="M100.065 139.374C100.065 140.633 99.0463 141.654 97.7903 141.654C96.5343 141.654 95.5161 140.633 95.5161 139.374C95.5161 138.115 96.5343 137.095 97.7903 137.095C99.0463 137.095 100.065 138.115 100.065 139.374Z" fill="#CECECE"/>
<path d="M113.71 139.374C113.71 140.633 112.691 141.654 111.435 141.654C110.179 141.654 109.161 140.633 109.161 139.374C109.161 138.115 110.179 137.095 111.435 137.095C112.691 137.095 113.71 138.115 113.71 139.374Z" fill="#CECECE"/>
<path d="M127.355 139.374C127.355 140.633 126.337 141.654 125.081 141.654C123.825 141.654 122.806 140.633 122.806 139.374C122.806 138.115 123.825 137.095 125.081 137.095C126.337 137.095 127.355 138.115 127.355 139.374Z" fill="#CECECE"/>
<path d="M141 139.374C141 140.633 139.982 141.654 138.726 141.654C137.47 141.654 136.452 140.633 136.452 139.374C136.452 138.115 137.47 137.095 138.726 137.095C139.982 137.095 141 138.115 141 139.374Z" fill="#CECECE"/>
<path d="M4.54839 153.051C4.54839 154.31 3.5302 155.33 2.27419 155.33C1.01819 155.33 0 154.31 0 153.051C0 151.792 1.01819 150.771 2.27419 150.771C3.5302 150.771 4.54839 151.792 4.54839 153.051Z" fill="#CECECE"/>
<path d="M18.1935 153.051C18.1935 154.31 17.1754 155.33 15.9194 155.33C14.6634 155.33 13.6452 154.31 13.6452 153.051C13.6452 151.792 14.6634 150.771 15.9194 150.771C17.1754 150.771 18.1935 151.792 18.1935 153.051Z" fill="#CECECE"/>
<path d="M31.8387 153.051C31.8387 154.31 30.8205 155.33 29.5645 155.33C28.3085 155.33 27.2903 154.31 27.2903 153.051C27.2903 151.792 28.3085 150.771 29.5645 150.771C30.8205 150.771 31.8387 151.792 31.8387 153.051Z" fill="#CECECE"/>
<path d="M45.4839 153.051C45.4839 154.31 44.4657 155.33 43.2097 155.33C41.9537 155.33 40.9355 154.31 40.9355 153.051C40.9355 151.792 41.9537 150.771 43.2097 150.771C44.4657 150.771 45.4839 151.792 45.4839 153.051Z" fill="#CECECE"/>
<path d="M59.129 153.051C59.129 154.31 58.1108 155.33 56.8548 155.33C55.5988 155.33 54.5806 154.31 54.5806 153.051C54.5806 151.792 55.5988 150.771 56.8548 150.771C58.1108 150.771 59.129 151.792 59.129 153.051Z" fill="#CECECE"/>
<path d="M72.7742 153.051C72.7742 154.31 71.756 155.33 70.5 155.33C69.244 155.33 68.2258 154.31 68.2258 153.051C68.2258 151.792 69.244 150.771 70.5 150.771C71.756 150.771 72.7742 151.792 72.7742 153.051Z" fill="#CECECE"/>
<path d="M86.4194 153.051C86.4194 154.31 85.4012 155.33 84.1452 155.33C82.8892 155.33 81.871 154.31 81.871 153.051C81.871 151.792 82.8892 150.771 84.1452 150.771C85.4012 150.771 86.4194 151.792 86.4194 153.051Z" fill="#CECECE"/>
<path d="M100.065 153.051C100.065 154.31 99.0463 155.33 97.7903 155.33C96.5343 155.33 95.5161 154.31 95.5161 153.051C95.5161 151.792 96.5343 150.771 97.7903 150.771C99.0463 150.771 100.065 151.792 100.065 153.051Z" fill="#CECECE"/>
<path d="M113.71 153.051C113.71 154.31 112.691 155.33 111.435 155.33C110.179 155.33 109.161 154.31 109.161 153.051C109.161 151.792 110.179 150.771 111.435 150.771C112.691 150.771 113.71 151.792 113.71 153.051Z" fill="#CECECE"/>
<path d="M127.355 153.051C127.355 154.31 126.337 155.33 125.081 155.33C123.825 155.33 122.806 154.31 122.806 153.051C122.806 151.792 123.825 150.771 125.081 150.771C126.337 150.771 127.355 151.792 127.355 153.051Z" fill="#CECECE"/>
<path d="M141 153.051C141 154.31 139.982 155.33 138.726 155.33C137.47 155.33 136.452 154.31 136.452 153.051C136.452 151.792 137.47 150.771 138.726 150.771C139.982 150.771 141 151.792 141 153.051Z" fill="#CECECE"/>
</svg>
