<svg width="24" height="25" viewBox="0 0 24 25" fill="none" xmlns="http://www.w3.org/2000/svg">
<path d="M20.668 4.01367H3.33202C1.49189 4.01367 0 5.50556 0 7.34569V18.3137C0 20.1538 1.49189 21.6457 3.33202 21.6457H20.668C22.5081 21.6457 24 20.1538 24 18.3137V7.34569C24 5.50556 22.5081 4.01367 20.668 4.01367ZM8.35153 15.9103L3.68559 19.8909C3.35648 20.1718 2.86172 20.1328 2.58089 19.8033C2.30002 19.4742 2.33906 18.9795 2.66855 18.6986L7.33448 14.718C7.66355 14.4371 8.15827 14.4762 8.43914 14.8057C8.72002 15.1347 8.68097 15.6295 8.35153 15.9103ZM12 14.397C11.3759 14.3955 10.7709 14.1881 10.298 13.779L10.2983 13.7794L10.2968 13.7783C10.2972 13.7787 10.2976 13.7787 10.298 13.779L3.13884 7.56534C2.81166 7.28137 2.77683 6.78666 3.06038 6.45989C3.3443 6.1327 3.83906 6.09787 4.16578 6.38142L11.3269 12.5967C11.48 12.7329 11.7322 12.8312 12 12.8297C12.2675 12.8305 12.5154 12.7348 12.6769 12.594L12.6803 12.591L19.8342 6.38147C20.1609 6.09792 20.6557 6.13275 20.9396 6.45994C21.2231 6.78666 21.1883 7.28142 20.8612 7.56539L13.7001 13.781C13.2286 14.1857 12.6245 14.3962 12 14.397ZM21.4194 19.8033C21.1386 20.1328 20.6438 20.1718 20.3148 19.8909L15.6488 15.9103C15.3194 15.6294 15.2804 15.1347 15.5612 14.8057C15.8421 14.4762 16.3368 14.4372 16.6659 14.718L21.3318 18.6986C21.6613 18.9795 21.7003 19.4742 21.4194 19.8033Z" fill="#EFEFEF"/>
</svg>
