<svg width="14" height="14" viewBox="0 0 14 14" fill="none" xmlns="http://www.w3.org/2000/svg">
<path d="M6.9999 1.90039C8.6499 1.90039 8.8749 1.90039 9.5499 1.90039C10.1499 1.90039 10.4499 2.05039 10.6749 2.12539C10.9749 2.27539 11.1999 2.35039 11.4249 2.57539C11.6499 2.80039 11.7999 3.02539 11.8749 3.32539C11.9499 3.55039 12.0249 3.85039 12.0999 4.45039C12.0999 5.12539 12.0999 5.27539 12.0999 7.00039C12.0999 8.72539 12.0999 8.87539 12.0999 9.55039C12.0999 10.1504 11.9499 10.4504 11.8749 10.6754C11.7249 10.9754 11.6499 11.2004 11.4249 11.4254C11.1999 11.6504 10.9749 11.8004 10.6749 11.8754C10.4499 11.9504 10.1499 12.0254 9.5499 12.1004C8.8749 12.1004 8.7249 12.1004 6.9999 12.1004C5.2749 12.1004 5.1249 12.1004 4.4499 12.1004C3.8499 12.1004 3.5499 11.9504 3.3249 11.8754C3.0249 11.7254 2.7999 11.6504 2.5749 11.4254C2.3499 11.2004 2.1999 10.9754 2.1249 10.6754C2.0499 10.4504 1.9749 10.1504 1.8999 9.55039C1.8999 8.87539 1.8999 8.72539 1.8999 7.00039C1.8999 5.27539 1.8999 5.12539 1.8999 4.45039C1.8999 3.85039 2.0499 3.55039 2.1249 3.32539C2.2749 3.02539 2.3499 2.80039 2.5749 2.57539C2.7999 2.35039 3.0249 2.20039 3.3249 2.12539C3.5499 2.05039 3.8499 1.97539 4.4499 1.90039C5.1249 1.90039 5.3499 1.90039 6.9999 1.90039ZM6.9999 0.775391C5.2749 0.775391 5.1249 0.775391 4.4499 0.775391C3.7749 0.775391 3.3249 0.925391 2.9499 1.07539C2.5749 1.22539 2.1999 1.45039 1.8249 1.82539C1.4499 2.20039 1.2999 2.50039 1.0749 2.95039C0.924903 3.32539 0.849902 3.77539 0.774902 4.45039C0.774902 5.12539 0.774902 5.35039 0.774902 7.00039C0.774902 8.72539 0.774902 8.87539 0.774902 9.55039C0.774902 10.2254 0.924903 10.6754 1.0749 11.0504C1.2249 11.4254 1.4499 11.8004 1.8249 12.1754C2.1999 12.5504 2.4999 12.7004 2.9499 12.9254C3.3249 13.0754 3.7749 13.1504 4.4499 13.2254C5.1249 13.2254 5.3499 13.2254 6.9999 13.2254C8.6499 13.2254 8.8749 13.2254 9.5499 13.2254C10.2249 13.2254 10.6749 13.0754 11.0499 12.9254C11.4249 12.7754 11.7999 12.5504 12.1749 12.1754C12.5499 11.8004 12.6999 11.5004 12.9249 11.0504C13.0749 10.6754 13.1499 10.2254 13.2249 9.55039C13.2249 8.87539 13.2249 8.65039 13.2249 7.00039C13.2249 5.35039 13.2249 5.12539 13.2249 4.45039C13.2249 3.77539 13.0749 3.32539 12.9249 2.95039C12.7749 2.57539 12.5499 2.20039 12.1749 1.82539C11.7999 1.45039 11.4999 1.30039 11.0499 1.07539C10.6749 0.925391 10.2249 0.850391 9.5499 0.775391C8.8749 0.775391 8.7249 0.775391 6.9999 0.775391Z" fill="#05274C"/>
<path d="M6.9999 3.77539C5.1999 3.77539 3.7749 5.20039 3.7749 7.00039C3.7749 8.80039 5.1999 10.2254 6.9999 10.2254C8.7999 10.2254 10.2249 8.80039 10.2249 7.00039C10.2249 5.20039 8.7999 3.77539 6.9999 3.77539ZM6.9999 9.10039C5.8749 9.10039 4.8999 8.20039 4.8999 7.00039C4.8999 5.87539 5.7999 4.90039 6.9999 4.90039C8.1249 4.90039 9.0999 5.80039 9.0999 7.00039C9.0999 8.12539 8.1249 9.10039 6.9999 9.10039Z" fill="#05274C"/>
<path d="M10.2999 4.45039C10.7141 4.45039 11.0499 4.1146 11.0499 3.70039C11.0499 3.28618 10.7141 2.95039 10.2999 2.95039C9.88569 2.95039 9.5499 3.28618 9.5499 3.70039C9.5499 4.1146 9.88569 4.45039 10.2999 4.45039Z" fill="#05274C"/>
</svg>
