<svg width="24" height="25" viewBox="0 0 24 25" fill="none" xmlns="http://www.w3.org/2000/svg">
<path fill-rule="evenodd" clip-rule="evenodd" d="M12 9.33008C11.1715 9.33008 10.5 10.0016 10.5 10.8301C10.5 11.6586 11.1715 12.3301 12 12.3301C12.8285 12.3301 13.5 11.6586 13.5 10.8301C13.5 10.0016 12.8285 9.33008 12 9.33008ZM12 13.3301C10.6195 13.3301 9.5 12.2111 9.5 10.8301C9.5 9.44908 10.6195 8.33008 12 8.33008C13.3805 8.33008 14.5 9.44908 14.5 10.8301C14.5 12.2111 13.3805 13.3301 12 13.3301ZM12 4.83008C8.6865 4.83008 6 7.51658 6 10.8301C6 13.3391 11.0025 20.8356 12 20.8301C12.982 20.8356 18 13.3051 18 10.8301C18 7.51658 15.3135 4.83008 12 4.83008Z" fill="#EFEFEF"/>
</svg>
