<svg width="33" height="32" viewBox="0 0 33 32" fill="none" xmlns="http://www.w3.org/2000/svg">
<g clip-path="url(#clip0_642_2236)">
<path d="M16.5 19.9998C18.7092 19.9998 20.5 18.209 20.5 15.9998C20.5 13.7906 18.7092 11.9998 16.5 11.9998C14.2909 11.9998 12.5 13.7906 12.5 15.9998C12.5 18.209 14.2909 19.9998 16.5 19.9998Z" fill="#2762BF"/>
<path d="M17.8332 5.42517V2.6665H15.1665V5.42517C12.8201 5.7243 10.6394 6.79416 8.96677 8.46677C7.29416 10.1394 6.2243 12.3201 5.92517 14.6665H3.1665V17.3332H5.92517C6.22409 19.6797 7.29386 21.8605 8.96652 23.5332C10.6392 25.2058 12.82 26.2756 15.1665 26.5745V29.3332H17.8332V26.5745C20.1797 26.2756 22.3605 25.2058 24.0332 23.5332C25.7058 21.8605 26.7756 19.6797 27.0745 17.3332H29.8332V14.6665H27.0745C26.7753 12.3201 25.7056 10.1394 24.0329 8.46677C22.3602 6.79416 20.1796 5.7243 17.8332 5.42517ZM16.4998 23.9998C12.0878 23.9998 8.49984 20.4118 8.49984 15.9998C8.49984 11.5878 12.0878 7.99984 16.4998 7.99984C20.9118 7.99984 24.4998 11.5878 24.4998 15.9998C24.4998 20.4118 20.9118 23.9998 16.4998 23.9998Z" fill="#2762BF"/>
</g>
<defs>
<clipPath id="clip0_642_2236">
<rect width="26.6667" height="26.6667" fill="white" transform="translate(3.1665 2.6665)"/>
</clipPath>
</defs>
</svg>
