<svg width="141" height="155" viewBox="0 0 141 155" fill="none" xmlns="http://www.w3.org/2000/svg">
<path d="M4.54839 2.59478C4.54839 3.84555 3.5302 4.85949 2.27419 4.85949C1.01819 4.85949 0 3.84555 0 2.59478C0 1.34402 1.01819 0.330078 2.27419 0.330078C3.5302 0.330078 4.54839 1.34402 4.54839 2.59478Z" fill="#CECECE"/>
<path d="M18.1935 2.59478C18.1935 3.84555 17.1754 4.85949 15.9194 4.85949C14.6634 4.85949 13.6452 3.84555 13.6452 2.59478C13.6452 1.34402 14.6634 0.330078 15.9194 0.330078C17.1754 0.330078 18.1935 1.34402 18.1935 2.59478Z" fill="#CECECE"/>
<path d="M31.8387 2.59478C31.8387 3.84555 30.8205 4.85949 29.5645 4.85949C28.3085 4.85949 27.2903 3.84555 27.2903 2.59478C27.2903 1.34402 28.3085 0.330078 29.5645 0.330078C30.8205 0.330078 31.8387 1.34402 31.8387 2.59478Z" fill="#CECECE"/>
<path d="M45.4839 2.59478C45.4839 3.84555 44.4657 4.85949 43.2097 4.85949C41.9537 4.85949 40.9355 3.84555 40.9355 2.59478C40.9355 1.34402 41.9537 0.330078 43.2097 0.330078C44.4657 0.330078 45.4839 1.34402 45.4839 2.59478Z" fill="#CECECE"/>
<path d="M59.129 2.59478C59.129 3.84555 58.1108 4.85949 56.8548 4.85949C55.5988 4.85949 54.5806 3.84555 54.5806 2.59478C54.5806 1.34402 55.5988 0.330078 56.8548 0.330078C58.1108 0.330078 59.129 1.34402 59.129 2.59478Z" fill="#CECECE"/>
<path d="M72.7742 2.59478C72.7742 3.84555 71.756 4.85949 70.5 4.85949C69.244 4.85949 68.2258 3.84555 68.2258 2.59478C68.2258 1.34402 69.244 0.330078 70.5 0.330078C71.756 0.330078 72.7742 1.34402 72.7742 2.59478Z" fill="#CECECE"/>
<path d="M86.4194 2.59478C86.4194 3.84555 85.4012 4.85949 84.1452 4.85949C82.8892 4.85949 81.871 3.84555 81.871 2.59478C81.871 1.34402 82.8892 0.330078 84.1452 0.330078C85.4012 0.330078 86.4194 1.34402 86.4194 2.59478Z" fill="#CECECE"/>
<path d="M100.065 2.59478C100.065 3.84555 99.0463 4.85949 97.7903 4.85949C96.5343 4.85949 95.5161 3.84555 95.5161 2.59478C95.5161 1.34402 96.5343 0.330078 97.7903 0.330078C99.0463 0.330078 100.065 1.34402 100.065 2.59478Z" fill="#CECECE"/>
<path d="M113.71 2.59478C113.71 3.84555 112.691 4.85949 111.435 4.85949C110.179 4.85949 109.161 3.84555 109.161 2.59478C109.161 1.34402 110.179 0.330078 111.435 0.330078C112.691 0.330078 113.71 1.34402 113.71 2.59478Z" fill="#CECECE"/>
<path d="M127.355 2.59478C127.355 3.84555 126.337 4.85949 125.081 4.85949C123.825 4.85949 122.806 3.84555 122.806 2.59478C122.806 1.34402 123.825 0.330078 125.081 0.330078C126.337 0.330078 127.355 1.34402 127.355 2.59478Z" fill="#CECECE"/>
<path d="M141 2.59478C141 3.84555 139.982 4.85949 138.726 4.85949C137.47 4.85949 136.452 3.84555 136.452 2.59478C136.452 1.34402 137.47 0.330078 138.726 0.330078C139.982 0.330078 141 1.34402 141 2.59478Z" fill="#CECECE"/>
<path d="M4.54839 16.183C4.54839 17.4338 3.5302 18.4477 2.27419 18.4477C1.01819 18.4477 0 17.4338 0 16.183C0 14.9323 1.01819 13.9183 2.27419 13.9183C3.5302 13.9183 4.54839 14.9323 4.54839 16.183Z" fill="#CECECE"/>
<path d="M18.1935 16.183C18.1935 17.4338 17.1754 18.4477 15.9194 18.4477C14.6634 18.4477 13.6452 17.4338 13.6452 16.183C13.6452 14.9323 14.6634 13.9183 15.9194 13.9183C17.1754 13.9183 18.1935 14.9323 18.1935 16.183Z" fill="#CECECE"/>
<path d="M31.8387 16.183C31.8387 17.4338 30.8205 18.4477 29.5645 18.4477C28.3085 18.4477 27.2903 17.4338 27.2903 16.183C27.2903 14.9323 28.3085 13.9183 29.5645 13.9183C30.8205 13.9183 31.8387 14.9323 31.8387 16.183Z" fill="#CECECE"/>
<path d="M45.4839 16.183C45.4839 17.4338 44.4657 18.4477 43.2097 18.4477C41.9537 18.4477 40.9355 17.4338 40.9355 16.183C40.9355 14.9323 41.9537 13.9183 43.2097 13.9183C44.4657 13.9183 45.4839 14.9323 45.4839 16.183Z" fill="#CECECE"/>
<path d="M59.129 16.183C59.129 17.4338 58.1108 18.4477 56.8548 18.4477C55.5988 18.4477 54.5806 17.4338 54.5806 16.183C54.5806 14.9323 55.5988 13.9183 56.8548 13.9183C58.1108 13.9183 59.129 14.9323 59.129 16.183Z" fill="#CECECE"/>
<path d="M72.7742 16.183C72.7742 17.4338 71.756 18.4477 70.5 18.4477C69.244 18.4477 68.2258 17.4338 68.2258 16.183C68.2258 14.9323 69.244 13.9183 70.5 13.9183C71.756 13.9183 72.7742 14.9323 72.7742 16.183Z" fill="#CECECE"/>
<path d="M86.4194 16.183C86.4194 17.4338 85.4012 18.4477 84.1452 18.4477C82.8892 18.4477 81.871 17.4338 81.871 16.183C81.871 14.9323 82.8892 13.9183 84.1452 13.9183C85.4012 13.9183 86.4194 14.9323 86.4194 16.183Z" fill="#CECECE"/>
<path d="M100.065 16.183C100.065 17.4338 99.0463 18.4477 97.7903 18.4477C96.5343 18.4477 95.5161 17.4338 95.5161 16.183C95.5161 14.9323 96.5343 13.9183 97.7903 13.9183C99.0463 13.9183 100.065 14.9323 100.065 16.183Z" fill="#CECECE"/>
<path d="M113.71 16.183C113.71 17.4338 112.691 18.4477 111.435 18.4477C110.179 18.4477 109.161 17.4338 109.161 16.183C109.161 14.9323 110.179 13.9183 111.435 13.9183C112.691 13.9183 113.71 14.9323 113.71 16.183Z" fill="#CECECE"/>
<path d="M127.355 16.183C127.355 17.4338 126.337 18.4477 125.081 18.4477C123.825 18.4477 122.806 17.4338 122.806 16.183C122.806 14.9323 123.825 13.9183 125.081 13.9183C126.337 13.9183 127.355 14.9323 127.355 16.183Z" fill="#CECECE"/>
<path d="M141 16.183C141 17.4338 139.982 18.4477 138.726 18.4477C137.47 18.4477 136.452 17.4338 136.452 16.183C136.452 14.9323 137.47 13.9183 138.726 13.9183C139.982 13.9183 141 14.9323 141 16.183Z" fill="#CECECE"/>
<path d="M4.54839 29.7713C4.54839 31.022 3.5302 32.036 2.27419 32.036C1.01819 32.036 0 31.022 0 29.7713C0 28.5205 1.01819 27.5065 2.27419 27.5065C3.5302 27.5065 4.54839 28.5205 4.54839 29.7713Z" fill="#CECECE"/>
<path d="M18.1935 29.7713C18.1935 31.022 17.1754 32.036 15.9194 32.036C14.6634 32.036 13.6452 31.022 13.6452 29.7713C13.6452 28.5205 14.6634 27.5065 15.9194 27.5065C17.1754 27.5065 18.1935 28.5205 18.1935 29.7713Z" fill="#CECECE"/>
<path d="M31.8387 29.7713C31.8387 31.022 30.8205 32.036 29.5645 32.036C28.3085 32.036 27.2903 31.022 27.2903 29.7713C27.2903 28.5205 28.3085 27.5065 29.5645 27.5065C30.8205 27.5065 31.8387 28.5205 31.8387 29.7713Z" fill="#CECECE"/>
<path d="M45.4839 29.7713C45.4839 31.022 44.4657 32.036 43.2097 32.036C41.9537 32.036 40.9355 31.022 40.9355 29.7713C40.9355 28.5205 41.9537 27.5065 43.2097 27.5065C44.4657 27.5065 45.4839 28.5205 45.4839 29.7713Z" fill="#CECECE"/>
<path d="M59.129 29.7713C59.129 31.022 58.1108 32.036 56.8548 32.036C55.5988 32.036 54.5806 31.022 54.5806 29.7713C54.5806 28.5205 55.5988 27.5065 56.8548 27.5065C58.1108 27.5065 59.129 28.5205 59.129 29.7713Z" fill="#CECECE"/>
<path d="M72.7742 29.7713C72.7742 31.022 71.756 32.036 70.5 32.036C69.244 32.036 68.2258 31.022 68.2258 29.7713C68.2258 28.5205 69.244 27.5065 70.5 27.5065C71.756 27.5065 72.7742 28.5205 72.7742 29.7713Z" fill="#CECECE"/>
<path d="M86.4194 29.7713C86.4194 31.022 85.4012 32.036 84.1452 32.036C82.8892 32.036 81.871 31.022 81.871 29.7713C81.871 28.5205 82.8892 27.5065 84.1452 27.5065C85.4012 27.5065 86.4194 28.5205 86.4194 29.7713Z" fill="#CECECE"/>
<path d="M100.065 29.7713C100.065 31.022 99.0463 32.036 97.7903 32.036C96.5343 32.036 95.5161 31.022 95.5161 29.7713C95.5161 28.5205 96.5343 27.5065 97.7903 27.5065C99.0463 27.5065 100.065 28.5205 100.065 29.7713Z" fill="#CECECE"/>
<path d="M113.71 29.7713C113.71 31.022 112.691 32.036 111.435 32.036C110.179 32.036 109.161 31.022 109.161 29.7713C109.161 28.5205 110.179 27.5065 111.435 27.5065C112.691 27.5065 113.71 28.5205 113.71 29.7713Z" fill="#CECECE"/>
<path d="M127.355 29.7713C127.355 31.022 126.337 32.036 125.081 32.036C123.825 32.036 122.806 31.022 122.806 29.7713C122.806 28.5205 123.825 27.5065 125.081 27.5065C126.337 27.5065 127.355 28.5205 127.355 29.7713Z" fill="#CECECE"/>
<path d="M141 29.7713C141 31.022 139.982 32.036 138.726 32.036C137.47 32.036 136.452 31.022 136.452 29.7713C136.452 28.5205 137.47 27.5065 138.726 27.5065C139.982 27.5065 141 28.5205 141 29.7713Z" fill="#CECECE"/>
<path d="M4.54839 43.3595C4.54839 44.6103 3.5302 45.6242 2.27419 45.6242C1.01819 45.6242 0 44.6103 0 43.3595C0 42.1087 1.01819 41.0948 2.27419 41.0948C3.5302 41.0948 4.54839 42.1087 4.54839 43.3595Z" fill="#CECECE"/>
<path d="M18.1935 43.3595C18.1935 44.6103 17.1754 45.6242 15.9194 45.6242C14.6634 45.6242 13.6452 44.6103 13.6452 43.3595C13.6452 42.1087 14.6634 41.0948 15.9194 41.0948C17.1754 41.0948 18.1935 42.1087 18.1935 43.3595Z" fill="#CECECE"/>
<path d="M31.8387 43.3595C31.8387 44.6103 30.8205 45.6242 29.5645 45.6242C28.3085 45.6242 27.2903 44.6103 27.2903 43.3595C27.2903 42.1087 28.3085 41.0948 29.5645 41.0948C30.8205 41.0948 31.8387 42.1087 31.8387 43.3595Z" fill="#CECECE"/>
<path d="M45.4839 43.3595C45.4839 44.6103 44.4657 45.6242 43.2097 45.6242C41.9537 45.6242 40.9355 44.6103 40.9355 43.3595C40.9355 42.1087 41.9537 41.0948 43.2097 41.0948C44.4657 41.0948 45.4839 42.1087 45.4839 43.3595Z" fill="#CECECE"/>
<path d="M59.129 43.3595C59.129 44.6103 58.1108 45.6242 56.8548 45.6242C55.5988 45.6242 54.5806 44.6103 54.5806 43.3595C54.5806 42.1087 55.5988 41.0948 56.8548 41.0948C58.1108 41.0948 59.129 42.1087 59.129 43.3595Z" fill="#CECECE"/>
<path d="M72.7742 43.3595C72.7742 44.6103 71.756 45.6242 70.5 45.6242C69.244 45.6242 68.2258 44.6103 68.2258 43.3595C68.2258 42.1087 69.244 41.0948 70.5 41.0948C71.756 41.0948 72.7742 42.1087 72.7742 43.3595Z" fill="#CECECE"/>
<path d="M86.4194 43.3595C86.4194 44.6103 85.4012 45.6242 84.1452 45.6242C82.8892 45.6242 81.871 44.6103 81.871 43.3595C81.871 42.1087 82.8892 41.0948 84.1452 41.0948C85.4012 41.0948 86.4194 42.1087 86.4194 43.3595Z" fill="#CECECE"/>
<path d="M100.065 43.3595C100.065 44.6103 99.0463 45.6242 97.7903 45.6242C96.5343 45.6242 95.5161 44.6103 95.5161 43.3595C95.5161 42.1087 96.5343 41.0948 97.7903 41.0948C99.0463 41.0948 100.065 42.1087 100.065 43.3595Z" fill="#CECECE"/>
<path d="M113.71 43.3595C113.71 44.6103 112.691 45.6242 111.435 45.6242C110.179 45.6242 109.161 44.6103 109.161 43.3595C109.161 42.1087 110.179 41.0948 111.435 41.0948C112.691 41.0948 113.71 42.1087 113.71 43.3595Z" fill="#CECECE"/>
<path d="M127.355 43.3595C127.355 44.6103 126.337 45.6242 125.081 45.6242C123.825 45.6242 122.806 44.6103 122.806 43.3595C122.806 42.1087 123.825 41.0948 125.081 41.0948C126.337 41.0948 127.355 42.1087 127.355 43.3595Z" fill="#CECECE"/>
<path d="M141 43.3595C141 44.6103 139.982 45.6242 138.726 45.6242C137.47 45.6242 136.452 44.6103 136.452 43.3595C136.452 42.1087 137.47 41.0948 138.726 41.0948C139.982 41.0948 141 42.1087 141 43.3595Z" fill="#CECECE"/>
<path d="M4.54839 56.9477C4.54839 58.1985 3.5302 59.2124 2.27419 59.2124C1.01819 59.2124 0 58.1985 0 56.9477C0 55.697 1.01819 54.683 2.27419 54.683C3.5302 54.683 4.54839 55.697 4.54839 56.9477Z" fill="#CECECE"/>
<path d="M18.1935 56.9477C18.1935 58.1985 17.1754 59.2124 15.9194 59.2124C14.6634 59.2124 13.6452 58.1985 13.6452 56.9477C13.6452 55.697 14.6634 54.683 15.9194 54.683C17.1754 54.683 18.1935 55.697 18.1935 56.9477Z" fill="#CECECE"/>
<path d="M31.8387 56.9477C31.8387 58.1985 30.8205 59.2124 29.5645 59.2124C28.3085 59.2124 27.2903 58.1985 27.2903 56.9477C27.2903 55.697 28.3085 54.683 29.5645 54.683C30.8205 54.683 31.8387 55.697 31.8387 56.9477Z" fill="#CECECE"/>
<path d="M45.4839 56.9477C45.4839 58.1985 44.4657 59.2124 43.2097 59.2124C41.9537 59.2124 40.9355 58.1985 40.9355 56.9477C40.9355 55.697 41.9537 54.683 43.2097 54.683C44.4657 54.683 45.4839 55.697 45.4839 56.9477Z" fill="#CECECE"/>
<path d="M59.129 56.9477C59.129 58.1985 58.1108 59.2124 56.8548 59.2124C55.5988 59.2124 54.5806 58.1985 54.5806 56.9477C54.5806 55.697 55.5988 54.683 56.8548 54.683C58.1108 54.683 59.129 55.697 59.129 56.9477Z" fill="#CECECE"/>
<path d="M72.7742 56.9477C72.7742 58.1985 71.756 59.2124 70.5 59.2124C69.244 59.2124 68.2258 58.1985 68.2258 56.9477C68.2258 55.697 69.244 54.683 70.5 54.683C71.756 54.683 72.7742 55.697 72.7742 56.9477Z" fill="#CECECE"/>
<path d="M86.4194 56.9477C86.4194 58.1985 85.4012 59.2124 84.1452 59.2124C82.8892 59.2124 81.871 58.1985 81.871 56.9477C81.871 55.697 82.8892 54.683 84.1452 54.683C85.4012 54.683 86.4194 55.697 86.4194 56.9477Z" fill="#CECECE"/>
<path d="M100.065 56.9477C100.065 58.1985 99.0463 59.2124 97.7903 59.2124C96.5343 59.2124 95.5161 58.1985 95.5161 56.9477C95.5161 55.697 96.5343 54.683 97.7903 54.683C99.0463 54.683 100.065 55.697 100.065 56.9477Z" fill="#CECECE"/>
<path d="M113.71 56.9477C113.71 58.1985 112.691 59.2124 111.435 59.2124C110.179 59.2124 109.161 58.1985 109.161 56.9477C109.161 55.697 110.179 54.683 111.435 54.683C112.691 54.683 113.71 55.697 113.71 56.9477Z" fill="#CECECE"/>
<path d="M127.355 56.9477C127.355 58.1985 126.337 59.2124 125.081 59.2124C123.825 59.2124 122.806 58.1985 122.806 56.9477C122.806 55.697 123.825 54.683 125.081 54.683C126.337 54.683 127.355 55.697 127.355 56.9477Z" fill="#CECECE"/>
<path d="M141 56.9477C141 58.1985 139.982 59.2124 138.726 59.2124C137.47 59.2124 136.452 58.1985 136.452 56.9477C136.452 55.697 137.47 54.683 138.726 54.683C139.982 54.683 141 55.697 141 56.9477Z" fill="#CECECE"/>
<path d="M4.54839 70.536C4.54839 71.7867 3.5302 72.8007 2.27419 72.8007C1.01819 72.8007 0 71.7867 0 70.536C0 69.2852 1.01819 68.2713 2.27419 68.2713C3.5302 68.2713 4.54839 69.2852 4.54839 70.536Z" fill="#CECECE"/>
<path d="M18.1935 70.536C18.1935 71.7867 17.1754 72.8007 15.9194 72.8007C14.6634 72.8007 13.6452 71.7867 13.6452 70.536C13.6452 69.2852 14.6634 68.2713 15.9194 68.2713C17.1754 68.2713 18.1935 69.2852 18.1935 70.536Z" fill="#CECECE"/>
<path d="M31.8387 70.536C31.8387 71.7867 30.8205 72.8007 29.5645 72.8007C28.3085 72.8007 27.2903 71.7867 27.2903 70.536C27.2903 69.2852 28.3085 68.2713 29.5645 68.2713C30.8205 68.2713 31.8387 69.2852 31.8387 70.536Z" fill="#CECECE"/>
<path d="M45.4839 70.536C45.4839 71.7867 44.4657 72.8007 43.2097 72.8007C41.9537 72.8007 40.9355 71.7867 40.9355 70.536C40.9355 69.2852 41.9537 68.2713 43.2097 68.2713C44.4657 68.2713 45.4839 69.2852 45.4839 70.536Z" fill="#CECECE"/>
<path d="M59.129 70.536C59.129 71.7867 58.1108 72.8007 56.8548 72.8007C55.5988 72.8007 54.5806 71.7867 54.5806 70.536C54.5806 69.2852 55.5988 68.2713 56.8548 68.2713C58.1108 68.2713 59.129 69.2852 59.129 70.536Z" fill="#CECECE"/>
<path d="M72.7742 70.536C72.7742 71.7867 71.756 72.8007 70.5 72.8007C69.244 72.8007 68.2258 71.7867 68.2258 70.536C68.2258 69.2852 69.244 68.2713 70.5 68.2713C71.756 68.2713 72.7742 69.2852 72.7742 70.536Z" fill="#CECECE"/>
<path d="M86.4194 70.536C86.4194 71.7867 85.4012 72.8007 84.1452 72.8007C82.8892 72.8007 81.871 71.7867 81.871 70.536C81.871 69.2852 82.8892 68.2713 84.1452 68.2713C85.4012 68.2713 86.4194 69.2852 86.4194 70.536Z" fill="#CECECE"/>
<path d="M100.065 70.536C100.065 71.7867 99.0463 72.8007 97.7903 72.8007C96.5343 72.8007 95.5161 71.7867 95.5161 70.536C95.5161 69.2852 96.5343 68.2713 97.7903 68.2713C99.0463 68.2713 100.065 69.2852 100.065 70.536Z" fill="#CECECE"/>
<path d="M113.71 70.536C113.71 71.7867 112.691 72.8007 111.435 72.8007C110.179 72.8007 109.161 71.7867 109.161 70.536C109.161 69.2852 110.179 68.2713 111.435 68.2713C112.691 68.2713 113.71 69.2852 113.71 70.536Z" fill="#CECECE"/>
<path d="M127.355 70.536C127.355 71.7867 126.337 72.8007 125.081 72.8007C123.825 72.8007 122.806 71.7867 122.806 70.536C122.806 69.2852 123.825 68.2713 125.081 68.2713C126.337 68.2713 127.355 69.2852 127.355 70.536Z" fill="#CECECE"/>
<path d="M141 70.536C141 71.7867 139.982 72.8007 138.726 72.8007C137.47 72.8007 136.452 71.7867 136.452 70.536C136.452 69.2852 137.47 68.2713 138.726 68.2713C139.982 68.2713 141 69.2852 141 70.536Z" fill="#CECECE"/>
<path d="M4.54839 84.1242C4.54839 85.375 3.5302 86.3889 2.27419 86.3889C1.01819 86.3889 0 85.375 0 84.1242C0 82.8734 1.01819 81.8595 2.27419 81.8595C3.5302 81.8595 4.54839 82.8734 4.54839 84.1242Z" fill="#CECECE"/>
<path d="M18.1935 84.1242C18.1935 85.375 17.1754 86.3889 15.9194 86.3889C14.6634 86.3889 13.6452 85.375 13.6452 84.1242C13.6452 82.8734 14.6634 81.8595 15.9194 81.8595C17.1754 81.8595 18.1935 82.8734 18.1935 84.1242Z" fill="#CECECE"/>
<path d="M31.8387 84.1242C31.8387 85.375 30.8205 86.3889 29.5645 86.3889C28.3085 86.3889 27.2903 85.375 27.2903 84.1242C27.2903 82.8734 28.3085 81.8595 29.5645 81.8595C30.8205 81.8595 31.8387 82.8734 31.8387 84.1242Z" fill="#CECECE"/>
<path d="M45.4839 84.1242C45.4839 85.375 44.4657 86.3889 43.2097 86.3889C41.9537 86.3889 40.9355 85.375 40.9355 84.1242C40.9355 82.8734 41.9537 81.8595 43.2097 81.8595C44.4657 81.8595 45.4839 82.8734 45.4839 84.1242Z" fill="#CECECE"/>
<path d="M59.129 84.1242C59.129 85.375 58.1108 86.3889 56.8548 86.3889C55.5988 86.3889 54.5806 85.375 54.5806 84.1242C54.5806 82.8734 55.5988 81.8595 56.8548 81.8595C58.1108 81.8595 59.129 82.8734 59.129 84.1242Z" fill="#CECECE"/>
<path d="M72.7742 84.1242C72.7742 85.375 71.756 86.3889 70.5 86.3889C69.244 86.3889 68.2258 85.375 68.2258 84.1242C68.2258 82.8734 69.244 81.8595 70.5 81.8595C71.756 81.8595 72.7742 82.8734 72.7742 84.1242Z" fill="#CECECE"/>
<path d="M86.4194 84.1242C86.4194 85.375 85.4012 86.3889 84.1452 86.3889C82.8892 86.3889 81.871 85.375 81.871 84.1242C81.871 82.8734 82.8892 81.8595 84.1452 81.8595C85.4012 81.8595 86.4194 82.8734 86.4194 84.1242Z" fill="#CECECE"/>
<path d="M100.065 84.1242C100.065 85.375 99.0463 86.3889 97.7903 86.3889C96.5343 86.3889 95.5161 85.375 95.5161 84.1242C95.5161 82.8734 96.5343 81.8595 97.7903 81.8595C99.0463 81.8595 100.065 82.8734 100.065 84.1242Z" fill="#CECECE"/>
<path d="M113.71 84.1242C113.71 85.375 112.691 86.3889 111.435 86.3889C110.179 86.3889 109.161 85.375 109.161 84.1242C109.161 82.8734 110.179 81.8595 111.435 81.8595C112.691 81.8595 113.71 82.8734 113.71 84.1242Z" fill="#CECECE"/>
<path d="M127.355 84.1242C127.355 85.375 126.337 86.3889 125.081 86.3889C123.825 86.3889 122.806 85.375 122.806 84.1242C122.806 82.8734 123.825 81.8595 125.081 81.8595C126.337 81.8595 127.355 82.8734 127.355 84.1242Z" fill="#CECECE"/>
<path d="M141 84.1242C141 85.375 139.982 86.3889 138.726 86.3889C137.47 86.3889 136.452 85.375 136.452 84.1242C136.452 82.8734 137.47 81.8595 138.726 81.8595C139.982 81.8595 141 82.8734 141 84.1242Z" fill="#CECECE"/>
<path d="M4.54839 97.7124C4.54839 98.9632 3.5302 99.9771 2.27419 99.9771C1.01819 99.9771 0 98.9632 0 97.7124C0 96.4617 1.01819 95.4477 2.27419 95.4477C3.5302 95.4477 4.54839 96.4617 4.54839 97.7124Z" fill="#CECECE"/>
<path d="M18.1935 97.7124C18.1935 98.9632 17.1754 99.9771 15.9194 99.9771C14.6634 99.9771 13.6452 98.9632 13.6452 97.7124C13.6452 96.4617 14.6634 95.4477 15.9194 95.4477C17.1754 95.4477 18.1935 96.4617 18.1935 97.7124Z" fill="#CECECE"/>
<path d="M31.8387 97.7124C31.8387 98.9632 30.8205 99.9771 29.5645 99.9771C28.3085 99.9771 27.2903 98.9632 27.2903 97.7124C27.2903 96.4617 28.3085 95.4477 29.5645 95.4477C30.8205 95.4477 31.8387 96.4617 31.8387 97.7124Z" fill="#CECECE"/>
<path d="M45.4839 97.7124C45.4839 98.9632 44.4657 99.9771 43.2097 99.9771C41.9537 99.9771 40.9355 98.9632 40.9355 97.7124C40.9355 96.4617 41.9537 95.4477 43.2097 95.4477C44.4657 95.4477 45.4839 96.4617 45.4839 97.7124Z" fill="#CECECE"/>
<path d="M59.129 97.7124C59.129 98.9632 58.1108 99.9771 56.8548 99.9771C55.5988 99.9771 54.5806 98.9632 54.5806 97.7124C54.5806 96.4617 55.5988 95.4477 56.8548 95.4477C58.1108 95.4477 59.129 96.4617 59.129 97.7124Z" fill="#CECECE"/>
<path d="M72.7742 97.7124C72.7742 98.9632 71.756 99.9771 70.5 99.9771C69.244 99.9771 68.2258 98.9632 68.2258 97.7124C68.2258 96.4617 69.244 95.4477 70.5 95.4477C71.756 95.4477 72.7742 96.4617 72.7742 97.7124Z" fill="#CECECE"/>
<path d="M86.4194 97.7124C86.4194 98.9632 85.4012 99.9771 84.1452 99.9771C82.8892 99.9771 81.871 98.9632 81.871 97.7124C81.871 96.4617 82.8892 95.4477 84.1452 95.4477C85.4012 95.4477 86.4194 96.4617 86.4194 97.7124Z" fill="#CECECE"/>
<path d="M100.065 97.7124C100.065 98.9632 99.0463 99.9771 97.7903 99.9771C96.5343 99.9771 95.5161 98.9632 95.5161 97.7124C95.5161 96.4617 96.5343 95.4477 97.7903 95.4477C99.0463 95.4477 100.065 96.4617 100.065 97.7124Z" fill="#CECECE"/>
<path d="M113.71 97.7124C113.71 98.9632 112.691 99.9771 111.435 99.9771C110.179 99.9771 109.161 98.9632 109.161 97.7124C109.161 96.4617 110.179 95.4477 111.435 95.4477C112.691 95.4477 113.71 96.4617 113.71 97.7124Z" fill="#CECECE"/>
<path d="M127.355 97.7124C127.355 98.9632 126.337 99.9771 125.081 99.9771C123.825 99.9771 122.806 98.9632 122.806 97.7124C122.806 96.4617 123.825 95.4477 125.081 95.4477C126.337 95.4477 127.355 96.4617 127.355 97.7124Z" fill="#CECECE"/>
<path d="M141 97.7124C141 98.9632 139.982 99.9771 138.726 99.9771C137.47 99.9771 136.452 98.9632 136.452 97.7124C136.452 96.4617 137.47 95.4477 138.726 95.4477C139.982 95.4477 141 96.4617 141 97.7124Z" fill="#CECECE"/>
<path d="M4.54839 111.301C4.54839 112.551 3.5302 113.565 2.27419 113.565C1.01819 113.565 0 112.551 0 111.301C0 110.05 1.01819 109.036 2.27419 109.036C3.5302 109.036 4.54839 110.05 4.54839 111.301Z" fill="#CECECE"/>
<path d="M18.1935 111.301C18.1935 112.551 17.1754 113.565 15.9194 113.565C14.6634 113.565 13.6452 112.551 13.6452 111.301C13.6452 110.05 14.6634 109.036 15.9194 109.036C17.1754 109.036 18.1935 110.05 18.1935 111.301Z" fill="#CECECE"/>
<path d="M31.8387 111.301C31.8387 112.551 30.8205 113.565 29.5645 113.565C28.3085 113.565 27.2903 112.551 27.2903 111.301C27.2903 110.05 28.3085 109.036 29.5645 109.036C30.8205 109.036 31.8387 110.05 31.8387 111.301Z" fill="#CECECE"/>
<path d="M45.4839 111.301C45.4839 112.551 44.4657 113.565 43.2097 113.565C41.9537 113.565 40.9355 112.551 40.9355 111.301C40.9355 110.05 41.9537 109.036 43.2097 109.036C44.4657 109.036 45.4839 110.05 45.4839 111.301Z" fill="#CECECE"/>
<path d="M59.129 111.301C59.129 112.551 58.1108 113.565 56.8548 113.565C55.5988 113.565 54.5806 112.551 54.5806 111.301C54.5806 110.05 55.5988 109.036 56.8548 109.036C58.1108 109.036 59.129 110.05 59.129 111.301Z" fill="#CECECE"/>
<path d="M72.7742 111.301C72.7742 112.551 71.756 113.565 70.5 113.565C69.244 113.565 68.2258 112.551 68.2258 111.301C68.2258 110.05 69.244 109.036 70.5 109.036C71.756 109.036 72.7742 110.05 72.7742 111.301Z" fill="#CECECE"/>
<path d="M86.4194 111.301C86.4194 112.551 85.4012 113.565 84.1452 113.565C82.8892 113.565 81.871 112.551 81.871 111.301C81.871 110.05 82.8892 109.036 84.1452 109.036C85.4012 109.036 86.4194 110.05 86.4194 111.301Z" fill="#CECECE"/>
<path d="M100.065 111.301C100.065 112.551 99.0463 113.565 97.7903 113.565C96.5343 113.565 95.5161 112.551 95.5161 111.301C95.5161 110.05 96.5343 109.036 97.7903 109.036C99.0463 109.036 100.065 110.05 100.065 111.301Z" fill="#CECECE"/>
<path d="M113.71 111.301C113.71 112.551 112.691 113.565 111.435 113.565C110.179 113.565 109.161 112.551 109.161 111.301C109.161 110.05 110.179 109.036 111.435 109.036C112.691 109.036 113.71 110.05 113.71 111.301Z" fill="#CECECE"/>
<path d="M127.355 111.301C127.355 112.551 126.337 113.565 125.081 113.565C123.825 113.565 122.806 112.551 122.806 111.301C122.806 110.05 123.825 109.036 125.081 109.036C126.337 109.036 127.355 110.05 127.355 111.301Z" fill="#CECECE"/>
<path d="M141 111.301C141 112.551 139.982 113.565 138.726 113.565C137.47 113.565 136.452 112.551 136.452 111.301C136.452 110.05 137.47 109.036 138.726 109.036C139.982 109.036 141 110.05 141 111.301Z" fill="#CECECE"/>
<path d="M4.54839 124.889C4.54839 126.14 3.5302 127.154 2.27419 127.154C1.01819 127.154 0 126.14 0 124.889C0 123.638 1.01819 122.624 2.27419 122.624C3.5302 122.624 4.54839 123.638 4.54839 124.889Z" fill="#CECECE"/>
<path d="M18.1935 124.889C18.1935 126.14 17.1754 127.154 15.9194 127.154C14.6634 127.154 13.6452 126.14 13.6452 124.889C13.6452 123.638 14.6634 122.624 15.9194 122.624C17.1754 122.624 18.1935 123.638 18.1935 124.889Z" fill="#CECECE"/>
<path d="M31.8387 124.889C31.8387 126.14 30.8205 127.154 29.5645 127.154C28.3085 127.154 27.2903 126.14 27.2903 124.889C27.2903 123.638 28.3085 122.624 29.5645 122.624C30.8205 122.624 31.8387 123.638 31.8387 124.889Z" fill="#CECECE"/>
<path d="M45.4839 124.889C45.4839 126.14 44.4657 127.154 43.2097 127.154C41.9537 127.154 40.9355 126.14 40.9355 124.889C40.9355 123.638 41.9537 122.624 43.2097 122.624C44.4657 122.624 45.4839 123.638 45.4839 124.889Z" fill="#CECECE"/>
<path d="M59.129 124.889C59.129 126.14 58.1108 127.154 56.8548 127.154C55.5988 127.154 54.5806 126.14 54.5806 124.889C54.5806 123.638 55.5988 122.624 56.8548 122.624C58.1108 122.624 59.129 123.638 59.129 124.889Z" fill="#CECECE"/>
<path d="M72.7742 124.889C72.7742 126.14 71.756 127.154 70.5 127.154C69.244 127.154 68.2258 126.14 68.2258 124.889C68.2258 123.638 69.244 122.624 70.5 122.624C71.756 122.624 72.7742 123.638 72.7742 124.889Z" fill="#CECECE"/>
<path d="M86.4194 124.889C86.4194 126.14 85.4012 127.154 84.1452 127.154C82.8892 127.154 81.871 126.14 81.871 124.889C81.871 123.638 82.8892 122.624 84.1452 122.624C85.4012 122.624 86.4194 123.638 86.4194 124.889Z" fill="#CECECE"/>
<path d="M100.065 124.889C100.065 126.14 99.0463 127.154 97.7903 127.154C96.5343 127.154 95.5161 126.14 95.5161 124.889C95.5161 123.638 96.5343 122.624 97.7903 122.624C99.0463 122.624 100.065 123.638 100.065 124.889Z" fill="#CECECE"/>
<path d="M113.71 124.889C113.71 126.14 112.691 127.154 111.435 127.154C110.179 127.154 109.161 126.14 109.161 124.889C109.161 123.638 110.179 122.624 111.435 122.624C112.691 122.624 113.71 123.638 113.71 124.889Z" fill="#CECECE"/>
<path d="M127.355 124.889C127.355 126.14 126.337 127.154 125.081 127.154C123.825 127.154 122.806 126.14 122.806 124.889C122.806 123.638 123.825 122.624 125.081 122.624C126.337 122.624 127.355 123.638 127.355 124.889Z" fill="#CECECE"/>
<path d="M141 124.889C141 126.14 139.982 127.154 138.726 127.154C137.47 127.154 136.452 126.14 136.452 124.889C136.452 123.638 137.47 122.624 138.726 122.624C139.982 122.624 141 123.638 141 124.889Z" fill="#CECECE"/>
<path d="M4.54839 138.477C4.54839 139.728 3.5302 140.742 2.27419 140.742C1.01819 140.742 0 139.728 0 138.477C0 137.226 1.01819 136.212 2.27419 136.212C3.5302 136.212 4.54839 137.226 4.54839 138.477Z" fill="#CECECE"/>
<path d="M18.1935 138.477C18.1935 139.728 17.1754 140.742 15.9194 140.742C14.6634 140.742 13.6452 139.728 13.6452 138.477C13.6452 137.226 14.6634 136.212 15.9194 136.212C17.1754 136.212 18.1935 137.226 18.1935 138.477Z" fill="#CECECE"/>
<path d="M31.8387 138.477C31.8387 139.728 30.8205 140.742 29.5645 140.742C28.3085 140.742 27.2903 139.728 27.2903 138.477C27.2903 137.226 28.3085 136.212 29.5645 136.212C30.8205 136.212 31.8387 137.226 31.8387 138.477Z" fill="#CECECE"/>
<path d="M45.4839 138.477C45.4839 139.728 44.4657 140.742 43.2097 140.742C41.9537 140.742 40.9355 139.728 40.9355 138.477C40.9355 137.226 41.9537 136.212 43.2097 136.212C44.4657 136.212 45.4839 137.226 45.4839 138.477Z" fill="#CECECE"/>
<path d="M59.129 138.477C59.129 139.728 58.1108 140.742 56.8548 140.742C55.5988 140.742 54.5806 139.728 54.5806 138.477C54.5806 137.226 55.5988 136.212 56.8548 136.212C58.1108 136.212 59.129 137.226 59.129 138.477Z" fill="#CECECE"/>
<path d="M72.7742 138.477C72.7742 139.728 71.756 140.742 70.5 140.742C69.244 140.742 68.2258 139.728 68.2258 138.477C68.2258 137.226 69.244 136.212 70.5 136.212C71.756 136.212 72.7742 137.226 72.7742 138.477Z" fill="#CECECE"/>
<path d="M86.4194 138.477C86.4194 139.728 85.4012 140.742 84.1452 140.742C82.8892 140.742 81.871 139.728 81.871 138.477C81.871 137.226 82.8892 136.212 84.1452 136.212C85.4012 136.212 86.4194 137.226 86.4194 138.477Z" fill="#CECECE"/>
<path d="M100.065 138.477C100.065 139.728 99.0463 140.742 97.7903 140.742C96.5343 140.742 95.5161 139.728 95.5161 138.477C95.5161 137.226 96.5343 136.212 97.7903 136.212C99.0463 136.212 100.065 137.226 100.065 138.477Z" fill="#CECECE"/>
<path d="M113.71 138.477C113.71 139.728 112.691 140.742 111.435 140.742C110.179 140.742 109.161 139.728 109.161 138.477C109.161 137.226 110.179 136.212 111.435 136.212C112.691 136.212 113.71 137.226 113.71 138.477Z" fill="#CECECE"/>
<path d="M127.355 138.477C127.355 139.728 126.337 140.742 125.081 140.742C123.825 140.742 122.806 139.728 122.806 138.477C122.806 137.226 123.825 136.212 125.081 136.212C126.337 136.212 127.355 137.226 127.355 138.477Z" fill="#CECECE"/>
<path d="M141 138.477C141 139.728 139.982 140.742 138.726 140.742C137.47 140.742 136.452 139.728 136.452 138.477C136.452 137.226 137.47 136.212 138.726 136.212C139.982 136.212 141 137.226 141 138.477Z" fill="#CECECE"/>
<path d="M4.54839 152.065C4.54839 153.316 3.5302 154.33 2.27419 154.33C1.01819 154.33 0 153.316 0 152.065C0 150.815 1.01819 149.801 2.27419 149.801C3.5302 149.801 4.54839 150.815 4.54839 152.065Z" fill="#CECECE"/>
<path d="M18.1935 152.065C18.1935 153.316 17.1754 154.33 15.9194 154.33C14.6634 154.33 13.6452 153.316 13.6452 152.065C13.6452 150.815 14.6634 149.801 15.9194 149.801C17.1754 149.801 18.1935 150.815 18.1935 152.065Z" fill="#CECECE"/>
<path d="M31.8387 152.065C31.8387 153.316 30.8205 154.33 29.5645 154.33C28.3085 154.33 27.2903 153.316 27.2903 152.065C27.2903 150.815 28.3085 149.801 29.5645 149.801C30.8205 149.801 31.8387 150.815 31.8387 152.065Z" fill="#CECECE"/>
<path d="M45.4839 152.065C45.4839 153.316 44.4657 154.33 43.2097 154.33C41.9537 154.33 40.9355 153.316 40.9355 152.065C40.9355 150.815 41.9537 149.801 43.2097 149.801C44.4657 149.801 45.4839 150.815 45.4839 152.065Z" fill="#CECECE"/>
<path d="M59.129 152.065C59.129 153.316 58.1108 154.33 56.8548 154.33C55.5988 154.33 54.5806 153.316 54.5806 152.065C54.5806 150.815 55.5988 149.801 56.8548 149.801C58.1108 149.801 59.129 150.815 59.129 152.065Z" fill="#CECECE"/>
<path d="M72.7742 152.065C72.7742 153.316 71.756 154.33 70.5 154.33C69.244 154.33 68.2258 153.316 68.2258 152.065C68.2258 150.815 69.244 149.801 70.5 149.801C71.756 149.801 72.7742 150.815 72.7742 152.065Z" fill="#CECECE"/>
<path d="M86.4194 152.065C86.4194 153.316 85.4012 154.33 84.1452 154.33C82.8892 154.33 81.871 153.316 81.871 152.065C81.871 150.815 82.8892 149.801 84.1452 149.801C85.4012 149.801 86.4194 150.815 86.4194 152.065Z" fill="#CECECE"/>
<path d="M100.065 152.065C100.065 153.316 99.0463 154.33 97.7903 154.33C96.5343 154.33 95.5161 153.316 95.5161 152.065C95.5161 150.815 96.5343 149.801 97.7903 149.801C99.0463 149.801 100.065 150.815 100.065 152.065Z" fill="#CECECE"/>
<path d="M113.71 152.065C113.71 153.316 112.691 154.33 111.435 154.33C110.179 154.33 109.161 153.316 109.161 152.065C109.161 150.815 110.179 149.801 111.435 149.801C112.691 149.801 113.71 150.815 113.71 152.065Z" fill="#CECECE"/>
<path d="M127.355 152.065C127.355 153.316 126.337 154.33 125.081 154.33C123.825 154.33 122.806 153.316 122.806 152.065C122.806 150.815 123.825 149.801 125.081 149.801C126.337 149.801 127.355 150.815 127.355 152.065Z" fill="#CECECE"/>
<path d="M141 152.065C141 153.316 139.982 154.33 138.726 154.33C137.47 154.33 136.452 153.316 136.452 152.065C136.452 150.815 137.47 149.801 138.726 149.801C139.982 149.801 141 150.815 141 152.065Z" fill="#CECECE"/>
</svg>
