<svg width="24" height="25" viewBox="0 0 24 25" fill="none" xmlns="http://www.w3.org/2000/svg">
<path d="M10.0376 6.14625L10.6866 7.30918C11.2723 8.35866 11.0372 9.7354 10.1147 10.6579C10.1147 10.6579 8.99588 11.7769 11.0245 13.8056C13.0525 15.8336 14.1722 14.7154 14.1722 14.7154C15.0947 13.7929 16.4714 13.5578 17.5209 14.1435L18.6838 14.7925C20.2686 15.6769 20.4557 17.8993 19.0628 19.2923C18.2258 20.1293 17.2004 20.7806 16.0669 20.8235C14.1588 20.8959 10.9183 20.413 7.6677 17.1624C4.41713 13.9118 3.93421 10.6713 4.00655 8.76317C4.04952 7.62968 4.7008 6.60431 5.53781 5.76731C6.93076 4.37436 9.15317 4.56152 10.0376 6.14625Z" fill="#EFEFEF"/>
</svg>
