<svg width="33" height="32" viewBox="0 0 33 32" fill="none" xmlns="http://www.w3.org/2000/svg">
<g clip-path="url(#clip0_642_1260)">
<path d="M12.5 30H4.5C3.96975 29.9994 3.4614 29.7885 3.08646 29.4135C2.71152 29.0386 2.50061 28.5302 2.5 28V24C2.50061 23.4698 2.71152 22.9614 3.08646 22.5865C3.4614 22.2115 3.96975 22.0006 4.5 22H12.5C13.0302 22.0006 13.5386 22.2115 13.9135 22.5865C14.2885 22.9614 14.4994 23.4698 14.5 24V28C14.4994 28.5302 14.2885 29.0386 13.9135 29.4135C13.5386 29.7885 13.0302 29.9994 12.5 30ZM4.5 24V28H12.5V24H4.5Z" fill="#2762BF"/>
<path d="M28.5 20H12.5C11.9698 19.9994 11.4614 19.7885 11.0865 19.4135C10.7115 19.0386 10.5006 18.5302 10.5 18V14C10.5006 13.4698 10.7115 12.9614 11.0865 12.5865C11.4614 12.2115 11.9698 12.0006 12.5 12H28.5C29.0302 12.0006 29.5386 12.2115 29.9135 12.5865C30.2885 12.9614 30.4994 13.4698 30.5 14V18C30.4994 18.5302 30.2885 19.0386 29.9135 19.4135C29.5386 19.7885 29.0302 19.9994 28.5 20ZM12.5 14V18H28.5V14H12.5Z" fill="#2762BF"/>
<path d="M16.5 10H4.5C3.96975 9.99939 3.4614 9.78848 3.08646 9.41354C2.71152 9.0386 2.50061 8.53025 2.5 8V4C2.50061 3.46975 2.71152 2.9614 3.08646 2.58646C3.4614 2.21152 3.96975 2.00061 4.5 2H16.5C17.0302 2.00061 17.5386 2.21152 17.9135 2.58646C18.2885 2.9614 18.4994 3.46975 18.5 4V8C18.4994 8.53025 18.2885 9.0386 17.9135 9.41354C17.5386 9.78848 17.0302 9.99939 16.5 10ZM4.5 4V8H16.5V4H4.5Z" fill="#2762BF"/>
</g>
<defs>
<clipPath id="clip0_642_1260">
<rect width="32" height="32" fill="white" transform="translate(0.5)"/>
</clipPath>
</defs>
</svg>
