<svg width="33" height="32" viewBox="0 0 33 32" fill="none" xmlns="http://www.w3.org/2000/svg">
<g clip-path="url(#clip0_642_1154)">
<path d="M16.5144 22.7346C12.8261 22.7346 9.82544 19.72 9.82544 16.0145C9.82544 12.3089 12.8261 9.29419 16.5144 9.29419C20.2026 9.29419 23.2033 12.3089 23.2033 16.0145C23.2033 19.72 20.2026 22.7346 16.5144 22.7346ZM16.5144 10.6003C13.5463 10.6003 11.1316 13.029 11.1316 16.0145C11.1316 18.9998 13.5463 21.4285 16.5144 21.4285C19.4825 21.4285 21.8971 18.9998 21.8971 16.0145C21.8971 13.029 19.4825 10.6003 16.5144 10.6003Z" fill="#2762BF"/>
<path d="M17.3183 32H17.3182H15.6817C14.0764 32 12.7704 30.6888 12.7703 29.077V26.5002C12.4245 26.3756 12.0834 26.2331 11.7499 26.0737L9.93884 27.8941C9.38896 28.447 8.65753 28.7514 7.87935 28.7514C7.10122 28.7515 6.36967 28.4471 5.81966 27.8943L4.66237 26.7309C3.52937 25.5922 3.52931 23.739 4.66224 22.5997L6.47657 20.7761C6.31709 20.4395 6.1744 20.095 6.04986 19.7454L3.49012 19.7453C2.71174 19.7453 1.98044 19.4409 1.43056 18.8882C0.881534 18.3365 0.579102 17.6028 0.579102 16.8227V15.1775C0.579102 13.566 1.88496 12.2548 3.49006 12.2545H6.04999C6.1746 11.9048 6.31722 11.5604 6.47657 11.2239L4.66243 9.40036C4.1134 8.84859 3.81091 8.11494 3.81091 7.33479C3.81091 6.55478 4.11327 5.82113 4.6623 5.26922L5.81966 4.10593C6.36895 3.55376 7.10044 3.2497 7.87941 3.2497C8.65825 3.2497 9.38968 3.5537 9.93904 4.1058L11.7502 5.92627C12.0835 5.76699 12.4246 5.62436 12.7705 5.49982V2.92291C12.7704 1.31122 14.0763 0 15.6815 0H17.3181C18.9234 0 20.2294 1.31122 20.2294 2.92291V5.49982C20.5753 5.62442 20.9164 5.76705 21.2497 5.9264L23.0609 4.10593C23.6104 3.55304 24.3418 3.24846 25.1203 3.24846C25.8986 3.24846 26.6302 3.55298 27.1802 4.10599L28.3373 5.26883C29.4703 6.40764 29.4703 8.26096 28.3375 9.40023L26.523 11.2242C26.6816 11.5595 26.8239 11.9038 26.9487 12.2546L29.5097 12.2548C30.2884 12.2548 31.0195 12.5592 31.5692 13.1119C32.1182 13.6637 32.4206 14.3973 32.4206 15.1775L32.4207 16.8224C32.4207 18.4338 31.1149 19.7451 29.5097 19.7455H26.9487C26.8239 20.0962 26.6817 20.4406 26.5231 20.776L28.3375 22.5998C28.8865 23.1515 29.1889 23.8851 29.1889 24.6652C29.1889 25.4452 28.8866 26.1788 28.3377 26.7308L27.1802 27.8941C26.6311 28.4462 25.8996 28.7503 25.1204 28.7503C24.3415 28.7503 23.6101 28.4463 23.0607 27.8943L21.2496 26.0737C20.9162 26.2331 20.5752 26.3757 20.2294 26.5002L20.2292 29.0773C20.2295 29.857 19.9272 30.5906 19.3779 31.1427C18.8279 31.6955 18.0966 31.9999 17.3183 32ZM11.622 24.6312C11.7261 24.6312 11.831 24.6562 11.9275 24.7076C12.4679 24.9957 13.0349 25.2328 13.613 25.4124C13.8848 25.4968 14.07 25.7483 14.07 26.0329V29.077C14.0701 29.9721 14.793 30.7003 15.6817 30.7003H17.3182C17.7481 30.7003 18.1523 30.5319 18.4566 30.226C18.7617 29.9192 18.9297 29.5113 18.9296 29.0774L18.9298 26.0327C18.9299 25.7481 19.115 25.4966 19.3869 25.4122C19.9648 25.2327 20.5318 24.9956 21.072 24.7076C21.3249 24.5729 21.6362 24.6195 21.8384 24.8227L23.9821 26.9775C24.2856 27.2825 24.6899 27.4506 25.1204 27.4506C25.5511 27.4506 25.9554 27.2825 26.2588 26.9775L27.4162 25.8141C27.7212 25.5074 27.8893 25.0993 27.8893 24.6651C27.8893 24.2309 27.7212 23.823 27.4161 23.5163L25.2725 21.3615C25.072 21.16 25.0257 20.8515 25.1584 20.6C25.4426 20.0612 25.6783 19.4907 25.8588 18.9043C25.9428 18.6317 26.1947 18.4458 26.4799 18.4458H29.5096C30.3982 18.4456 31.1212 17.7173 31.1212 16.8223L31.1211 15.1775C31.1211 14.7432 30.953 14.3352 30.6479 14.0284C30.3439 13.7227 29.9401 13.5544 29.5108 13.5544L26.4798 13.5542C26.1946 13.5541 25.9428 13.3681 25.8588 13.0956C25.6783 12.5093 25.4426 11.9387 25.1584 11.4C25.0257 11.1485 25.0719 10.84 25.2725 10.6385L27.4161 8.48372C28.0463 7.85006 28.0463 6.819 27.4161 6.18553L26.2589 5.02269C25.9545 4.7166 25.5502 4.54818 25.1204 4.54818C24.6906 4.54818 24.2865 4.7166 23.9826 5.02237L21.8385 7.1774C21.6363 7.38057 21.3249 7.42727 21.072 7.29247C20.5321 7.0046 19.9651 6.76748 19.3867 6.58769C19.1149 6.50325 18.9297 6.25175 18.9297 5.96715V2.92291C18.9297 2.02789 18.2068 1.29972 17.3181 1.29972H15.6815C14.793 1.29972 14.07 2.02789 14.07 2.92291V5.96709C14.07 6.25169 13.8848 6.50318 13.613 6.58769C13.0347 6.76735 12.4676 7.00447 11.9276 7.29234C11.6747 7.42707 11.3634 7.38044 11.1612 7.17721L9.01757 5.02243C8.71409 4.71739 8.30984 4.54936 7.87935 4.54936C7.44885 4.54936 7.04454 4.71739 6.74093 5.02256L5.58364 6.1858C5.27853 6.49247 5.1105 6.90051 5.1105 7.33479C5.11056 7.76895 5.2786 8.17698 5.58371 8.48366L7.72731 10.6384C7.92787 10.84 7.97404 11.1485 7.84134 11.4C7.55504 11.9424 7.31902 12.5128 7.13976 13.0954C7.0559 13.368 6.80395 13.5541 6.51869 13.5541H3.49012C2.60163 13.5543 1.87869 14.2824 1.87869 15.1773V16.8225C1.87869 17.2568 2.04673 17.6647 2.35184 17.9714C2.6561 18.2772 3.06015 18.4456 3.4896 18.4456L6.51869 18.4457C6.80395 18.4457 7.0559 18.6318 7.13976 18.9044C7.31882 19.4864 7.55484 20.0569 7.8414 20.5999C7.97411 20.8514 7.92787 21.1599 7.72731 21.3615L5.58371 23.5161C4.95357 24.1497 4.9535 25.1807 5.58377 25.8141L6.741 26.9775C7.04526 27.2833 7.44957 27.4517 7.87935 27.4517C8.30913 27.4517 8.71331 27.2833 9.01744 26.9774L11.1612 24.8227C11.2862 24.697 11.453 24.6312 11.622 24.6312Z" fill="#2762BF"/>
</g>
<defs>
<clipPath id="clip0_642_1154">
<rect width="32" height="32" fill="white" transform="translate(0.5)"/>
</clipPath>
</defs>
</svg>
