<svg width="153" height="167" viewBox="0 0 153 167" fill="none" xmlns="http://www.w3.org/2000/svg">
<path d="M145.803 12.9404H141.441V14.8203H145.803V19.7617H147.801V14.8203H152.162V12.9404H147.801V8.375H145.803V12.9404Z" fill="#FF7152"/>
<path d="M145.803 47.9404H141.441V49.8203H145.803V54.7617H147.801V49.8203H152.162V47.9404H147.801V43.375H145.803V47.9404Z" fill="#E5E5E5"/>
<path d="M145.803 82.9404H141.441V84.8203H145.803V89.7617H147.801V84.8203H152.162V82.9404H147.801V78.375H145.803V82.9404Z" fill="#E5E5E5"/>
<path d="M110.803 12.9404H106.441V14.8203H110.803V19.7617H112.801V14.8203H117.162V12.9404H112.801V8.375H110.803V12.9404Z" fill="#E5E5E5"/>
<path d="M110.803 47.9404H106.441V49.8203H110.803V54.7617H112.801V49.8203H117.162V47.9404H112.801V43.375H110.803V47.9404Z" fill="#E5E5E5"/>
<path d="M106.441 82.9404V84.8096H117.162V82.9404H106.441ZM110.803 78.375V89.7617H112.79V78.375H110.803Z" fill="#E5E5E5"/>
<path d="M110.803 117.94H106.441V119.82H110.803V124.762H112.801V119.82H117.162V117.94H112.801V113.375H110.803V117.94Z" fill="#E5E5E5"/>
<path d="M75.8027 12.9404H71.4414V14.8203H75.8027V19.7617H77.8008V14.8203H82.1621V12.9404H77.8008V8.375H75.8027V12.9404Z" fill="#E5E5E5"/>
<path d="M75.8027 47.9404H71.4414V49.8203H75.8027V54.7617H77.8008V49.8203H82.1621V47.9404H77.8008V43.375H75.8027V47.9404Z" fill="#E5E5E5"/>
<path d="M75.8027 82.9404H71.4414V84.8203H75.8027V89.7617H77.8008V84.8203H82.1621V82.9404H77.8008V78.375H75.8027V82.9404Z" fill="#6246E5"/>
<path d="M75.8027 117.94H71.4414V119.82H75.8027V124.762H77.8008V119.82H82.1621V117.94H77.8008V113.375H75.8027V117.94Z" fill="#E5E5E5"/>
<path d="M75.8027 152.94H71.4414V154.82H75.8027V159.762H77.8008V154.82H82.1621V152.94H77.8008V148.375H75.8027V152.94Z" fill="#E5E5E5"/>
<path d="M40.8027 12.9404H36.4414V14.8203H40.8027V19.7617H42.8008V14.8203H47.1621V12.9404H42.8008V8.375H40.8027V12.9404Z" fill="#E5E5E5"/>
<path d="M40.8027 47.9404H36.4414V49.8203H40.8027V54.7617H42.8008V49.8203H47.1621V47.9404H42.8008V43.375H40.8027V47.9404Z" fill="#E5E5E5"/>
<path d="M36.4414 82.9404V84.8096H47.1621V82.9404H36.4414ZM40.8027 78.375V89.7617H42.79V78.375H40.8027Z" fill="#E5E5E5"/>
<path d="M36.4414 117.94V119.81H47.1621V117.94H36.4414ZM40.8027 113.375V124.762H42.79V113.375H40.8027Z" fill="#E5E5E5"/>
<path d="M40.8027 152.94H36.4414V154.82H40.8027V159.762H42.8008V154.82H47.1621V152.94H42.8008V148.375H40.8027V152.94Z" fill="#E5E5E5"/>
<path d="M5.80273 12.9404H1.44141V14.8203H5.80273V19.7617H7.80078V14.8203H12.1621V12.9404H7.80078V8.375H5.80273V12.9404Z" fill="#E5E5E5"/>
<path d="M5.80273 47.9404H1.44141V49.8203H5.80273V54.7617H7.80078V49.8203H12.1621V47.9404H7.80078V43.375H5.80273V47.9404Z" fill="#E5E5E5"/>
<path d="M5.80273 82.9404H1.44141V84.8203H5.80273V89.7617H7.80078V84.8203H12.1621V82.9404H7.80078V78.375H5.80273V82.9404Z" fill="#E5E5E5"/>
<path d="M5.80273 117.94H1.44141V119.82H5.80273V124.762H7.80078V119.82H12.1621V117.94H7.80078V113.375H5.80273V117.94Z" fill="#E5E5E5"/>
<path d="M5.80273 152.94H1.44141V154.82H5.80273V159.762H7.80078V154.82H12.1621V152.94H7.80078V148.375H5.80273V152.94Z" fill="#E5E5E5"/>
</svg>
