<svg width="153" height="167" viewBox="0 0 153 167" fill="none" xmlns="http://www.w3.org/2000/svg">
<path d="M7.19727 12.9404H11.5586V14.8203H7.19727V19.7617H5.19922V14.8203H0.837891V12.9404H5.19922V8.375H7.19727V12.9404Z" fill="#FF7152"/>
<path d="M7.19727 47.9404H11.5586V49.8203H7.19727V54.7617H5.19922V49.8203H0.837891V47.9404H5.19922V43.375H7.19727V47.9404Z" fill="#E5E5E5"/>
<path d="M7.19727 82.9404H11.5586V84.8203H7.19727V89.7617H5.19922V84.8203H0.837891V82.9404H5.19922V78.375H7.19727V82.9404Z" fill="#E5E5E5"/>
<path d="M42.1973 12.9404H46.5586V14.8203H42.1973V19.7617H40.1992V14.8203H35.8379V12.9404H40.1992V8.375H42.1973V12.9404Z" fill="#E5E5E5"/>
<path d="M42.1973 47.9404H46.5586V49.8203H42.1973V54.7617H40.1992V49.8203H35.8379V47.9404H40.1992V43.375H42.1973V47.9404Z" fill="#E5E5E5"/>
<path d="M46.5586 82.9404V84.8096H35.8379V82.9404H46.5586ZM42.1973 78.375V89.7617H40.21V78.375H42.1973Z" fill="#E5E5E5"/>
<path d="M42.1973 117.94H46.5586V119.82H42.1973V124.762H40.1992V119.82H35.8379V117.94H40.1992V113.375H42.1973V117.94Z" fill="#E5E5E5"/>
<path d="M77.1973 12.9404H81.5586V14.8203H77.1973V19.7617H75.1992V14.8203H70.8379V12.9404H75.1992V8.375H77.1973V12.9404Z" fill="#E5E5E5"/>
<path d="M77.1973 47.9404H81.5586V49.8203H77.1973V54.7617H75.1992V49.8203H70.8379V47.9404H75.1992V43.375H77.1973V47.9404Z" fill="#E5E5E5"/>
<path d="M77.1973 82.9404H81.5586V84.8203H77.1973V89.7617H75.1992V84.8203H70.8379V82.9404H75.1992V78.375H77.1973V82.9404Z" fill="#6246E5"/>
<path d="M77.1973 117.94H81.5586V119.82H77.1973V124.762H75.1992V119.82H70.8379V117.94H75.1992V113.375H77.1973V117.94Z" fill="#E5E5E5"/>
<path d="M77.1973 152.94H81.5586V154.82H77.1973V159.762H75.1992V154.82H70.8379V152.94H75.1992V148.375H77.1973V152.94Z" fill="#E5E5E5"/>
<path d="M112.197 12.9404H116.559V14.8203H112.197V19.7617H110.199V14.8203H105.838V12.9404H110.199V8.375H112.197V12.9404Z" fill="#E5E5E5"/>
<path d="M112.197 47.9404H116.559V49.8203H112.197V54.7617H110.199V49.8203H105.838V47.9404H110.199V43.375H112.197V47.9404Z" fill="#E5E5E5"/>
<path d="M116.559 82.9404V84.8096H105.838V82.9404H116.559ZM112.197 78.375V89.7617H110.21V78.375H112.197Z" fill="#E5E5E5"/>
<path d="M116.559 117.94V119.81H105.838V117.94H116.559ZM112.197 113.375V124.762H110.21V113.375H112.197Z" fill="#E5E5E5"/>
<path d="M112.197 152.94H116.559V154.82H112.197V159.762H110.199V154.82H105.838V152.94H110.199V148.375H112.197V152.94Z" fill="#E5E5E5"/>
<path d="M147.197 12.9404H151.559V14.8203H147.197V19.7617H145.199V14.8203H140.838V12.9404H145.199V8.375H147.197V12.9404Z" fill="#E5E5E5"/>
<path d="M147.197 47.9404H151.559V49.8203H147.197V54.7617H145.199V49.8203H140.838V47.9404H145.199V43.375H147.197V47.9404Z" fill="#E5E5E5"/>
<path d="M147.197 82.9404H151.559V84.8203H147.197V89.7617H145.199V84.8203H140.838V82.9404H145.199V78.375H147.197V82.9404Z" fill="#E5E5E5"/>
<path d="M147.197 117.94H151.559V119.82H147.197V124.762H145.199V119.82H140.838V117.94H145.199V113.375H147.197V117.94Z" fill="#E5E5E5"/>
<path d="M147.197 152.94H151.559V154.82H147.197V159.762H145.199V154.82H140.838V152.94H145.199V148.375H147.197V152.94Z" fill="#E5E5E5"/>
</svg>
