<svg width="87" height="74" viewBox="0 0 87 74" fill="none" xmlns="http://www.w3.org/2000/svg">
<rect x="30.1362" y="1.41426" width="34.2853" height="31.9189" rx="4" transform="rotate(45 30.1362 1.41426)" fill="white" stroke="white" stroke-width="2"/>
<rect x="53.9053" y="2.1768" width="34.2853" height="31.9189" rx="4" transform="rotate(45 53.9053 2.1768)" stroke="white" stroke-width="2"/>
<path d="M0.0180948 63.4622V63.1636H0.737365V57.7171H0V57.4411H5.12084L5.17512 59.1918H4.86299C4.71521 58.649 4.51768 58.2675 4.27038 58.0473C4.02309 57.8271 3.66421 57.7171 3.19374 57.7171H2.26638L2.2709 60.1915C2.29201 60.1946 2.31765 60.1976 2.34781 60.2006C2.38098 60.2006 2.42471 60.2006 2.47899 60.2006C2.80168 60.2006 3.04747 60.1131 3.21636 59.9382C3.38524 59.7633 3.49532 59.4828 3.54659 59.0968H3.8542V61.6663H3.54659C3.51342 61.2501 3.41088 60.9515 3.23898 60.7706C3.06708 60.5896 2.80168 60.4992 2.4428 60.4992H2.26638V63.1636H3.1485V63.4622H0.0180948Z" fill="white"/>
<path d="M5.69988 63.4622V63.1636H6.31962V57.7171H5.69988V57.4411H8.70362V57.7171H7.86673V63.1636H8.74886C9.24345 63.1636 9.63098 63.0324 9.91145 62.7701C10.1919 62.5077 10.4121 62.0689 10.5719 61.4537H10.8614L10.7936 63.4622H5.69988Z" fill="white"/>
<path d="M13.164 60.4584C13.164 61.2305 13.1761 61.7628 13.2002 62.0553C13.2273 62.3448 13.2741 62.5605 13.3404 62.7022C13.4369 62.9224 13.5741 63.0807 13.7521 63.1772C13.93 63.2737 14.1713 63.3219 14.4759 63.3219C14.7835 63.3219 15.0263 63.2737 15.2042 63.1772C15.3821 63.0807 15.5193 62.9224 15.6158 62.7022C15.6852 62.5484 15.7335 62.3177 15.7606 62.0101C15.7877 61.7025 15.8013 61.1852 15.8013 60.4584C15.8013 59.7346 15.7877 59.2189 15.7606 58.9113C15.7335 58.6037 15.6852 58.373 15.6158 58.2192C15.5193 57.999 15.3821 57.8407 15.2042 57.7442C15.0263 57.6477 14.7835 57.5995 14.4759 57.5995C14.1713 57.5995 13.93 57.6477 13.7521 57.7442C13.5741 57.8407 13.4369 57.999 13.3404 58.2192C13.2741 58.3609 13.2273 58.5781 13.2002 58.8706C13.1761 59.1601 13.164 59.6894 13.164 60.4584ZM11.3636 60.4584C11.3636 60.0543 11.442 59.6668 11.5988 59.2958C11.7556 58.9249 11.9833 58.5841 12.2819 58.2735C12.6015 57.9508 12.9408 57.711 13.2997 57.5542C13.6586 57.3974 14.0506 57.319 14.4759 57.319C14.9041 57.319 15.2977 57.3974 15.6566 57.5542C16.0154 57.711 16.3547 57.9508 16.6744 58.2735C16.976 58.5841 17.2052 58.9264 17.362 59.3004C17.5218 59.6713 17.6018 60.0573 17.6018 60.4584C17.6018 60.8686 17.5218 61.2606 17.362 61.6346C17.2052 62.0086 16.976 62.3493 16.6744 62.657C16.3638 62.9766 16.0275 63.2149 15.6656 63.3717C15.3037 63.5255 14.9071 63.6024 14.4759 63.6024C14.0476 63.6024 13.6541 63.5255 13.2952 63.3717C12.9363 63.2149 12.5985 62.9766 12.2819 62.657C11.9833 62.3493 11.7556 62.0086 11.5988 61.6346C11.442 61.2576 11.3636 60.8656 11.3636 60.4584Z" fill="white"/>
<path d="M22.4647 61.4627H24.0978L23.3016 59.3501L22.4647 61.4627ZM20.8634 63.4622V63.1636H21.2343C21.3338 63.1636 21.4168 63.1304 21.4831 63.0641C21.5494 62.9977 21.6173 62.8771 21.6867 62.7022L23.754 57.319H24.1159L26.3778 63.1636H26.9116V63.4622H23.9938V63.1636H24.7266L24.1973 61.7567H22.3652L21.9671 62.7836C21.9581 62.8017 21.9506 62.8304 21.9445 62.8696C21.9415 62.9058 21.94 62.9495 21.94 63.0008C21.94 63.052 21.9626 63.0927 22.0079 63.1229C22.0561 63.15 22.1225 63.1636 22.2069 63.1636H22.7452V63.4622H20.8634Z" fill="white"/>
<path d="M27.8932 63.4622V63.1636H28.6351V57.7171H28.3094C27.9143 57.7171 27.6022 57.8392 27.373 58.0835C27.1468 58.3278 26.9462 58.762 26.7713 59.3863H26.5316L26.6039 57.4411H32.2179L32.2948 59.3863H32.055C31.8891 58.7801 31.6901 58.3504 31.4579 58.0971C31.2257 57.8437 30.9181 57.7171 30.535 57.7171H30.1912V63.1636H30.9331V63.4622H27.8932Z" fill="white"/>
<path d="M32.8512 63.4622V63.1636H33.4709V57.7171H32.8512V57.4411H35.8549V57.7171H35.018V63.1636H35.9002C36.3948 63.1636 36.7823 63.0324 37.0628 62.7701C37.3432 62.5077 37.5634 62.0689 37.7232 61.4537H38.0127L37.9449 63.4622H32.8512Z" fill="white"/>
<path d="M39.691 61.4627H41.3241L40.5279 59.3501L39.691 61.4627ZM38.0896 63.4622V63.1636H38.4606C38.5601 63.1636 38.643 63.1304 38.7094 63.0641C38.7757 62.9977 38.8436 62.8771 38.913 62.7022L40.9803 57.319H41.3422L43.604 63.1636H44.1378V63.4622H41.2201V63.1636H41.9529L41.4236 61.7567H39.5915L39.1934 62.7836C39.1844 62.8017 39.1768 62.8304 39.1708 62.8696C39.1678 62.9058 39.1663 62.9495 39.1663 63.0008C39.1663 63.052 39.1889 63.0927 39.2341 63.1229C39.2824 63.15 39.3487 63.1636 39.4332 63.1636H39.9715V63.4622H38.0896Z" fill="white"/>
<path d="M44.4274 63.4622V63.1636H44.8933C45.0139 63.1636 45.0969 63.138 45.1421 63.0867C45.1904 63.0324 45.2145 62.9284 45.2145 62.7746V58.0337C45.2145 57.9041 45.1889 57.8196 45.1376 57.7804C45.0863 57.7382 44.9793 57.7171 44.8164 57.7171H44.4455V57.4411H46.8837L49.4215 60.9063V58.1649C49.4215 57.981 49.3929 57.8603 49.3356 57.803C49.2813 57.7457 49.1622 57.7171 48.9782 57.7171H48.5892V57.4411H50.5163V57.7171H50.1634C50.0126 57.7171 49.9086 57.7487 49.8513 57.8121C49.794 57.8724 49.7653 57.99 49.7653 58.1649V63.6024H49.5165L45.5764 58.183V62.8334C45.5764 62.9389 45.605 63.0204 45.6623 63.0777C45.7226 63.135 45.8086 63.1636 45.9202 63.1636H46.4585V63.4622H44.4274Z" fill="white"/>
<path d="M52.3393 63.4622V63.1636H53.0812V57.7171H52.7555C52.3604 57.7171 52.0483 57.8392 51.8191 58.0835C51.5929 58.3278 51.3924 58.762 51.2174 59.3863H50.9777L51.0501 57.4411H56.664L56.7409 59.3863H56.5011C56.3353 58.7801 56.1362 58.3504 55.904 58.0971C55.6718 57.8437 55.3642 57.7171 54.9812 57.7171H54.6374V63.1636H55.3793V63.4622H52.3393Z" fill="white"/>
<path d="M57.1571 63.4622V63.1636H57.899V57.7171H57.1571V57.4411H60.197V57.7171H59.4551V63.1636H60.197V63.4622H57.1571Z" fill="white"/>
<path d="M66.0145 61.6572V63.4622H65.7159L65.3088 63.1274C65.1309 63.2873 64.9198 63.4079 64.6755 63.4893C64.4342 63.5708 64.1643 63.6115 63.8657 63.6115C63.4526 63.6115 63.0741 63.5315 62.7303 63.3717C62.3865 63.2119 62.0668 62.9676 61.7713 62.6389C61.4787 62.3192 61.2601 61.9784 61.1153 61.6165C60.9706 61.2516 60.8982 60.8626 60.8982 60.4494C60.8982 60.0423 60.9706 59.6593 61.1153 59.3004C61.2631 58.9385 61.4848 58.5962 61.7803 58.2735C62.0759 57.9508 62.3986 57.7095 62.7484 57.5497C63.0982 57.3899 63.4797 57.3099 63.8929 57.3099C64.1462 57.3099 64.386 57.3461 64.6122 57.4185C64.8383 57.4909 65.0555 57.5995 65.2636 57.7442L65.5893 57.4321H65.8924L65.9286 59.0968H65.6074C65.4083 58.563 65.1731 58.1785 64.9017 57.9433C64.6302 57.708 64.288 57.5904 63.8748 57.5904C63.4104 57.5904 63.0952 57.7427 62.9293 58.0473C62.7635 58.3519 62.6805 59.1164 62.6805 60.3408C62.6805 60.9862 62.6881 61.4687 62.7032 61.7884C62.7182 62.1081 62.7439 62.3388 62.7801 62.4805C62.8554 62.7821 62.9791 62.9993 63.151 63.132C63.3229 63.2646 63.5642 63.331 63.8748 63.331C64.3 63.331 64.68 63.1757 65.0148 62.8651C65.3525 62.5514 65.5712 62.1488 65.6707 61.6572H66.0145Z" fill="white"/>
<path d="M69.7375 63.4622V63.1636H70.3573V57.7171H69.7375V57.4411H72.7413V57.7171H71.9044V63.1636H72.7865C73.2811 63.1636 73.6686 63.0324 73.9491 62.7701C74.2296 62.5077 74.4497 62.0689 74.6096 61.4537H74.8991L74.8312 63.4622H69.7375Z" fill="white"/>
<path d="M75.8174 63.4622V63.1636H76.5593V57.7171H76.2336C75.8385 57.7171 75.5264 57.8392 75.2972 58.0835C75.071 58.3278 74.8704 58.762 74.6955 59.3863H74.4557L74.5281 57.4411H80.1421L80.219 59.3863H79.9792C79.8133 58.7801 79.6143 58.3504 79.3821 58.0971C79.1499 57.8437 78.8422 57.7171 78.4592 57.7171H78.1154V63.1636H78.8573V63.4622H75.8174Z" fill="white"/>
<path d="M80.7392 63.1636H81.472V57.7171H80.7392V57.4411H83.8244C84.2647 57.4411 84.6416 57.4833 84.9553 57.5678C85.2689 57.6522 85.5554 57.7894 85.8148 57.9794C86.1857 58.2448 86.4753 58.5962 86.6833 59.0335C86.8944 59.4708 87 59.9427 87 60.4494C87 60.9591 86.8929 61.4341 86.6788 61.8744C86.4647 62.3147 86.1676 62.6705 85.7876 62.942C85.5373 63.1199 85.2493 63.2511 84.9236 63.3355C84.5979 63.42 84.2194 63.4622 83.7882 63.4622H80.7392V63.1636ZM82.9875 63.1636H83.7565C84.1033 63.1636 84.3551 63.138 84.512 63.0867C84.6688 63.0354 84.8 62.945 84.9055 62.8153C85.0412 62.6494 85.1362 62.4202 85.1905 62.1277C85.2478 61.8352 85.2765 61.3933 85.2765 60.8022V60.377C85.2765 59.7135 85.2569 59.2385 85.2177 58.952C85.1815 58.6655 85.1181 58.4363 85.0277 58.2644C84.9191 58.0624 84.7774 57.9206 84.6024 57.8392C84.4305 57.7578 84.1486 57.7171 83.7565 57.7171H82.9875V63.1636Z" fill="white"/>
<path d="M9.54834 71.8033C9.54834 71.7211 9.57659 71.6518 9.63308 71.5953C9.69128 71.5371 9.76146 71.508 9.84363 71.508C9.9258 71.508 9.99513 71.5371 10.0516 71.5953C10.1098 71.6518 10.1389 71.7211 10.1389 71.8033C10.1389 71.8854 10.1107 71.9539 10.0542 72.0087C9.9977 72.0635 9.92751 72.0909 9.84363 72.0909C9.75975 72.0909 9.68957 72.0635 9.63308 72.0087C9.57659 71.9539 9.54834 71.8854 9.54834 71.8033Z" fill="white"/>
<path d="M11.0633 71.8033C11.0633 71.7211 11.0916 71.6518 11.148 71.5953C11.2062 71.5371 11.2764 71.508 11.3586 71.508C11.4408 71.508 11.5101 71.5371 11.5666 71.5953C11.6248 71.6518 11.6539 71.7211 11.6539 71.8033C11.6539 71.8854 11.6256 71.9539 11.5692 72.0087C11.5127 72.0635 11.4425 72.0909 11.3586 72.0909C11.2747 72.0909 11.2045 72.0635 11.148 72.0087C11.0916 71.9539 11.0633 71.8854 11.0633 71.8033Z" fill="white"/>
<path d="M12.5783 71.8033C12.5783 71.7211 12.6065 71.6518 12.663 71.5953C12.7212 71.5371 12.7914 71.508 12.8736 71.508C12.9557 71.508 13.0251 71.5371 13.0816 71.5953C13.1398 71.6518 13.1689 71.7211 13.1689 71.8033C13.1689 71.8854 13.1406 71.9539 13.0841 72.0087C13.0276 72.0635 12.9575 72.0909 12.8736 72.0909C12.7897 72.0909 12.7195 72.0635 12.663 72.0087C12.6065 71.9539 12.5783 71.8854 12.5783 71.8033Z" fill="white"/>
<path d="M15.1358 71.7648C15.3634 71.7648 15.5569 71.6698 15.7161 71.4797C15.8753 71.2897 15.9549 71.0535 15.9549 70.771C15.9549 70.5331 15.8924 70.3405 15.7674 70.1933C15.6442 70.0461 15.4824 69.9725 15.2821 69.9725C15.0219 69.9725 14.8097 70.0649 14.6453 70.2498C14.481 70.433 14.3988 70.6683 14.3988 70.9559C14.3988 71.1973 14.4664 71.3924 14.6017 71.5414C14.7386 71.6903 14.9166 71.7648 15.1358 71.7648ZM16.3195 68.0646H16.7278L16.2014 72.0446H15.7931L15.8496 71.6929C15.7366 71.8452 15.6099 71.9582 15.4696 72.0318C15.3309 72.1037 15.1717 72.1397 14.992 72.1397C14.6924 72.1397 14.4485 72.0301 14.2602 71.811C14.0719 71.5919 13.9777 71.3068 13.9777 70.9559C13.9777 70.5673 14.0924 70.2464 14.3218 69.993C14.5512 69.738 14.8396 69.6104 15.1871 69.6104C15.396 69.6104 15.5714 69.6566 15.7135 69.7491C15.8556 69.8415 15.966 69.981 16.0447 70.1676L16.3195 68.0646Z" fill="white"/>
<path d="M17.3569 68.5833C17.3569 68.508 17.3842 68.443 17.439 68.3882C17.4955 68.3334 17.5623 68.306 17.6393 68.306C17.7181 68.306 17.784 68.3334 17.837 68.3882C17.8918 68.4412 17.9192 68.5063 17.9192 68.5833C17.9192 68.6638 17.8918 68.7314 17.837 68.7862C17.784 68.841 17.7181 68.8683 17.6393 68.8683C17.5623 68.8683 17.4955 68.841 17.439 68.7862C17.3842 68.7297 17.3569 68.6621 17.3569 68.5833ZM17.0205 72.0446L17.3312 69.6952H17.7395L17.4288 72.0446H17.0205Z" fill="white"/>
<path d="M19.3982 71.734C19.6259 71.734 19.8193 71.6398 19.9785 71.4515C20.1377 71.2632 20.2173 71.0295 20.2173 70.7505C20.2173 70.5143 20.1548 70.3243 20.0299 70.1805C19.9066 70.035 19.7449 69.9622 19.5446 69.9622C19.2844 69.9622 19.0713 70.0529 18.9052 70.2344C18.7392 70.4158 18.6561 70.6478 18.6561 70.9302C18.6561 71.1682 18.7246 71.3616 18.8616 71.5106C19.0002 71.6595 19.1791 71.734 19.3982 71.734ZM20.3714 69.6952H20.7745L20.5383 71.5619C20.5332 71.5996 20.5263 71.6535 20.5178 71.7237C20.4613 72.1893 20.3825 72.5051 20.2815 72.6712C20.1754 72.8475 20.0402 72.975 19.8758 73.0538C19.7132 73.1342 19.5009 73.1745 19.239 73.1745C18.9257 73.1745 18.6741 73.088 18.4841 72.9151C18.2958 72.7422 18.1991 72.5103 18.1939 72.2193L18.5971 72.1653C18.6039 72.381 18.6707 72.5471 18.7974 72.6635C18.9257 72.7799 19.1046 72.8381 19.334 72.8381C19.5412 72.8381 19.7081 72.7662 19.8347 72.6224C19.9631 72.4803 20.0419 72.2775 20.071 72.0138L20.112 71.6544C19.9991 71.8067 19.8724 71.9197 19.732 71.9933C19.5934 72.0669 19.435 72.1037 19.257 72.1037C18.9608 72.1037 18.7169 71.9967 18.5252 71.7827C18.3352 71.567 18.2402 71.2914 18.2402 70.9559C18.2402 70.569 18.3549 70.2481 18.5842 69.993C18.8153 69.738 19.1038 69.6104 19.4496 69.6104C19.6584 69.6104 19.8347 69.6566 19.9785 69.7491C20.1223 69.8398 20.2319 69.9759 20.3072 70.1574L20.3714 69.6952Z" fill="white"/>
<path d="M21.609 68.5833C21.609 68.508 21.6364 68.443 21.6912 68.3882C21.7477 68.3334 21.8145 68.306 21.8915 68.306C21.9702 68.306 22.0361 68.3334 22.0892 68.3882C22.144 68.4412 22.1714 68.5063 22.1714 68.5833C22.1714 68.6638 22.144 68.7314 22.0892 68.7862C22.0361 68.841 21.9702 68.8683 21.8915 68.8683C21.8145 68.8683 21.7477 68.841 21.6912 68.7862C21.6364 68.7297 21.609 68.6621 21.609 68.5833ZM21.2727 72.0446L21.5834 69.6952H21.9916L21.6809 72.0446H21.2727Z" fill="white"/>
<path d="M22.6233 72.0446L22.8878 70.0367H22.4513L22.4975 69.6952H22.934L23.0547 68.7477H23.4707L23.3448 69.6952H23.861L23.8173 70.0367H23.2986L23.0341 72.0446H22.6233Z" fill="white"/>
<path d="M25.1602 71.7648C25.3896 71.7648 25.5831 71.6698 25.7405 71.4797C25.8997 71.2897 25.9793 71.0535 25.9793 70.771C25.9793 70.5331 25.9169 70.3405 25.7919 70.1933C25.6687 70.0461 25.5069 69.9725 25.3066 69.9725C25.0464 69.9725 24.8333 70.0649 24.6672 70.2498C24.5012 70.4347 24.4182 70.67 24.4182 70.9559C24.4182 71.1973 24.4866 71.3924 24.6236 71.5414C24.7622 71.6903 24.9411 71.7648 25.1602 71.7648ZM26.1334 69.6952H26.5366L26.2284 72.0446H25.8176L25.8741 71.6929C25.7611 71.8452 25.6344 71.9582 25.494 72.0318C25.3554 72.1037 25.197 72.1397 25.019 72.1397C24.7177 72.1397 24.4729 72.0301 24.2846 71.811C24.0963 71.5919 24.0022 71.3068 24.0022 70.9559C24.0022 70.5673 24.1169 70.2464 24.3463 69.993C24.5756 69.738 24.8641 69.6104 25.2116 69.6104C25.4204 69.6104 25.5959 69.6566 25.738 69.7491C25.8801 69.8415 25.9905 69.981 26.0692 70.1676L26.1334 69.6952Z" fill="white"/>
<path d="M27.443 72.0446H27.0296L27.5534 68.0646H27.9642L27.443 72.0446Z" fill="white"/>
<path d="M28.7114 72.0446H28.298L28.8218 68.0646H29.2327L28.7114 72.0446Z" fill="white"/>
<path d="M29.3559 73.1899L30.175 71.7879L29.5331 69.6952H29.9696L30.4549 71.3719L31.369 69.6952H31.8364L29.813 73.1899H29.3559Z" fill="white"/>
<path d="M33.6133 72.0446L33.8777 70.0367H33.4412L33.4874 69.6952H33.924L34.0446 68.7477H34.4606L34.3348 69.6952H34.8509L34.8073 70.0367H34.2886L34.0241 72.0446H33.6133Z" fill="white"/>
<path d="M36.4968 70.0778C36.4523 70.0555 36.407 70.0384 36.3607 70.0264C36.3145 70.0144 36.2683 70.0084 36.2221 70.0084C36.0423 70.0084 35.8994 70.0837 35.7933 70.2344C35.6889 70.385 35.6152 70.6187 35.5724 70.9354L35.4235 72.0446H35.0255L35.3336 69.6952H35.7394L35.6752 70.0675C35.783 69.9083 35.8917 69.7927 36.0013 69.7208C36.1125 69.6472 36.2341 69.6104 36.3659 69.6104C36.4035 69.6104 36.4421 69.6147 36.4814 69.6233C36.5225 69.6318 36.5627 69.6447 36.6021 69.6618L36.4968 70.0778Z" fill="white"/>
<path d="M37.9271 71.7648C38.1565 71.7648 38.3499 71.6698 38.5074 71.4797C38.6666 71.2897 38.7462 71.0535 38.7462 70.771C38.7462 70.5331 38.6837 70.3405 38.5587 70.1933C38.4355 70.0461 38.2737 69.9725 38.0734 69.9725C37.8132 69.9725 37.6001 70.0649 37.4341 70.2498C37.268 70.4347 37.185 70.67 37.185 70.9559C37.185 71.1973 37.2535 71.3924 37.3904 71.5414C37.5291 71.6903 37.708 71.7648 37.9271 71.7648ZM38.9002 69.6952H39.3034L38.9953 72.0446H38.5844L38.6409 71.6929C38.5279 71.8452 38.4012 71.9582 38.2609 72.0318C38.1222 72.1037 37.9639 72.1397 37.7858 72.1397C37.4846 72.1397 37.2398 72.0301 37.0515 71.811C36.8632 71.5919 36.769 71.3068 36.769 70.9559C36.769 70.5673 36.8837 70.2464 37.1131 69.993C37.3425 69.738 37.6309 69.6104 37.9784 69.6104C38.1873 69.6104 38.3627 69.6566 38.5048 69.7491C38.6469 69.8415 38.7573 69.981 38.8361 70.1676L38.9002 69.6952Z" fill="white"/>
<path d="M39.7861 72.0446L40.0942 69.6952H40.4845L40.4306 70.0778C40.5624 69.9186 40.7002 69.8013 40.844 69.726C40.9878 69.6489 41.1453 69.6104 41.3165 69.6104C41.5407 69.6104 41.7179 69.6721 41.848 69.7953C41.9798 69.9186 42.0457 70.0863 42.0457 70.2986C42.0457 70.3362 42.044 70.3773 42.0406 70.4218C42.0372 70.4663 42.032 70.5126 42.0252 70.5605L41.83 72.0446H41.4192L41.6041 70.6041C41.6058 70.5922 41.6075 70.5759 41.6092 70.5554C41.6195 70.4715 41.6246 70.4158 41.6246 70.3885C41.6246 70.2481 41.5818 70.1411 41.4962 70.0675C41.4106 69.9939 41.2857 69.9571 41.1213 69.9571C40.9057 69.9571 40.7319 70.0341 40.6001 70.1882C40.4683 70.3405 40.3827 70.5631 40.3433 70.8558L40.1841 72.0446H39.7861Z" fill="white"/>
<path d="M42.4566 71.7031L42.7185 71.3924C42.8041 71.5311 42.9008 71.6355 43.0086 71.7057C43.1182 71.7742 43.2389 71.8084 43.3707 71.8084C43.5179 71.8084 43.6343 71.775 43.7199 71.7083C43.8072 71.6398 43.8509 71.5482 43.8509 71.4335C43.8509 71.3051 43.7293 71.1853 43.4862 71.074C43.4246 71.0449 43.3758 71.021 43.3399 71.0021C43.1156 70.8943 42.9667 70.7942 42.8931 70.7017C42.8195 70.6093 42.7827 70.4929 42.7827 70.3525C42.7827 70.1368 42.8623 69.9596 43.0215 69.821C43.1807 69.6806 43.3852 69.6104 43.6352 69.6104C43.7927 69.6104 43.9382 69.6395 44.0717 69.6977C44.2052 69.7559 44.3259 69.8424 44.4337 69.9571L44.1872 70.2524C44.1153 70.1565 44.0306 70.0846 43.933 70.0367C43.8355 69.987 43.7268 69.9622 43.6069 69.9622C43.4888 69.9622 43.3887 69.9964 43.3065 70.0649C43.2243 70.1317 43.1832 70.2113 43.1832 70.3037C43.1832 70.4304 43.3288 70.5562 43.6198 70.6812L43.6609 70.6991C43.8919 70.7984 44.0469 70.8969 44.1256 70.9944C44.2044 71.092 44.2437 71.2195 44.2437 71.377C44.2437 71.615 44.1667 71.8024 44.0126 71.9394C43.8586 72.0763 43.648 72.1448 43.381 72.1448C43.1824 72.1448 43.0078 72.1088 42.8571 72.0369C42.7065 71.965 42.573 71.8538 42.4566 71.7031Z" fill="white"/>
<path d="M44.9499 72.0446L45.2118 70.0367H44.7804L44.824 69.6952H45.2606L45.3504 69.0044C45.4001 68.6244 45.4771 68.3651 45.5815 68.2264C45.6877 68.086 45.8503 68.0159 46.0694 68.0159C46.1362 68.0159 46.1995 68.0236 46.2594 68.039C46.321 68.0527 46.3827 68.0749 46.4443 68.1057L46.375 68.4626C46.3013 68.4301 46.2449 68.4087 46.2055 68.3984C46.1661 68.3865 46.131 68.3805 46.1002 68.3805C46.0043 68.3805 45.9333 68.4164 45.8871 68.4883C45.8409 68.5602 45.8015 68.7186 45.769 68.9634L45.6714 69.6952H46.1901L46.1439 70.0367H45.6277L45.3658 72.0446H44.9499Z" fill="white"/>
<path d="M47.6665 69.9417C47.408 69.9417 47.1941 70.0375 47.0246 70.2293C46.8568 70.4193 46.773 70.6615 46.773 70.9559C46.773 71.2144 46.8457 71.4233 46.9912 71.5825C47.1384 71.7399 47.3319 71.8187 47.5715 71.8187C47.8283 71.8187 48.0406 71.7237 48.2083 71.5337C48.3761 71.3437 48.46 71.1023 48.46 70.8096C48.46 70.5562 48.3855 70.3482 48.2366 70.1856C48.0894 70.023 47.8993 69.9417 47.6665 69.9417ZM46.3621 70.9662C46.3621 70.581 46.4888 70.2592 46.7421 70.0007C46.9955 69.7405 47.3105 69.6104 47.6871 69.6104C48.0277 69.6104 48.3093 69.7183 48.5319 69.934C48.7544 70.1479 48.8657 70.415 48.8657 70.7351C48.8657 71.1528 48.7424 71.4926 48.4959 71.7545C48.2511 72.0147 47.9344 72.1448 47.5458 72.1448C47.1881 72.1448 46.9013 72.0369 46.6857 71.8213C46.47 71.6056 46.3621 71.3205 46.3621 70.9662Z" fill="white"/>
<path d="M50.794 70.0778C50.7495 70.0555 50.7042 70.0384 50.658 70.0264C50.6117 70.0144 50.5655 70.0084 50.5193 70.0084C50.3396 70.0084 50.1966 70.0837 50.0905 70.2344C49.9861 70.385 49.9125 70.6187 49.8697 70.9354L49.7207 72.0446H49.3227L49.6309 69.6952H50.0366L49.9724 70.0675C50.0802 69.9083 50.1889 69.7927 50.2985 69.7208C50.4097 69.6472 50.5313 69.6104 50.6631 69.6104C50.7008 69.6104 50.7393 69.6147 50.7786 69.6233C50.8197 69.6318 50.86 69.6447 50.8993 69.6618L50.794 70.0778Z" fill="white"/>
<path d="M52.5555 72.0446L52.7455 70.6016C52.7507 70.5656 52.7541 70.5297 52.7558 70.4937C52.7592 70.4578 52.7609 70.4227 52.7609 70.3885C52.7609 70.2464 52.7241 70.1394 52.6505 70.0675C52.5786 69.9939 52.4716 69.9571 52.3296 69.9571C52.1447 69.9571 51.9966 70.0324 51.8853 70.183C51.7758 70.332 51.7013 70.5562 51.6619 70.8558L51.5027 72.0446H51.0996L51.4129 69.6952H51.8032L51.7493 70.0572C51.8605 69.9066 51.9821 69.7944 52.1139 69.7208C52.2457 69.6472 52.3895 69.6104 52.5452 69.6104C52.7027 69.6104 52.8363 69.6498 52.9458 69.7285C53.0554 69.8056 53.1281 69.9134 53.1641 70.0521C53.2822 69.9049 53.4106 69.7944 53.5492 69.7208C53.6896 69.6472 53.8385 69.6104 53.996 69.6104C54.1963 69.6104 54.3547 69.6721 54.4711 69.7953C54.5892 69.9186 54.6482 70.0863 54.6482 70.2986C54.6482 70.3482 54.6422 70.427 54.6303 70.5348C54.6285 70.5468 54.6277 70.5554 54.6277 70.5605L54.4325 72.0446H54.0217L54.2117 70.6041C54.2169 70.5682 54.2203 70.5322 54.222 70.4963C54.2254 70.4603 54.2271 70.4244 54.2271 70.3885C54.2271 70.2464 54.1903 70.1394 54.1167 70.0675C54.0448 69.9939 53.9378 69.9571 53.7957 69.9571C53.6057 69.9571 53.4568 70.029 53.349 70.1728C53.2428 70.3166 53.1692 70.5442 53.1281 70.8558L52.9715 72.0446H52.5555Z" fill="white"/>
<path d="M55.5855 68.5833C55.5855 68.508 55.6129 68.443 55.6676 68.3882C55.7241 68.3334 55.7909 68.306 55.8679 68.306C55.9467 68.306 56.0126 68.3334 56.0656 68.3882C56.1204 68.4412 56.1478 68.5063 56.1478 68.5833C56.1478 68.6638 56.1204 68.7314 56.0656 68.7862C56.0126 68.841 55.9467 68.8683 55.8679 68.8683C55.7909 68.8683 55.7241 68.841 55.6676 68.7862C55.6129 68.7297 55.5855 68.6621 55.5855 68.5833ZM55.2491 72.0446L55.5598 69.6952H55.9681L55.6574 72.0446H55.2491Z" fill="white"/>
<path d="M56.5021 72.0446L56.8103 69.6952H57.2006L57.1467 70.0778C57.2785 69.9186 57.4163 69.8013 57.5601 69.726C57.7039 69.6489 57.8613 69.6104 58.0325 69.6104C58.2568 69.6104 58.434 69.6721 58.5641 69.7953C58.6959 69.9186 58.7618 70.0863 58.7618 70.2986C58.7618 70.3362 58.7601 70.3773 58.7566 70.4218C58.7532 70.4663 58.7481 70.5126 58.7412 70.5605L58.5461 72.0446H58.1352L58.3201 70.6041C58.3218 70.5922 58.3235 70.5759 58.3252 70.5554C58.3355 70.4715 58.3407 70.4158 58.3407 70.3885C58.3407 70.2481 58.2979 70.1411 58.2123 70.0675C58.1267 69.9939 58.0017 69.9571 57.8374 69.9571C57.6217 69.9571 57.4479 70.0341 57.3161 70.1882C57.1843 70.3405 57.0987 70.5631 57.0593 70.8558L56.9002 72.0446H56.5021Z" fill="white"/>
<path d="M60.477 71.734C60.7047 71.734 60.8981 71.6398 61.0573 71.4515C61.2165 71.2632 61.2961 71.0295 61.2961 70.7505C61.2961 70.5143 61.2337 70.3243 61.1087 70.1805C60.9854 70.035 60.8237 69.9622 60.6234 69.9622C60.3632 69.9622 60.1501 70.0529 59.984 70.2344C59.818 70.4158 59.7349 70.6478 59.7349 70.9302C59.7349 71.1682 59.8034 71.3616 59.9404 71.5106C60.079 71.6595 60.2579 71.734 60.477 71.734ZM61.4502 69.6952H61.8533L61.6171 71.5619C61.612 71.5996 61.6051 71.6535 61.5966 71.7237C61.5401 72.1893 61.4613 72.5051 61.3603 72.6712C61.2542 72.8475 61.119 72.975 60.9546 73.0538C60.792 73.1342 60.5797 73.1745 60.3178 73.1745C60.0046 73.1745 59.7529 73.088 59.5629 72.9151C59.3746 72.7422 59.2779 72.5103 59.2727 72.2193L59.6759 72.1653C59.6827 72.381 59.7495 72.5471 59.8762 72.6635C60.0046 72.7799 60.1834 72.8381 60.4128 72.8381C60.62 72.8381 60.7869 72.7662 60.9135 72.6224C61.0419 72.4803 61.1207 72.2775 61.1498 72.0138L61.1909 71.6544C61.0779 71.8067 60.9512 71.9197 60.8108 71.9933C60.6722 72.0669 60.5138 72.1037 60.3358 72.1037C60.0396 72.1037 59.7957 71.9967 59.604 71.7827C59.414 71.567 59.319 71.2914 59.319 70.9559C59.319 70.569 59.4337 70.2481 59.663 69.993C59.8941 69.738 60.1826 69.6104 60.5284 69.6104C60.7372 69.6104 60.9135 69.6566 61.0573 69.7491C61.2011 69.8398 61.3107 69.9759 61.386 70.1574L61.4502 69.6952Z" fill="white"/>
<path d="M64.2747 72.0446H63.8613L64.3851 68.0646H64.796L64.2747 72.0446Z" fill="white"/>
<path d="M65.4713 68.5833C65.4713 68.508 65.4987 68.443 65.5535 68.3882C65.6099 68.3334 65.6767 68.306 65.7537 68.306C65.8325 68.306 65.8984 68.3334 65.9515 68.3882C66.0062 68.4412 66.0336 68.5063 66.0336 68.5833C66.0336 68.6638 66.0062 68.7314 65.9515 68.7862C65.8984 68.841 65.8325 68.8683 65.7537 68.8683C65.6767 68.8683 65.6099 68.841 65.5535 68.7862C65.4987 68.7297 65.4713 68.6621 65.4713 68.5833ZM65.1349 72.0446L65.4456 69.6952H65.8539L65.5432 72.0446H65.1349Z" fill="white"/>
<path d="M66.2647 69.6952H66.7012L67.2071 71.3282L68.1392 69.6952H68.6065L67.0967 72.1859L66.2647 69.6952Z" fill="white"/>
<path d="M70.9688 70.9379L69.0867 70.9405V70.9816C69.0867 71.2332 69.1509 71.4318 69.2793 71.5773C69.4076 71.7211 69.5831 71.793 69.8056 71.793C69.9443 71.793 70.0718 71.7596 70.1882 71.6929C70.3046 71.6261 70.4176 71.5225 70.5272 71.3822L70.8096 71.6133C70.6727 71.7913 70.522 71.9248 70.3577 72.0138C70.1934 72.1011 70.0145 72.1448 69.821 72.1448C69.4701 72.1448 69.1911 72.0395 68.984 71.829C68.7785 71.6167 68.6758 71.3308 68.6758 70.9713C68.6758 70.5793 68.7957 70.2549 69.0353 69.9982C69.275 69.7397 69.5754 69.6104 69.9366 69.6104C70.2653 69.6104 70.5203 69.7106 70.7018 69.9109C70.8832 70.1111 70.974 70.3927 70.974 70.7556C70.974 70.8053 70.9731 70.8429 70.9714 70.8686C70.9714 70.8943 70.9705 70.9174 70.9688 70.9379ZM70.5785 70.6041C70.5751 70.3919 70.5169 70.2284 70.4039 70.1137C70.2927 69.999 70.1352 69.9417 69.9315 69.9417C69.7295 69.9417 69.5549 70.0016 69.4076 70.1214C69.2621 70.2412 69.1671 70.4021 69.1226 70.6041H70.5785Z" fill="white"/>
<path d="M71.2307 71.7031L71.4927 71.3924C71.5782 71.5311 71.675 71.6355 71.7828 71.7057C71.8924 71.7742 72.0131 71.8084 72.1449 71.8084C72.2921 71.8084 72.4085 71.775 72.4941 71.7083C72.5814 71.6398 72.625 71.5482 72.625 71.4335C72.625 71.3051 72.5035 71.1853 72.2604 71.074C72.1988 71.0449 72.15 71.021 72.114 71.0021C71.8898 70.8943 71.7409 70.7942 71.6673 70.7017C71.5937 70.6093 71.5568 70.4929 71.5568 70.3525C71.5568 70.1368 71.6364 69.9596 71.7956 69.821C71.9548 69.6806 72.1594 69.6104 72.4093 69.6104C72.5668 69.6104 72.7123 69.6395 72.8459 69.6977C72.9794 69.7559 73.1001 69.8424 73.2079 69.9571L72.9614 70.2524C72.8895 70.1565 72.8048 70.0846 72.7072 70.0367C72.6096 69.987 72.5009 69.9622 72.3811 69.9622C72.263 69.9622 72.1628 69.9964 72.0807 70.0649C71.9985 70.1317 71.9574 70.2113 71.9574 70.3037C71.9574 70.4304 72.1029 70.5562 72.3939 70.6812L72.435 70.6991C72.6661 70.7984 72.821 70.8969 72.8998 70.9944C72.9785 71.092 73.0179 71.2195 73.0179 71.377C73.0179 71.615 72.9409 71.8024 72.7868 71.9394C72.6327 72.0763 72.4222 72.1448 72.1551 72.1448C71.9566 72.1448 71.782 72.1088 71.6313 72.0369C71.4807 71.965 71.3471 71.8538 71.2307 71.7031Z" fill="white"/>
<path d="M73.6393 71.8033C73.6393 71.7211 73.6675 71.6518 73.724 71.5953C73.7822 71.5371 73.8524 71.508 73.9346 71.508C74.0167 71.508 74.0861 71.5371 74.1426 71.5953C74.2008 71.6518 74.2299 71.7211 74.2299 71.8033C74.2299 71.8854 74.2016 71.9539 74.1451 72.0087C74.0886 72.0635 74.0185 72.0909 73.9346 72.0909C73.8507 72.0909 73.7805 72.0635 73.724 72.0087C73.6675 71.9539 73.6393 71.8854 73.6393 71.8033Z" fill="white"/>
<path d="M75.1543 71.8033C75.1543 71.7211 75.1825 71.6518 75.239 71.5953C75.2972 71.5371 75.3674 71.508 75.4495 71.508C75.5317 71.508 75.601 71.5371 75.6575 71.5953C75.7157 71.6518 75.7448 71.7211 75.7448 71.8033C75.7448 71.8854 75.7166 71.9539 75.6601 72.0087C75.6036 72.0635 75.5334 72.0909 75.4495 72.0909C75.3657 72.0909 75.2955 72.0635 75.239 72.0087C75.1825 71.9539 75.1543 71.8854 75.1543 71.8033Z" fill="white"/>
<path d="M76.6692 71.8033C76.6692 71.7211 76.6975 71.6518 76.754 71.5953C76.8122 71.5371 76.8823 71.508 76.9645 71.508C77.0467 71.508 77.116 71.5371 77.1725 71.5953C77.2307 71.6518 77.2598 71.7211 77.2598 71.8033C77.2598 71.8854 77.2316 71.9539 77.1751 72.0087C77.1186 72.0635 77.0484 72.0909 76.9645 72.0909C76.8806 72.0909 76.8104 72.0635 76.754 72.0087C76.6975 71.9539 76.6692 71.8854 76.6692 71.8033Z" fill="white"/>
</svg>
