<svg width="211" height="59" viewBox="0 0 211 59" fill="none" xmlns="http://www.w3.org/2000/svg">
<g clip-path="url(#clip0_721_813)">
<path d="M74.4146 25.2883C75.7326 25.2685 77.0416 25.5061 78.2672 25.9875C79.3949 26.4274 80.4187 27.094 81.2742 27.9454C82.114 28.8267 82.7547 29.8755 83.1536 31.022C83.626 32.3051 83.8493 33.6654 83.8114 35.0309C83.8489 36.4268 83.6258 37.8176 83.1536 39.1331C82.7547 40.2795 82.114 41.3284 81.2742 42.2097C80.4187 43.0611 79.3949 43.7277 78.2672 44.1676C77.0416 44.649 75.7326 44.8865 74.4146 44.8668C73.0814 44.8866 71.7568 44.6492 70.5149 44.1676C69.3872 43.7277 68.3635 43.0611 67.508 42.2097C66.6694 41.319 66.0149 40.2737 65.5817 39.1331C65.1315 37.8121 64.909 36.4253 64.9238 35.0309C64.9087 33.667 65.1313 32.3107 65.5817 31.022C66.0149 29.8813 66.6694 28.8361 67.508 27.9454C68.3635 27.094 69.3872 26.4274 70.5149 25.9875C71.7568 25.506 73.0814 25.2684 74.4146 25.2883ZM74.4146 41.324C75.0892 41.3777 75.7665 41.2604 76.3829 40.9832C76.9992 40.7059 77.5345 40.2779 77.9384 39.7391C78.6809 38.2956 79.0679 36.6981 79.0679 35.0776C79.0679 33.457 78.6809 31.8595 77.9384 30.416C77.4974 29.9122 76.9524 29.5081 76.3404 29.2313C75.7284 28.9544 75.0637 28.8111 74.3911 28.8111C73.7185 28.8111 73.0538 28.9544 72.4418 29.2313C71.8299 29.5081 71.2849 29.9122 70.8438 30.416C69.9696 31.8093 69.5588 33.44 69.6692 35.0776C69.5523 36.7157 69.9636 38.3483 70.8438 39.7391C71.252 40.285 71.7948 40.7175 72.4202 40.9951C73.0455 41.2726 73.7324 41.3859 74.4146 41.324Z" fill="#F5F8FF"/>
<path d="M87.429 44.8209V25.8483H90.1071C90.4677 25.8174 90.829 25.8989 91.1407 26.0814C91.3291 26.3417 91.4428 26.6478 91.4696 26.9671L91.7515 29.2513C92.3728 28.196 93.1851 27.2637 94.1476 26.501C95.0373 25.826 96.1286 25.4651 97.2486 25.4755C98.0803 25.4507 98.8999 25.6784 99.5977 26.1281L99.034 29.531C99.0092 29.7313 98.9084 29.9147 98.7521 30.0438C98.6001 30.0971 98.4342 30.0971 98.2822 30.0438H97.4836C97.0626 29.9869 96.6358 29.9869 96.2149 30.0438C95.3337 30.0264 94.4725 30.3057 93.7718 30.8362C93.0128 31.4451 92.4159 32.2294 92.0334 33.1204V44.8209H87.429Z" fill="#F5F8FF"/>
<path d="M107.538 17.084V44.8202H102.84V17.3171L107.538 17.084Z" fill="#F5F8FF"/>
<path d="M126.191 44.8202C125.927 44.8393 125.664 44.7657 125.45 44.6123C125.235 44.4589 125.081 44.2356 125.016 43.9812L124.64 42.1631C124.269 42.5873 123.86 42.9773 123.419 43.3285C122.983 43.6869 122.51 43.9994 122.009 44.2609C121.492 44.5386 120.939 44.7425 120.365 44.8668C119.741 44.9439 119.109 44.9439 118.485 44.8668C117.492 44.8887 116.508 44.666 115.623 44.2186C114.738 43.7711 113.977 43.113 113.411 42.303C112.714 41.4071 112.218 40.3741 111.955 39.273C111.574 37.9235 111.4 36.525 111.438 35.1242C111.427 33.7983 111.617 32.4784 112.002 31.2085C112.345 30.0732 112.903 29.0132 113.646 28.0853C114.36 27.2244 115.238 26.5116 116.23 25.9876C117.305 25.4954 118.476 25.2409 119.66 25.2417C120.594 25.2267 121.521 25.4012 122.385 25.7545C123.13 26.0893 123.813 26.5463 124.405 27.1063V17.084H129.104V44.8202H126.191ZM120.083 41.4639C120.938 41.4863 121.782 41.2767 122.526 40.8579C123.251 40.418 123.888 39.8491 124.405 39.1797V30.6957C123.956 30.1202 123.376 29.6572 122.714 29.3438C122.085 29.0993 121.416 28.9729 120.74 28.971C120.08 28.9685 119.425 29.0952 118.814 29.3438C118.256 29.6124 117.772 30.0125 117.405 30.5092C116.987 31.118 116.684 31.7973 116.512 32.5137C116.27 33.4419 116.159 34.3989 116.183 35.3573C116.167 36.3127 116.262 37.2668 116.465 38.2008C116.576 38.8692 116.833 39.5055 117.217 40.0654C117.515 40.5293 117.938 40.9008 118.438 41.1376C118.973 41.2874 119.534 41.3192 120.083 41.2308V41.4639Z" fill="#F5F8FF"/>
<path d="M143.387 44.4471H139.205L131.641 25.4746H135.447C135.745 25.4748 136.037 25.5553 136.292 25.7076C136.511 25.854 136.675 26.0667 136.762 26.3137L140.474 36.4292C140.474 37.0352 140.85 37.6413 140.991 38.2006C141.132 38.76 141.273 39.3194 141.367 39.8788C141.367 39.3194 141.366 38.76 141.742 38.2006C141.894 37.5995 142.082 37.0079 142.306 36.4292L146.065 26.3137C146.166 26.0746 146.328 25.8657 146.535 25.7076C146.776 25.5613 147.051 25.4809 147.333 25.4746H150.998L143.387 44.4471Z" fill="#F5F8FF"/>
<path d="M159.314 19.9278C159.32 20.3188 159.223 20.7045 159.032 21.0466C158.884 21.376 158.678 21.6761 158.422 21.9323C158.14 22.1911 157.824 22.4107 157.482 22.5849C157.108 22.7333 156.71 22.8123 156.307 22.818C155.92 22.8077 155.539 22.7287 155.18 22.5849C154.838 22.4107 154.522 22.1911 154.24 21.9323C153.984 21.6761 153.777 21.376 153.629 21.0466C153.553 20.6774 153.553 20.297 153.629 19.9278C153.558 19.5582 153.558 19.1786 153.629 18.809C153.766 18.4596 153.974 18.1422 154.24 17.8767C154.512 17.6172 154.831 17.4115 155.18 17.2707C155.555 17.0165 155.994 16.8713 156.448 16.8512C156.853 16.8329 157.256 16.9129 157.623 17.0843C157.972 17.2251 158.291 17.4307 158.563 17.6902C158.829 17.9557 159.037 18.2732 159.173 18.6226C159.345 19.0353 159.394 19.4883 159.314 19.9278ZM158.609 25.4751V44.4476H153.911V25.4751H158.609Z" fill="#F5F8FF"/>
<path d="M171.718 25.1491C172.842 25.1543 173.956 25.3596 175.007 25.7552C176.006 26.0998 176.907 26.675 177.638 27.4333C178.413 28.195 179.007 29.1187 179.376 30.137C179.788 31.3054 179.995 32.5353 179.987 33.773C179.987 34.0993 179.987 34.379 179.987 34.6121C180.021 34.7971 180.021 34.9865 179.987 35.1714C179.916 35.3014 179.799 35.401 179.658 35.4512H179.141H167.349C167.353 37.015 167.901 38.5295 168.899 39.7398C169.892 40.6536 171.21 41.1396 172.564 41.0916C173.217 41.1081 173.869 41.0135 174.49 40.812C174.987 40.7025 175.464 40.5136 175.9 40.2526L176.98 39.6932C177.244 39.5161 177.554 39.4189 177.873 39.4135C178.026 39.3667 178.19 39.3667 178.343 39.4135C178.489 39.4753 178.618 39.5713 178.719 39.6932L180.034 41.3713C179.54 41.9415 178.971 42.4433 178.343 42.8631C177.703 43.2543 177.027 43.5821 176.323 43.842C175.652 44.0685 174.959 44.2248 174.255 44.3081C173.552 44.3752 172.844 44.3752 172.141 44.3081C170.875 44.308 169.618 44.0871 168.429 43.6555C167.322 43.2032 166.316 42.5378 165.469 41.6977C164.589 40.7945 163.916 39.7131 163.496 38.5278C162.964 37.1285 162.709 35.6409 162.744 34.146C162.744 32.8897 162.967 31.6431 163.402 30.4633C163.791 29.3607 164.398 28.3464 165.187 27.4799C166.021 26.6344 167.01 25.9542 168.1 25.4755C169.276 25.1455 170.502 25.0348 171.718 25.1491ZM171.718 28.4589C171.144 28.4232 170.569 28.504 170.028 28.6964C169.487 28.8887 168.991 29.1886 168.57 29.5776C167.73 30.4354 167.215 31.5556 167.114 32.7475H175.759C175.764 32.1913 175.668 31.6387 175.477 31.1159C175.348 30.604 175.108 30.1265 174.772 29.7174C174.421 29.32 173.989 29.0021 173.503 28.7851C172.967 28.5648 172.392 28.4539 171.812 28.4589H171.718Z" fill="#F5F8FF"/>
<path d="M181.397 25.4751H185.061C185.359 25.4753 185.652 25.5558 185.907 25.7081C186.126 25.8545 186.29 26.0671 186.377 26.3141L189.102 36.4297C189.102 36.9891 189.384 37.5485 189.478 38.0613L189.76 39.6462C189.76 39.1334 190.042 38.6207 190.183 38.0613C190.324 37.5019 190.512 36.9891 190.653 36.4297L194.035 26.1743C194.096 25.9273 194.246 25.7113 194.458 25.5683C194.72 25.5012 194.995 25.5012 195.257 25.5683H197.277C197.554 25.4951 197.846 25.4951 198.123 25.5683C198.335 25.7113 198.485 25.9273 198.546 26.1743L201.694 36.523C201.867 37.0266 202.008 37.5404 202.117 38.0613L202.539 39.5996C202.584 39.0638 202.678 38.5331 202.821 38.0146C202.821 37.4552 203.056 36.9425 203.197 36.3365L206.063 26.2209C206.088 26.0967 206.139 25.9789 206.212 25.8747C206.284 25.7705 206.378 25.6821 206.486 25.6149C206.727 25.4686 207.003 25.3881 207.285 25.3818H210.809L204.748 44.3543H201.036C200.629 44.3543 200.347 44.0747 200.19 43.5153L196.713 32.5606L196.432 31.4885C196.432 31.1155 196.432 30.7426 196.197 30.4163C196.096 30.7685 196.018 31.1266 195.962 31.4885C195.874 31.8674 195.764 32.2409 195.633 32.6073L192.156 43.5153C191.968 44.0747 191.639 44.3543 191.169 44.3543H187.646L181.397 25.4751Z" fill="#F5F8FF"/>
<path d="M41.7039 9.69771L38.4128 14.609L29.2618 0.963583C29.2341 0.925116 29.1981 0.893251 29.1565 0.870292C29.1148 0.847333 29.0686 0.833848 29.021 0.830837H1.9694C1.6131 0.827917 1.26277 0.921741 0.956366 1.10216C0.649956 1.28258 0.399152 1.54271 0.23105 1.8544C0.0629467 2.1661 -0.0160171 2.51749 0.0026965 2.87051C0.0214101 3.22354 0.137074 3.56478 0.337203 3.85726L22.9739 37.5992L26.8805 43.3866C27.1796 43.8412 27.5882 44.2147 28.0694 44.4732C28.5506 44.7317 29.0892 44.8671 29.6365 44.8671C30.1837 44.8671 30.7222 44.7317 31.2034 44.4732C31.6847 44.2147 32.0933 43.8412 32.3925 43.3866L38.4128 34.4135L44.4332 43.3866C44.7355 43.8411 45.1467 44.2142 45.6301 44.4723C46.1134 44.7304 46.6537 44.8655 47.2026 44.8655C47.7515 44.8655 48.2918 44.7304 48.7751 44.4723C49.2584 44.2142 49.6696 43.8411 49.9719 43.3866L53.8518 37.5992L76.4884 3.85726C76.6885 3.56478 76.8042 3.22354 76.8229 2.87051C76.8417 2.51749 76.7626 2.1661 76.5945 1.8544C76.4264 1.54271 76.1757 1.28258 75.8693 1.10216C75.5629 0.921741 75.2125 0.827917 74.8562 0.830837H58.5343C55.2067 0.801957 51.9245 1.59782 48.9855 3.14621C46.0465 4.69461 43.5436 6.94653 41.7039 9.69771Z" fill="url(#paint0_linear_721_813)"/>
<path d="M52.595 38.5263L49.0454 43.7655C48.7949 44.1061 48.4637 44.3838 48.0796 44.5755C47.6954 44.7671 47.2695 44.8671 46.8372 44.8671C46.4049 44.8671 45.9788 44.7671 45.5947 44.5755C45.2105 44.3838 44.8793 44.1061 44.6288 43.7655L37.9362 34.0467L31.2164 24.1708L15.1487 0.830078H27.1792C27.6184 0.833695 28.0502 0.940466 28.4372 1.14126C28.8243 1.34206 29.155 1.63082 29.401 1.98267L37.9632 14.4258L44.7101 24.2232L52.622 35.7494C52.8871 36.1682 53.0251 36.6507 53.0204 37.1416C53.0156 37.6326 52.8682 38.1124 52.595 38.5263Z" fill="url(#paint1_radial_721_813)"/>
<path d="M15.1487 0.830078C19.507 5.9859 23.5702 11.3724 27.3198 16.9649C31.1619 22.4894 34.6846 28.2188 37.8718 34.1264C33.5199 28.9748 29.4569 23.5975 25.7006 18.0178C21.8584 12.4843 18.3356 6.74619 15.1487 0.830078Z" fill="url(#paint2_radial_721_813)"/>
<path d="M37.8718 14.793C40.9439 18.1564 43.7442 21.7534 46.247 25.551C48.8196 29.2981 51.0847 33.2432 53.0205 37.3485C49.9485 33.9851 47.1481 30.388 44.6454 26.5905C42.0727 22.8434 39.8076 18.8983 37.8718 14.793Z" fill="url(#paint3_radial_721_813)"/>
</g>
<defs>
<linearGradient id="paint0_linear_721_813" x1="0.0161355" y1="22.8653" x2="76.8363" y2="22.8653" gradientUnits="userSpaceOnUse">
<stop offset="0.42" stop-color="#F1F6FF"/>
<stop offset="1" stop-color="#FBFBFC"/>
</linearGradient>
<radialGradient id="paint1_radial_721_813" cx="0" cy="0" r="1" gradientUnits="userSpaceOnUse" gradientTransform="translate(34.0886 22.8086) scale(20.945 20.2496)">
<stop stop-color="white"/>
<stop offset="1" stop-color="#D6E5FE"/>
</radialGradient>
<radialGradient id="paint2_radial_721_813" cx="0" cy="0" r="1" gradientUnits="userSpaceOnUse" gradientTransform="translate(26.5102 17.4914) scale(14.492 14.1345)">
<stop stop-color="white"/>
<stop offset="1" stop-color="#85ABEB"/>
</radialGradient>
<radialGradient id="paint3_radial_721_813" cx="0" cy="0" r="1" gradientUnits="userSpaceOnUse" gradientTransform="translate(45.4593 26.0707) scale(9.66157 9.56272)">
<stop stop-color="white"/>
<stop offset="1" stop-color="#85ABEB"/>
</radialGradient>
<clipPath id="clip0_721_813">
<rect width="211" height="58" fill="white" transform="translate(0 0.830078)"/>
</clipPath>
</defs>
</svg>
