<svg width="211" height="58" viewBox="0 0 211 58" fill="none" xmlns="http://www.w3.org/2000/svg">
<g clip-path="url(#clip0_642_1692)">
<path d="M74.4146 24.4584C75.7326 24.4386 77.0416 24.6762 78.2672 25.1576C79.3949 25.5975 80.4187 26.2641 81.2742 27.1155C82.114 27.9968 82.7547 29.0456 83.1536 30.1921C83.626 31.4752 83.8493 32.8355 83.8114 34.201C83.8489 35.5969 83.6258 36.9877 83.1536 38.3032C82.7547 39.4496 82.114 40.4985 81.2742 41.3798C80.4187 42.2312 79.3949 42.8978 78.2672 43.3377C77.0416 43.8191 75.7326 44.0566 74.4146 44.0369C73.0814 44.0567 71.7568 43.8193 70.5149 43.3377C69.3872 42.8978 68.3635 42.2312 67.508 41.3798C66.6694 40.4891 66.0149 39.4438 65.5817 38.3032C65.1315 36.9822 64.909 35.5954 64.9238 34.201C64.9087 32.8371 65.1313 31.4808 65.5817 30.1921C66.0149 29.0514 66.6694 28.0062 67.508 27.1155C68.3635 26.2641 69.3872 25.5975 70.5149 25.1576C71.7568 24.6761 73.0814 24.4385 74.4146 24.4584ZM74.4146 40.4941C75.0892 40.5478 75.7665 40.4305 76.3829 40.1533C76.9992 39.876 77.5345 39.448 77.9384 38.9092C78.6809 37.4657 79.0679 35.8682 79.0679 34.2477C79.0679 32.6271 78.6809 31.0296 77.9384 29.5861C77.4974 29.0823 76.9524 28.6782 76.3404 28.4014C75.7284 28.1245 75.0637 27.9812 74.3911 27.9812C73.7185 27.9812 73.0538 28.1245 72.4418 28.4014C71.8299 28.6782 71.2849 29.0823 70.8438 29.5861C69.9696 30.9795 69.5588 32.6101 69.6692 34.2477C69.5523 35.8858 69.9636 37.5184 70.8438 38.9092C71.252 39.4551 71.7948 39.8876 72.4202 40.1652C73.0455 40.4427 73.7324 40.556 74.4146 40.4941Z" fill="#2762BF"/>
<path d="M87.429 43.9907V25.0181H90.1071C90.4677 24.9871 90.829 25.0686 91.1407 25.2512C91.3291 25.5115 91.4428 25.8176 91.4696 26.1369L91.7515 28.4211C92.3728 27.3658 93.1851 26.4334 94.1476 25.6708C95.0373 24.9958 96.1286 24.6348 97.2486 24.6452C98.0803 24.6204 98.8999 24.8481 99.5977 25.2978L99.034 28.7007C99.0092 28.901 98.9084 29.0844 98.7521 29.2135C98.6001 29.2668 98.4342 29.2668 98.2822 29.2135H97.4836C97.0626 29.1566 96.6358 29.1566 96.2149 29.2135C95.3337 29.1961 94.4725 29.4755 93.7718 30.006C93.0128 30.6148 92.4159 31.3992 92.0334 32.2902V43.9907H87.429Z" fill="#2762BF"/>
<path d="M107.538 16.2543V43.9905H102.84V16.4874L107.538 16.2543Z" fill="#2762BF"/>
<path d="M126.191 43.9905C125.927 44.0096 125.664 43.936 125.45 43.7826C125.235 43.6292 125.081 43.4059 125.016 43.1515L124.64 41.3334C124.269 41.7576 123.86 42.1476 123.419 42.4988C122.983 42.8572 122.51 43.1697 122.009 43.4312C121.492 43.7089 120.939 43.9129 120.365 44.0371C119.741 44.1142 119.109 44.1142 118.485 44.0371C117.492 44.059 116.508 43.8363 115.623 43.3889C114.738 42.9415 113.977 42.2834 113.411 41.4733C112.714 40.5774 112.218 39.5444 111.955 38.4433C111.574 37.0939 111.4 35.6953 111.438 34.2945C111.427 32.9686 111.617 31.6487 112.002 30.3788C112.345 29.2435 112.903 28.1835 113.646 27.2556C114.36 26.3947 115.238 25.6819 116.23 25.1579C117.305 24.6657 118.476 24.4112 119.66 24.412C120.594 24.3971 121.521 24.5715 122.385 24.9248C123.13 25.2596 123.813 25.7166 124.405 26.2766V16.2543H129.104V43.9905H126.191ZM120.083 40.6342C120.938 40.6566 121.782 40.447 122.526 40.0282C123.251 39.5883 123.888 39.0194 124.405 38.35V29.866C123.956 29.2905 123.376 28.8275 122.714 28.5141C122.085 28.2696 121.416 28.1432 120.74 28.1413C120.08 28.1388 119.425 28.2655 118.814 28.5141C118.256 28.7827 117.772 29.1828 117.405 29.6795C116.987 30.2883 116.684 30.9676 116.512 31.684C116.27 32.6122 116.159 33.5692 116.183 34.5276C116.167 35.483 116.262 36.4371 116.465 37.3711C116.576 38.0395 116.833 38.6758 117.217 39.2357C117.515 39.6996 117.938 40.0711 118.438 40.3079C118.973 40.4578 119.534 40.4895 120.083 40.4011V40.6342Z" fill="#2762BF"/>
<path d="M143.387 43.6175H139.205L131.641 24.645H135.447C135.745 24.6452 136.037 24.7257 136.292 24.878C136.511 25.0244 136.675 25.237 136.762 25.484L140.474 35.5996C140.474 36.2056 140.85 36.8116 140.991 37.371C141.132 37.9304 141.273 38.4898 141.367 39.0492C141.367 38.4898 141.366 37.9304 141.742 37.371C141.894 36.7698 142.082 36.1782 142.306 35.5996L146.065 25.484C146.166 25.2449 146.328 25.0361 146.535 24.878C146.776 24.7316 147.051 24.6512 147.333 24.645H150.998L143.387 43.6175Z" fill="#2762BF"/>
<path d="M159.314 19.0975C159.32 19.4884 159.223 19.8741 159.032 20.2162C158.884 20.5456 158.678 20.8457 158.422 21.1019C158.14 21.3608 157.824 21.5803 157.482 21.7545C157.108 21.9029 156.71 21.9819 156.307 21.9876C155.92 21.9773 155.539 21.8984 155.18 21.7545C154.838 21.5803 154.522 21.3608 154.24 21.1019C153.984 20.8457 153.777 20.5456 153.629 20.2162C153.553 19.8471 153.553 19.4666 153.629 19.0975C153.558 18.7279 153.558 18.3483 153.629 17.9787C153.766 17.6293 153.974 17.3118 154.24 17.0464C154.512 16.7869 154.831 16.5811 155.18 16.4404C155.555 16.1862 155.994 16.0409 156.448 16.0208C156.853 16.0025 157.256 16.0826 157.623 16.2539C157.972 16.3947 158.291 16.6004 158.563 16.8599C158.829 17.1253 159.037 17.4429 159.173 17.7923C159.345 18.2049 159.394 18.658 159.314 19.0975ZM158.609 24.6447V43.6173H153.911V24.6447H158.609Z" fill="#2762BF"/>
<path d="M171.718 24.3189C172.842 24.3241 173.956 24.5294 175.007 24.9249C176.006 25.2695 176.907 25.8447 177.638 26.6031C178.413 27.3647 179.007 28.2884 179.376 29.3068C179.788 30.4752 179.995 31.705 179.987 32.9428C179.987 33.2691 179.987 33.5488 179.987 33.7818C180.021 33.9668 180.021 34.1562 179.987 34.3412C179.916 34.4712 179.799 34.5707 179.658 34.621H179.141H167.349C167.353 36.1848 167.901 37.6992 168.899 38.9096C169.892 39.8233 171.21 40.3094 172.564 40.2614C173.217 40.2778 173.869 40.1833 174.49 39.9817C174.987 39.8723 175.464 39.6834 175.9 39.4224L176.98 38.8629C177.244 38.6858 177.554 38.5887 177.873 38.5832C178.026 38.5365 178.19 38.5365 178.343 38.5832C178.489 38.6451 178.618 38.741 178.719 38.8629L180.034 40.5411C179.54 41.1113 178.971 41.613 178.343 42.0328C177.703 42.424 177.027 42.7519 176.323 43.0117C175.652 43.2383 174.959 43.3945 174.255 43.4779C173.552 43.545 172.844 43.545 172.141 43.4779C170.875 43.4778 169.618 43.2569 168.429 42.8253C167.322 42.373 166.316 41.7076 165.469 40.8674C164.589 39.9643 163.916 38.8829 163.496 37.6975C162.964 36.2983 162.709 34.8107 162.744 33.3157C162.744 32.0594 162.967 30.8129 163.402 29.6331C163.791 28.5305 164.398 27.5161 165.187 26.6497C166.021 25.8042 167.01 25.124 168.1 24.6452C169.276 24.3152 170.502 24.2046 171.718 24.3189ZM171.718 27.6286C171.144 27.593 170.569 27.6738 170.028 27.8661C169.487 28.0585 168.991 28.3583 168.57 28.7473C167.73 29.6052 167.215 30.7254 167.114 31.9172H175.759C175.764 31.3611 175.668 30.8085 175.477 30.2857C175.348 29.7738 175.108 29.2963 174.772 28.8872C174.421 28.4898 173.989 28.1718 173.503 27.9549C172.967 27.7346 172.392 27.6237 171.812 27.6286H171.718Z" fill="#2762BF"/>
<path d="M181.397 24.6449H185.061C185.359 24.6451 185.652 24.7256 185.907 24.8779C186.126 25.0243 186.29 25.2369 186.377 25.4839L189.102 35.5995C189.102 36.1589 189.384 36.7183 189.478 37.231L189.76 38.816C189.76 38.3032 190.042 37.7904 190.183 37.231C190.324 36.6717 190.512 36.1589 190.653 35.5995L194.035 25.3441C194.096 25.0971 194.246 24.8811 194.458 24.738C194.72 24.6709 194.995 24.6709 195.257 24.738H197.277C197.554 24.6649 197.846 24.6649 198.123 24.738C198.335 24.8811 198.485 25.0971 198.546 25.3441L201.694 35.6927C201.867 36.1964 202.008 36.7101 202.117 37.231L202.539 38.7694C202.584 38.2335 202.678 37.7029 202.821 37.1844C202.821 36.625 203.056 36.1122 203.197 35.5062L206.063 25.3907C206.088 25.2664 206.139 25.1487 206.212 25.0445C206.284 24.9403 206.378 24.8519 206.486 24.7847C206.727 24.6383 207.003 24.5579 207.285 24.5516H210.809L204.748 43.5241H201.036C200.629 43.5241 200.347 43.2444 200.19 42.6851L196.713 31.7304L196.432 30.6582C196.432 30.2853 196.432 29.9124 196.197 29.5861C196.096 29.9383 196.018 30.2964 195.962 30.6582C195.874 31.0371 195.764 31.4107 195.633 31.777L192.156 42.6851C191.968 43.2444 191.639 43.5241 191.169 43.5241H187.646L181.397 24.6449Z" fill="#2762BF"/>
<path d="M41.7039 8.86763L38.4128 13.7789L29.2618 0.133505C29.2341 0.0950376 29.1981 0.0631729 29.1565 0.040214C29.1148 0.0172552 29.0686 0.00376968 29.021 0.000758866H1.9694C1.6131 -0.00216133 1.26277 0.0916632 0.956366 0.272084C0.649956 0.452505 0.399152 0.712627 0.23105 1.02432C0.0629467 1.33602 -0.0160171 1.68741 0.0026965 2.04044C0.0214101 2.39346 0.137074 2.7347 0.337203 3.02718L22.9739 36.7691L26.8805 42.5565C27.1796 43.0112 27.5882 43.3846 28.0694 43.6431C28.5506 43.9016 29.0892 44.037 29.6365 44.037C30.1837 44.037 30.7222 43.9016 31.2034 43.6431C31.6847 43.3846 32.0933 43.0112 32.3925 42.5565L38.4128 33.5834L44.4332 42.5565C44.7355 43.0111 45.1467 43.3841 45.6301 43.6422C46.1134 43.9003 46.6537 44.0354 47.2026 44.0354C47.7515 44.0354 48.2918 43.9003 48.7751 43.6422C49.2584 43.3841 49.6696 43.0111 49.9719 42.5565L53.8518 36.7691L76.4884 3.02718C76.6885 2.7347 76.8042 2.39346 76.8229 2.04044C76.8417 1.68741 76.7626 1.33602 76.5945 1.02432C76.4264 0.712627 76.1757 0.452505 75.8693 0.272084C75.5629 0.0916632 75.2125 -0.00216133 74.8562 0.000758866H58.5343C55.2067 -0.0281213 51.9245 0.767739 48.9855 2.31614C46.0465 3.86453 43.5436 6.11645 41.7039 8.86763Z" fill="url(#paint0_linear_642_1692)"/>
<path d="M52.595 37.6962L49.0454 42.9354C48.7949 43.276 48.4637 43.5538 48.0796 43.7454C47.6954 43.937 47.2695 44.037 46.8372 44.037C46.4049 44.037 45.9788 43.937 45.5947 43.7454C45.2105 43.5538 44.8793 43.276 44.6288 42.9354L37.9362 33.2166L31.2164 23.3407L15.1487 0H27.1792C27.6184 0.00361703 28.0502 0.110388 28.4372 0.311183C28.8243 0.511978 29.155 0.800743 29.401 1.15259L37.9632 13.5957L44.7101 23.3931L52.622 34.9194C52.8871 35.3382 53.0251 35.8206 53.0204 36.3116C53.0156 36.8025 52.8682 37.2823 52.595 37.6962Z" fill="url(#paint1_radial_642_1692)"/>
<path d="M15.1487 0C19.507 5.15582 23.5702 10.5423 27.3198 16.1349C31.1619 21.6594 34.6846 27.3888 37.8718 33.2963C33.5199 28.1447 29.4569 22.7674 25.7006 17.1877C21.8584 11.6543 18.3356 5.91611 15.1487 0Z" fill="url(#paint2_radial_642_1692)"/>
<path d="M37.8718 13.963C40.9439 17.3263 43.7442 20.9234 46.247 24.721C48.8196 28.4681 51.0847 32.4132 53.0205 36.5185C49.9485 33.1551 47.1481 29.558 44.6454 25.7605C42.0727 22.0134 39.8076 18.0683 37.8718 13.963Z" fill="url(#paint3_radial_642_1692)"/>
</g>
<defs>
<linearGradient id="paint0_linear_642_1692" x1="0.0161355" y1="22.0352" x2="76.8363" y2="22.0352" gradientUnits="userSpaceOnUse">
<stop offset="0.42" stop-color="#2762BF"/>
<stop offset="1" stop-color="#04002A"/>
</linearGradient>
<radialGradient id="paint1_radial_642_1692" cx="0" cy="0" r="1" gradientUnits="userSpaceOnUse" gradientTransform="translate(34.0886 21.9785) scale(20.945 20.2496)">
<stop stop-color="white"/>
<stop offset="1" stop-color="#85ABEB"/>
</radialGradient>
<radialGradient id="paint2_radial_642_1692" cx="0" cy="0" r="1" gradientUnits="userSpaceOnUse" gradientTransform="translate(26.5102 16.6613) scale(14.492 14.1345)">
<stop stop-color="white"/>
<stop offset="1" stop-color="#85ABEB"/>
</radialGradient>
<radialGradient id="paint3_radial_642_1692" cx="0" cy="0" r="1" gradientUnits="userSpaceOnUse" gradientTransform="translate(45.4593 25.2407) scale(9.66157 9.56272)">
<stop stop-color="white"/>
<stop offset="1" stop-color="#85ABEB"/>
</radialGradient>
<clipPath id="clip0_642_1692">
<rect width="211" height="58" fill="white"/>
</clipPath>
</defs>
</svg>
