<svg width="38" height="69" viewBox="0 0 38 69" fill="none" xmlns="http://www.w3.org/2000/svg">
<path d="M1 53.1391C1 52.5868 0.552285 52.1391 0 52.1391L0 49.1335C0.552285 49.1335 1 48.6858 1 48.1335L1 45.6308C1 45.4448 1.04744 45.2876 1.12201 45.1582C1.26102 44.917 1.28822 44.642 1.21973 44.3933C1.39703 44.5779 1.64474 44.6948 1.92083 44.7003C2.06416 44.7032 2.21648 44.7432 2.36891 44.8391L4.25604 46.0266C4.72347 46.3208 5.34086 46.1803 5.635 45.7129L7.71651 47.0227C7.42237 47.4901 7.56284 48.1075 8.03028 48.4017L11.8045 50.7767C12.272 51.0709 12.8893 50.9304 13.1835 50.463L15.265 51.7728C14.9709 52.2402 15.1113 52.8576 15.5788 53.1518L17.4659 54.3393C18.4049 54.9302 19.5951 54.9302 20.5341 54.3393L22.4212 53.1518C22.8887 52.8576 23.0292 52.2402 22.735 51.7728L24.8165 50.463C25.1107 50.9304 25.728 51.0709 26.1955 50.7767L29.9697 48.4017C30.4372 48.1075 30.5776 47.4901 30.2835 47.0227L32.365 45.7129C32.6591 46.1803 33.2765 46.3208 33.744 46.0266L35.6311 44.8391C35.7835 44.7432 35.9358 44.7032 36.0792 44.7003C36.3553 44.6948 36.603 44.5778 36.7803 44.3933C36.7118 44.642 36.739 44.917 36.878 45.1582C36.9526 45.2876 37 45.4448 37 45.6308V48.1335C37 48.6858 37.4477 49.1335 38 49.1335V52.1391C37.4477 52.1391 37 52.5868 37 53.1391V55.6418C37 55.9694 36.833 56.2673 36.5689 56.4335L35.1439 57.3302C34.6765 57.6244 34.536 58.2418 34.8301 58.7092L33.6729 59.4374C33.3787 58.97 32.7613 58.8295 32.2939 59.1237L29.4439 60.9171C28.9765 61.2113 28.836 61.8287 29.1301 62.2961L27.9729 63.0243C27.6787 62.5569 27.0613 62.4164 26.5939 62.7106L23.7439 64.504C23.2765 64.7982 23.136 65.4155 23.4301 65.883L22.2729 66.6112C21.9787 66.1438 21.3613 66.0033 20.8939 66.2975L19.4689 67.1942C19.181 67.3754 18.819 67.3754 18.5311 67.1942L17.1061 66.2975C16.6387 66.0033 16.0213 66.1438 15.7271 66.6112L14.5699 65.883C14.864 65.4155 14.7235 64.7982 14.2561 64.504L11.4061 62.7106C10.9387 62.4164 10.3213 62.5569 10.0271 63.0243L8.86985 62.2961C9.164 61.8287 9.02352 61.2113 8.55609 60.9171L5.70609 59.1237C5.23865 58.8295 4.62127 58.97 4.32712 59.4374L3.16985 58.7092C3.464 58.2418 3.32352 57.6244 2.85609 57.3302L1.43109 56.4335C1.167 56.2673 1 55.9694 1 55.6418L1 53.1391ZM0.976245 43.9651C0.97235 43.9611 0.968416 43.9571 0.964444 43.9531C0.966935 43.9516 0.969427 43.9502 0.971923 43.9488C0.973318 43.9543 0.974761 43.9597 0.976245 43.9651ZM37.0238 43.9651C37.0252 43.9597 37.0267 43.9543 37.0281 43.9488C37.0306 43.9502 37.0331 43.9516 37.0356 43.9531C37.0316 43.957 37.0277 43.9611 37.0238 43.9651ZM2.36891 1.46904L2.90152 0.62267L2.36892 1.46904L4.25604 2.65656C4.72347 2.95071 5.34086 2.81023 5.635 2.3428L7.71651 3.65265C7.42237 4.12009 7.56284 4.73747 8.03028 5.03162L11.8045 7.40667C12.272 7.70082 12.8893 7.56034 13.1835 7.09291L15.265 8.40276C14.9709 8.87019 15.1113 9.48758 15.5788 9.78173L17.4659 10.9693C18.4049 11.5601 19.5951 11.5601 20.5341 10.9693L22.4212 9.78173C22.8887 9.48758 23.0292 8.87019 22.735 8.40276L24.8165 7.09291C25.1107 7.56034 25.728 7.70082 26.1955 7.40667L29.9697 5.03162C30.4372 4.73747 30.5776 4.12009 30.2835 3.65265L32.365 2.3428C32.6591 2.81023 33.2765 2.95071 33.744 2.65656L35.6311 1.46904C35.7835 1.37311 35.9358 1.33312 36.0792 1.33025C36.3553 1.32471 36.603 1.20779 36.7803 1.02323C36.7118 1.27197 36.739 1.54693 36.878 1.78811C36.9526 1.91751 37 2.07477 37 2.2607V4.76347C37 5.31575 37.4477 5.76347 38 5.76347V8.76901C37.4477 8.76901 37 9.21673 37 9.76901V12.2718C37 12.5994 36.833 12.8973 36.5689 13.0634L35.1439 13.9602C34.6765 14.2543 34.536 14.8717 34.8301 15.3391L33.6729 16.0674C33.3787 15.5999 32.7613 15.4595 32.2939 15.7536L29.4439 17.5471C28.9765 17.8412 28.836 18.4586 29.1301 18.926L27.9729 19.6543C27.6787 19.1868 27.0613 19.0464 26.5939 19.3405L23.7439 21.134C23.2765 21.4281 23.136 22.0455 23.4301 22.5129L22.2729 23.2412C21.9787 22.7737 21.3613 22.6333 20.8939 22.9274L19.4689 23.8241C19.181 24.0053 18.819 24.0053 18.5311 23.8241L17.1061 22.9274C16.6387 22.6333 16.0213 22.7737 15.7271 23.2412L14.5699 22.5129C14.864 22.0455 14.7235 21.4281 14.2561 21.134L11.4061 19.3405C10.9387 19.0464 10.3213 19.1868 10.0271 19.6543L8.86985 18.926C9.164 18.4586 9.02352 17.8412 8.55609 17.5471L5.70609 15.7536C5.23865 15.4595 4.62127 15.5999 4.32712 16.0674L3.16985 15.3391C3.464 14.8717 3.32352 14.2543 2.85609 13.9602L1.43109 13.0634L0.906644 13.8968L1.43109 13.0634C1.167 12.8973 1 12.5994 1 12.2718L1 9.76901C1 9.21673 0.552285 8.76901 0 8.76901L0 5.76347C0.552285 5.76347 1 5.31576 1 4.76347L1 2.2607C1 2.07478 1.04744 1.91751 1.12201 1.78812C1.26103 1.54693 1.28822 1.27197 1.21973 1.02323C1.39703 1.20779 1.64474 1.32471 1.92083 1.33025C2.06416 1.33312 2.21648 1.37311 2.36891 1.46904ZM37.0238 0.595054C37.0252 0.589635 37.0267 0.584198 37.0281 0.578743C37.0306 0.580161 37.0331 0.581582 37.0356 0.583011C37.0316 0.586996 37.0277 0.591012 37.0238 0.595054ZM1 31.454C1 30.9018 0.552285 30.454 0 30.454L0 27.4485C0.552285 27.4485 1 27.0008 1 26.4485L1 23.9457C1 23.7598 1.04744 23.6025 1.12201 23.4731C1.26103 23.232 1.28822 22.957 1.21973 22.7083C1.39703 22.8928 1.64474 23.0097 1.92083 23.0153C2.06416 23.0181 2.21648 23.0581 2.36891 23.1541L4.25604 24.3416C4.72347 24.6357 5.34086 24.4953 5.635 24.0278L7.71651 25.3377C7.42237 25.8051 7.56284 26.4225 8.03028 26.7166L11.8045 29.0917C12.272 29.3858 12.8893 29.2454 13.1835 28.7779L15.265 30.0878C14.9709 30.5552 15.1113 31.1726 15.5788 31.4668L17.4659 32.6543C18.4049 33.2452 19.5951 33.2452 20.5341 32.6543L22.4212 31.4668C22.8887 31.1726 23.0292 30.5552 22.735 30.0878L24.8165 28.7779C25.1107 29.2454 25.728 29.3858 26.1955 29.0917L29.9697 26.7166C30.4372 26.4225 30.5776 25.8051 30.2835 25.3377L32.365 24.0278C32.6591 24.4953 33.2765 24.6357 33.744 24.3416L35.6311 23.1541C35.7835 23.0581 35.9358 23.0181 36.0792 23.0153C36.3553 23.0097 36.603 22.8928 36.7803 22.7083C36.7118 22.957 36.739 23.232 36.878 23.4731C36.9526 23.6025 37 23.7598 37 23.9457V26.4485C37 27.0008 37.4477 27.4485 38 27.4485V30.454C37.4477 30.454 37 30.9018 37 31.454V33.9568C37 34.2844 36.833 34.5823 36.5689 34.7485L35.1439 35.6452C34.6765 35.9393 34.536 36.5567 34.8301 37.0242L33.6729 37.7524C33.3787 37.285 32.7613 37.1445 32.2939 37.4386L29.4439 39.2321C28.9765 39.5262 28.836 40.1436 29.1301 40.6111L27.9729 41.3393C27.6787 40.8719 27.0613 40.7314 26.5939 41.0255L23.7439 42.819C23.2765 43.1131 23.136 43.7305 23.4301 44.198L22.2729 44.9262C21.9787 44.4588 21.3613 44.3183 20.8939 44.6124L19.4689 45.5092C19.181 45.6903 18.819 45.6903 18.5311 45.5092L17.1061 44.6124C16.6387 44.3183 16.0213 44.4588 15.7271 44.9262L14.5699 44.198C14.864 43.7305 14.7235 43.1131 14.2561 42.819L11.4061 41.0255C10.9387 40.7314 10.3213 40.8719 10.0271 41.3393L8.86985 40.6111C9.164 40.1436 9.02352 39.5262 8.55609 39.2321L5.70609 37.4386C5.23865 37.1445 4.62127 37.285 4.32712 37.7524L3.16985 37.0242C3.464 36.5567 3.32352 35.9393 2.85609 35.6452L1.43109 34.7485C1.167 34.5823 1 34.2844 1 33.9568V31.454ZM0.971924 22.2638C0.973318 22.2692 0.974761 22.2747 0.976245 22.2801C0.97235 22.276 0.968417 22.272 0.964445 22.268C0.966936 22.2666 0.969427 22.2652 0.971924 22.2638ZM37.0238 22.2801C37.0252 22.2747 37.0267 22.2692 37.0281 22.2638C37.0306 22.2652 37.0331 22.2666 37.0356 22.268C37.0316 22.272 37.0277 22.276 37.0238 22.2801ZM0.97624 0.595048C0.972346 0.591007 0.968413 0.586994 0.964443 0.583011C0.966933 0.581582 0.969427 0.580159 0.971923 0.578741C0.973317 0.584195 0.974756 0.58963 0.97624 0.595048Z" stroke="white" stroke-width="2" stroke-linecap="round" stroke-dasharray="4 4"/>
</svg>
