<svg width="98" height="117" viewBox="0 0 98 117" fill="none" xmlns="http://www.w3.org/2000/svg">
<path d="M1 60.575C1 60.0227 0.552285 59.575 0 59.575L0 55.8334C0.552285 55.8334 1 55.3857 1 54.8334L1 51.9625C1 51.7239 1.062 51.5185 1.16187 51.3479C1.40124 50.939 1.31728 50.43 0.987559 50.1174C1.07852 50.0573 1.17376 50.0038 1.27243 49.9575C1.36682 50.4011 1.75613 50.7382 2.2292 50.7483C2.42481 50.7524 2.62979 50.807 2.83063 50.9322L4.28736 51.8403C4.75603 52.1325 5.37282 51.9894 5.66499 51.5208L6.88121 52.2789C6.58905 52.7476 6.73213 53.3644 7.20081 53.6566L10.1143 55.4728C10.5829 55.7649 11.1997 55.6219 11.4919 55.1532L12.7081 55.9114C12.4159 56.38 12.559 56.9968 13.0277 57.289L15.9412 59.1052C16.4098 59.3974 17.0266 59.2543 17.3188 58.7856L18.535 59.5438C18.2428 60.0125 18.3859 60.6293 18.8546 60.9214L20.3113 61.8295C21.3455 62.4742 22.6545 62.4742 23.6887 61.8295L25.1454 60.9214C25.6141 60.6293 25.7572 60.0125 25.465 59.5438L26.6812 58.7856C26.9734 59.2543 27.5902 59.3974 28.0588 59.1052L30.9723 57.289C31.441 56.9968 31.5841 56.38 31.2919 55.9114L32.5081 55.1532C32.8003 55.6219 33.4171 55.7649 33.8857 55.4728L36.7992 53.6566C37.2679 53.3644 37.411 52.7476 37.1188 52.2789L38.335 51.5208C38.6272 51.9894 39.244 52.1325 39.7126 51.8403L41.1694 50.9322C41.3702 50.807 41.5752 50.7524 41.7708 50.7483C42.2439 50.7382 42.6332 50.4011 42.7276 49.9575C42.8262 50.0038 42.9215 50.0573 43.0124 50.1174C42.6827 50.43 42.5988 50.939 42.8381 51.3479C42.938 51.5185 43 51.7239 43 51.9625V54.8334C43 55.3857 43.4477 55.8334 44 55.8334V59.575C43.4477 59.575 43 60.0227 43 60.575V63.4458C43 63.8672 42.7833 64.2563 42.4306 64.4762L40.7806 65.5047C40.312 65.7969 40.1689 66.4137 40.461 66.8824L38.8583 67.8815C38.5661 67.4129 37.9493 67.2698 37.4806 67.5619L34.1806 69.6191C33.712 69.9113 33.5689 70.5281 33.861 70.9967L32.2583 71.9959C31.9661 71.5272 31.3493 71.3841 30.8806 71.6763L27.5806 73.7335C27.112 74.0257 26.9689 74.6425 27.261 75.1111L25.6583 76.1103C25.3661 75.6416 24.7493 75.4985 24.2806 75.7907L22.6306 76.8193C22.2441 77.0602 21.7559 77.0602 21.3694 76.8193L19.7194 75.7907C19.2507 75.4985 18.6339 75.6416 18.3417 76.1103L16.739 75.1111C17.0311 74.6425 16.888 74.0257 16.4194 73.7335L13.1194 71.6763C12.6507 71.3841 12.0339 71.5272 11.7417 71.9959L10.139 70.9967C10.4311 70.5281 10.288 69.9113 9.81937 69.6191L6.51937 67.5619C6.05069 67.2698 5.43391 67.4129 5.14174 67.8815L3.53896 66.8824C3.83113 66.4137 3.68804 65.7969 3.21937 65.5047L1.56937 64.4762C1.21674 64.2563 1 63.8672 1 63.4458L1 60.575ZM2.83063 1.18423L3.34439 0.3601L2.83063 1.18423L4.28736 2.09234C4.75603 2.38451 5.37282 2.24142 5.66499 1.77275L6.88121 2.53093C6.58905 2.99961 6.73213 3.61639 7.20081 3.90856L10.1143 5.72478C10.5829 6.01694 11.1997 5.87386 11.4919 5.40518L12.7081 6.16337C12.4159 6.63204 12.559 7.24883 13.0277 7.54099L15.9412 9.35721C16.4098 9.64938 17.0266 9.50629 17.3188 9.03762L18.535 9.7958C18.2428 10.2645 18.3859 10.8813 18.8546 11.1734L20.3113 12.0815C21.3455 12.7262 22.6545 12.7262 23.6887 12.0815L25.1454 11.1734C25.6141 10.8813 25.7572 10.2645 25.465 9.7958L26.6812 9.03762C26.9734 9.50629 27.5902 9.64938 28.0588 9.35721L30.9723 7.54099C31.441 7.24883 31.5841 6.63204 31.2919 6.16337L32.5081 5.40518C32.8003 5.87386 33.4171 6.01694 33.8857 5.72478L36.7992 3.90856C37.2679 3.61639 37.411 2.99961 37.1188 2.53093L38.335 1.77275C38.6272 2.24142 39.244 2.38451 39.7126 2.09234L41.1694 1.18423L40.6404 0.33562L41.1694 1.18423C41.3702 1.05903 41.5752 1.00444 41.7708 1.00026C42.2439 0.990149 42.6332 0.653108 42.7276 0.209508C42.8262 0.255797 42.9215 0.309265 43.0124 0.369423C42.6827 0.681954 42.5988 1.19096 42.8381 1.59991C42.938 1.77054 43 1.97587 43 2.21453V5.08536C43 5.63765 43.4477 6.08536 44 6.08536V9.82701C43.4477 9.82701 43 10.2747 43 10.827V13.6978C43 14.1192 42.7833 14.5083 42.4306 14.7281L42.9596 15.5768L42.4306 14.7281L40.7806 15.7567C40.312 16.0489 40.1689 16.6657 40.461 17.1344L38.8583 18.1335C38.5661 17.6648 37.9493 17.5218 37.4806 17.8139L34.1806 19.8711C33.712 20.1633 33.5689 20.7801 33.861 21.2487L32.2583 22.2479C31.9661 21.7792 31.3493 21.6361 30.8806 21.9283L27.5806 23.9855C27.112 24.2777 26.9689 24.8944 27.261 25.3631L25.6583 26.3623C25.3661 25.8936 24.7493 25.7505 24.2806 26.0427L22.6306 27.0713C22.2441 27.3122 21.7559 27.3122 21.3694 27.0713L19.7194 26.0427C19.2507 25.7505 18.6339 25.8936 18.3417 26.3623L16.739 25.3631C17.0311 24.8944 16.888 24.2777 16.4194 23.9855L13.1194 21.9283C12.6507 21.6361 12.0339 21.7792 11.7417 22.2479L10.139 21.2487C10.4311 20.7801 10.288 20.1633 9.81937 19.8711L6.51937 17.8139C6.05069 17.5218 5.43391 17.6648 5.14174 18.1335L3.53896 17.1344C3.83113 16.6657 3.68804 16.0489 3.21937 15.7567L1.56937 14.7281C1.21674 14.5083 1 14.1192 1 13.6978V10.827C1 10.2747 0.552285 9.82701 0 9.82701L0 6.08536C0.552285 6.08536 1 5.63765 1 5.08536V2.21454C1 1.97587 1.062 1.77054 1.16187 1.59991C1.40124 1.19096 1.31728 0.681956 0.987558 0.369425C1.07851 0.309267 1.17376 0.255797 1.27243 0.209509C1.36682 0.653109 1.75613 0.99015 2.2292 1.00026C2.42481 1.00444 2.6298 1.05903 2.83063 1.18423ZM1 35.701C1 35.1487 0.552285 34.701 0 34.701L0 30.9594C0.552285 30.9594 1 30.5117 1 29.9594L1 27.0885C1 26.8499 1.062 26.6445 1.16187 26.4739C1.40124 26.065 1.31728 25.556 0.987558 25.2434C1.07852 25.1833 1.17376 25.1298 1.27243 25.0835C1.36682 25.5271 1.75613 25.8642 2.2292 25.8743C2.42481 25.8784 2.6298 25.933 2.83063 26.0582L4.28736 26.9663C4.75603 27.2585 5.37282 27.1154 5.66499 26.6467L6.88121 27.4049C6.58905 27.8736 6.73213 28.4904 7.20081 28.7826L10.1143 30.5988C10.5829 30.8909 11.1997 30.7479 11.4919 30.2792L12.7081 31.0374C12.4159 31.506 12.559 32.1228 13.0277 32.415L15.9412 34.2312C16.4098 34.5234 17.0266 34.3803 17.3188 33.9116L18.535 34.6698C18.2428 35.1385 18.3859 35.7553 18.8546 36.0474L20.3113 36.9555C21.3455 37.6002 22.6545 37.6002 23.6887 36.9555L25.1454 36.0474C25.6141 35.7553 25.7572 35.1385 25.465 34.6698L26.6812 33.9116C26.9734 34.3803 27.5902 34.5234 28.0588 34.2312L30.9723 32.415C31.441 32.1228 31.5841 31.506 31.2919 31.0374L32.5081 30.2792C32.8003 30.7479 33.4171 30.8909 33.8857 30.5988L36.7992 28.7826C37.2679 28.4904 37.411 27.8736 37.1188 27.4049L38.335 26.6467C38.6272 27.1154 39.244 27.2585 39.7126 26.9663L41.1694 26.0582C41.3702 25.933 41.5752 25.8784 41.7708 25.8743C42.2439 25.8642 42.6332 25.5271 42.7276 25.0835C42.8262 25.1298 42.9215 25.1833 43.0124 25.2434C42.6827 25.556 42.5988 26.065 42.8381 26.4739C42.938 26.6445 43 26.8499 43 27.0885V29.9594C43 30.5116 43.4477 30.9594 44 30.9594V34.701C43.4477 34.701 43 35.1487 43 35.701V38.5718C43 38.9932 42.7833 39.3823 42.4306 39.6021L40.7806 40.6307C40.312 40.9229 40.1689 41.5397 40.461 42.0084L38.8583 43.0075C38.5661 42.5388 37.9493 42.3958 37.4806 42.6879L34.1806 44.7451C33.712 45.0373 33.5689 45.6541 33.861 46.1227L32.2583 47.1219C31.9661 46.6532 31.3493 46.5101 30.8806 46.8023L27.5806 48.8595C27.112 49.1517 26.9689 49.7684 27.261 50.2371L25.6583 51.2363C25.3661 50.7676 24.7493 50.6245 24.2806 50.9167L22.6306 51.9453C22.2441 52.1862 21.7559 52.1862 21.3694 51.9453L19.7194 50.9167C19.2507 50.6245 18.6339 50.7676 18.3417 51.2363L16.739 50.2371C17.0311 49.7684 16.888 49.1517 16.4194 48.8595L13.1194 46.8023C12.6507 46.5101 12.0339 46.6532 11.7417 47.1219L10.139 46.1227C10.4311 45.6541 10.288 45.0373 9.81937 44.7451L6.51937 42.6879C6.05069 42.3958 5.43391 42.5388 5.14174 43.0075L3.53896 42.0084C3.83113 41.5397 3.68804 40.9229 3.21937 40.6307L1.56937 39.6021C1.21674 39.3823 1 38.9932 1 38.5718L1 35.701Z" stroke="white" stroke-width="2" stroke-linecap="round" stroke-dasharray="4 4"/>
<path d="M98 117V100.552L76 87.0345L54 100.552L54 117L76 103.482L98 117Z" fill="white"/>
<path d="M98 76.0351V92.4828L76 78.9649L54 92.4828L54 76.0351L76 62.5172L98 76.0351Z" fill="white"/>
<path d="M98 51.5179V67.9655L76 54.4476L54 67.9655L54 51.5179L76 38L98 51.5179Z" fill="white"/>
</svg>
